<svg width="96" height="96" viewBox="0 0 96 96" fill="none" xmlns="http://www.w3.org/2000/svg">
<rect x="18" y="18" width="68" height="68" fill="black" stroke="black" stroke-width="4" stroke-linejoin="round"></rect>
<rect x="10" y="10" width="68" height="68" fill="#FF5555" stroke="black" stroke-width="4" stroke-linejoin="round"></rect>
<g clip-path="url(#clip0_74_5150)">
<path d="M44 24.3219C50.4125 24.3219 51.1719 24.35 53.6938 24.4625C56.0375 24.5656 57.3031 24.9594 58.1469 25.2875C59.2625 25.7188 60.0688 26.2438 60.9031 27.0781C61.7469 27.9219 62.2625 28.7188 62.6938 29.8344C63.0219 30.6781 63.4156 31.9531 63.5188 34.2875C63.6313 36.8187 63.6594 37.5781 63.6594 43.9813C63.6594 50.3938 63.6313 51.1531 63.5188 53.675C63.4156 56.0188 63.0219 57.2844 62.6938 58.1281C62.2625 59.2438 61.7375 60.05 60.9031 60.8844C60.0594 61.7281 59.2625 62.2438 58.1469 62.675C57.3031 63.0031 56.0281 63.3969 53.6938 63.5C51.1625 63.6125 50.4031 63.6406 44 63.6406C37.5875 63.6406 36.8281 63.6125 34.3063 63.5C31.9625 63.3969 30.6969 63.0031 29.8531 62.675C28.7375 62.2438 27.9313 61.7188 27.0969 60.8844C26.2531 60.0406 25.7375 59.2438 25.3063 58.1281C24.9781 57.2844 24.5844 56.0094 24.4813 53.675C24.3688 51.1438 24.3406 50.3844 24.3406 43.9813C24.3406 37.5688 24.3688 36.8094 24.4813 34.2875C24.5844 31.9437 24.9781 30.6781 25.3063 29.8344C25.7375 28.7188 26.2625 27.9125 27.0969 27.0781C27.9406 26.2344 28.7375 25.7188 29.8531 25.2875C30.6969 24.9594 31.9719 24.5656 34.3063 24.4625C36.8281 24.35 37.5875 24.3219 44 24.3219ZM44 20C37.4844 20 36.6688 20.0281 34.1094 20.1406C31.5594 20.2531 29.8063 20.6656 28.2875 21.2562C26.7031 21.875 25.3625 22.6906 24.0313 24.0312C22.6906 25.3625 21.875 26.7031 21.2563 28.2781C20.6656 29.8063 20.2531 31.55 20.1406 34.1C20.0281 36.6687 20 37.4844 20 44C20 50.5156 20.0281 51.3313 20.1406 53.8906C20.2531 56.4406 20.6656 58.1938 21.2563 59.7125C21.875 61.2969 22.6906 62.6375 24.0313 63.9688C25.3625 65.3 26.7031 66.125 28.2781 66.7344C29.8063 67.325 31.55 67.7375 34.1 67.85C36.6594 67.9625 37.475 67.9906 43.9906 67.9906C50.5063 67.9906 51.3219 67.9625 53.8813 67.85C56.4313 67.7375 58.1844 67.325 59.7031 66.7344C61.2781 66.125 62.6188 65.3 63.95 63.9688C65.2813 62.6375 66.1063 61.2969 66.7156 59.7219C67.3063 58.1938 67.7188 56.45 67.8313 53.9C67.9438 51.3406 67.9719 50.525 67.9719 44.0094C67.9719 37.4938 67.9438 36.6781 67.8313 34.1188C67.7188 31.5688 67.3063 29.8156 66.7156 28.2969C66.125 26.7031 65.3094 25.3625 63.9688 24.0312C62.6375 22.7 61.2969 21.875 59.7219 21.2656C58.1938 20.675 56.45 20.2625 53.9 20.15C51.3313 20.0281 50.5156 20 44 20Z" fill="black"></path>
<path d="M44 31.6719C37.1938 31.6719 31.6719 37.1938 31.6719 44C31.6719 50.8062 37.1938 56.3281 44 56.3281C50.8062 56.3281 56.3281 50.8062 56.3281 44C56.3281 37.1938 50.8062 31.6719 44 31.6719ZM44 51.9969C39.5844 51.9969 36.0031 48.4156 36.0031 44C36.0031 39.5844 39.5844 36.0031 44 36.0031C48.4156 36.0031 51.9969 39.5844 51.9969 44C51.9969 48.4156 48.4156 51.9969 44 51.9969Z" fill="black"></path>
<path d="M59.6937 31.1843C59.6937 32.778 58.4 34.0624 56.8156 34.0624C55.2219 34.0624 53.9375 32.7687 53.9375 31.1843C53.9375 29.5905 55.2313 28.3062 56.8156 28.3062C58.4 28.3062 59.6937 29.5999 59.6937 31.1843Z" fill="black"></path>
</g>
<defs>
<clipPath id="clip0_74_5150">
<rect width="48" height="48" fill="white" transform="translate(20 20)"></rect>
</clipPath>
</defs>
</svg>