<svg width="96" height="96" viewBox="0 0 96 96" fill="none" xmlns="http://www.w3.org/2000/svg">
<rect x="18" y="18" width="68" height="68" fill="black" stroke="black" stroke-width="4" stroke-linejoin="round"></rect>
<rect x="10" y="10" width="68" height="68" fill="#A9A9A9" stroke="black" stroke-width="4" stroke-linejoin="round"></rect>
<path d="M64.4469 20H23.5437C21.5844 20 20 21.5469 20 23.4594V64.5312C20 66.4437 21.5844 68 23.5437 68H64.4469C66.4063 68 68 66.4438 68 64.5406V23.4594C68 21.5469 66.4063 20 64.4469 20ZM34.2406 60.9031H27.1156V37.9906H34.2406V60.9031ZM30.6781 34.8688C28.3906 34.8688 26.5438 33.0219 26.5438 30.7437C26.5438 28.4656 28.3906 26.6187 30.6781 26.6187C32.9563 26.6187 34.8031 28.4656 34.8031 30.7437C34.8031 33.0125 32.9563 34.8688 30.6781 34.8688ZM60.9031 60.9031H53.7875V49.7656C53.7875 47.1125 53.7406 43.6906 50.0844 43.6906C46.3812 43.6906 45.8187 46.5875 45.8187 49.5781V60.9031H38.7125V37.9906H45.5375V41.1219H45.6312C46.5781 39.3219 48.9031 37.4188 52.3625 37.4188C59.5719 37.4188 60.9031 42.1625 60.9031 48.3313V60.9031V60.9031Z" fill="black"></path>
</svg>