<svg width="96" height="96" viewBox="0 0 96 96" fill="none" xmlns="http://www.w3.org/2000/svg">
<rect x="18" y="18" width="68" height="68" fill="black" stroke="black" stroke-width="4" stroke-linejoin="round"></rect>
<rect x="10" y="10" width="68" height="68" fill="#FF5555" stroke="black" stroke-width="4" stroke-linejoin="round"></rect>
<path d="M44 20C57.2547 20 68 30.7453 68 44C68 57.2547 57.2547 68 44 68C39.82 68 35.8904 66.9314 32.4678 65.0527L20 68L23.1963 55.9736C21.1637 52.4497 20 48.3606 20 44C20 30.7453 30.7453 20 44 20ZM44 24.2979C33.1194 24.2979 24.299 33.1185 24.2988 43.999C24.2988 48.1943 25.6104 52.083 27.8457 55.2783L25.7793 62.3193L33.1455 60.4434C36.2581 62.5026 39.9887 63.7012 44 63.7012V63.7002C54.8807 63.7002 63.7012 54.8797 63.7012 43.999C63.701 33.1185 54.8806 24.2979 44 24.2979ZM37.4043 32.1562C37.6982 32.1324 37.9685 32.3028 38.0938 32.5693L40.8311 38.376C40.9604 38.6506 40.9041 38.9777 40.6895 39.1924L38.6484 41.2324C38.2072 41.6737 38.0781 42.361 38.3818 42.9062C39.1265 44.2415 40.1281 45.5276 41.2881 46.7109C42.4714 47.8709 43.7574 48.8732 45.0928 49.6172C45.6381 49.9212 46.3246 49.7919 46.7666 49.3506L48.8076 47.3096C49.0222 47.0953 49.3486 47.0382 49.623 47.168L55.4297 49.9053C55.6964 50.0306 55.8678 50.3014 55.8438 50.5947C55.7811 51.3587 55.4741 52.8901 54.1016 54.2627C50.227 58.1372 43.2692 53.7536 42.9854 53.584C41.2741 52.6647 39.6483 51.4347 38.1064 49.8936C36.5651 48.3522 35.3344 46.725 34.415 45.0137C34.2445 44.7301 29.8613 37.7735 33.7363 33.8984C35.109 32.5258 36.6403 32.2189 37.4043 32.1562Z" fill="black"></path>
</svg>