<svg width="96" height="96" viewBox="0 0 96 96" fill="none" xmlns="http://www.w3.org/2000/svg">
<rect x="18" y="18" width="68" height="68" fill="black" stroke="black" stroke-width="4" stroke-linejoin="round"></rect>
<rect x="10" y="10" width="68" height="68" fill="white" stroke="black" stroke-width="4" stroke-linejoin="round"></rect>
<path d="M67.5219 34.2844C67.5219 34.2844 67.0531 30.975 65.6094 29.5219C63.7812 27.6094 61.7375 27.6 60.8 27.4875C54.0875 27 44.0094 27 44.0094 27H43.9906C43.9906 27 33.9125 27 27.2 27.4875C26.2625 27.6 24.2188 27.6094 22.3906 29.5219C20.9469 30.975 20.4875 34.2844 20.4875 34.2844C20.4875 34.2844 20 38.175 20 42.0563V45.6937C20 49.575 20.4781 53.4656 20.4781 53.4656C20.4781 53.4656 20.9469 56.775 22.3812 58.2281C24.2094 60.1406 26.6094 60.075 27.6781 60.2812C31.5219 60.6469 44 60.7594 44 60.7594C44 60.7594 54.0875 60.7406 60.8 60.2625C61.7375 60.15 63.7812 60.1406 65.6094 58.2281C67.0531 56.775 67.5219 53.4656 67.5219 53.4656C67.5219 53.4656 68 49.5844 68 45.6937V42.0563C68 38.175 67.5219 34.2844 67.5219 34.2844ZM39.0406 50.1094V36.6187L52.0062 43.3875L39.0406 50.1094Z" fill="black"></path>
</svg>