<svg width="234" height="224" viewBox="0 0 234 224" fill="none" xmlns="http://www.w3.org/2000/svg">
<g clip-path="url(#clip0_61_246)">
<path d="M91.3955 11.7193C105.102 11.4492 119.063 11.7335 132.765 11.9266C141.32 12.0472 149.886 12.731 158.479 12.4233C162.807 12.2683 167.951 12.0806 171.386 14.9543C174.256 17.3556 176.172 20.0709 176.426 23.8857C177.936 36.163 176.821 48.5596 177.402 60.847C177.852 70.3626 178.389 79.7775 177.945 89.3225C177.75 93.514 175.213 96.6417 170.925 96.9769C174.885 102.462 176.704 109.367 176.374 116.078C175.968 124.324 171.404 132.384 163.707 135.771C161.207 136.871 158.128 137.362 155.831 138.799C154.61 139.562 153.711 140.974 152.626 141.928C149.203 144.936 134.315 144.377 129.586 144.109C130.247 146.812 132.339 152.287 133.376 155.123C135.306 160.403 138.048 169.909 140.653 174.69C144.959 175.983 146.175 176.603 148.41 180.647C148.908 181.65 152.109 180.377 153.07 180.108C170.167 175.318 184.233 184.439 185.102 202.489C185.225 205.055 185.844 206.342 185.54 209.564C176.635 219.971 139.546 214.765 127.755 209.008C125.724 208.016 120.556 205.398 119.736 203.276C117.933 198.612 120.783 191.327 122.126 186.886C119.785 181.94 120.207 179.552 124.704 176.272C123.578 174.054 122.688 171.513 121.804 169.175C120.192 164.998 118.62 160.375 117.104 156.151C116.069 153.268 113.89 147.644 113.53 144.875C110.446 144.839 106.667 145.158 103.644 144.829C103.535 147.839 105.644 154.902 106.265 158.272C107.232 163.521 108.28 169.062 109.556 174.233C109.802 175.232 115.093 176.839 115.435 178.718C116.669 181.471 116.068 184.54 115.264 187.218C117.21 190.942 118.514 198.06 118.33 202.307C115.696 206.371 109.152 208.942 104.634 210.535C91.7137 215.025 77.3688 216.641 63.8164 214.645C61.6243 214.321 53.1628 212.754 52.7299 210.097C52.1126 206.307 53.1142 200.296 53.9532 196.486C55.6208 188.916 60.4217 182.276 68.1732 180.186C74.337 178.582 83.1934 178.871 88.7862 181.962C89.1898 180.895 89.861 179.009 90.4238 178.099L90.4953 177.985C91.1814 176.864 92.2485 176.608 93.3753 175.665C93.8719 174.763 92.0991 168.084 91.7495 166.537C90.8685 162.65 90.0581 158.746 89.3195 154.829C88.6655 151.409 88.1528 149.355 88.1529 145.819C80.006 145.129 71.2712 146.32 63.0295 145.1C59.5788 144.589 55.4238 145.372 52.2488 143.221C48.9739 141.003 48.7177 136.871 48.7119 133.322C48.1922 125.645 54.7256 121.042 57.663 114.614C58.3815 113.042 57.9083 109.831 58.1712 108C59.1017 101.523 62.8346 96.2481 66.4722 91.0043C66.5461 88.2339 65.7008 86.1222 65.7688 83.3379C65.9066 77.6962 65.4801 71.2198 65.8151 65.6543C66.1703 59.7557 66.4738 55.0391 66.5637 49.0533C66.835 38.9644 65.9804 28.8228 67.4424 18.8001C67.748 16.7049 69.62 13.4181 71.8192 12.991C78.1288 11.7652 84.9732 11.7949 91.3955 11.7193ZM111.381 118.695C112.234 117.999 112.993 117.376 113.802 116.623C113.024 115.954 110.911 114.373 110.921 113.448C110.923 113.291 111.139 113.105 111.271 112.95C113.003 112.193 116.121 115.276 117.853 116.077C123.613 115.235 128.307 114.802 132.348 110.199C134.175 108.319 135.316 105.592 135.592 103.003L135.438 102.707C134.329 102.772 133.353 103.794 132.425 103.668C131.696 102.485 133.944 99.949 134.294 98.7935C134.643 97.6413 135.014 95.5769 133.838 94.8727C132.314 95.0547 129.61 96.3059 128.365 95.8815L128.271 95.6362C129.239 93.6233 138.245 88.3401 139.716 85.6885C140.353 84.5404 140.219 81.8391 138.793 81.293C137.779 80.9051 135.625 81.8164 134.62 82.2758C128.288 85.5122 123.658 89.3605 116.416 90.3697C113.506 88.8129 115.012 89.1373 114.974 87.2217C114.895 83.1364 111.043 77.7819 106.5 78.4826C102.194 81.5876 108.078 84.3358 108.298 88.5726C108.517 92.8089 106.088 95.07 105.976 99.1115C105.965 100.975 107.595 104.978 106.906 106.203C104.201 107.106 104.575 102.633 103.516 101.803C102.096 101.642 101.211 103.392 101.321 104.532C101.908 110.599 105.533 116.624 111.381 118.695ZM103.124 130.179L105.978 130.224C106.208 127.412 106.467 126.82 108.283 124.417C108.368 124.305 108.571 124.234 108.702 124.183C109.455 124.894 109.056 128.56 109.089 129.775C110.649 131.363 110.744 131.545 112.89 132.112C112.925 126.808 115.116 121.466 119.999 118.929C119.498 118.636 118.44 117.906 117.9 118.067C117.293 118.209 116.427 118.403 115.891 118.699C113.534 120 111.002 123.619 108.86 120.043C105.521 120.175 103.635 121.809 100.725 123.289C98.6319 124.354 96.0743 125.379 94.1763 126.702C97.0965 128.691 99.5289 129.819 103.124 130.179ZM135.869 122.399C136.985 122.375 138.309 122.323 139.414 122.364C144.654 122.555 145.279 123.356 147.583 118.17C148.149 117.218 148.618 116.065 149.265 114.966L145.87 115.041C143.836 115.113 140.978 115.186 138.941 115.028C138.224 117.587 136.588 119.895 135.869 122.399ZM171.282 21.0287C170.719 27.2397 171.122 38.6952 171.628 44.8068C171.785 55.4949 172.067 66.5862 172.103 77.2384C172.086 79.0397 171.928 90.2385 172.52 91.356C172.972 91.4883 173.034 91.4827 173.503 91.4188C174.002 91.4434 174.127 91.481 174.587 91.3199C174.833 90.6923 174.597 85.6777 174.613 84.411C174.79 70.6412 174.691 56.8385 173.929 43.0807C174.135 37.2642 173.876 28.0535 173.165 22.2586C172.373 21.8249 171.953 21.6222 171.282 21.0287ZM126.588 119.879C128.273 120.394 129.576 120.768 131.294 121.136C131.907 121.363 132.421 121.644 133.03 121.511C134.262 119.063 134.65 117.17 136.26 114.701L131.761 114.774C128.991 115.722 127.859 117.452 126.588 119.879ZM103.985 187.367C104.119 186.758 104.354 186.118 104.069 185.589C100.563 184.433 97.3577 183.12 94.0498 181.491C93.8423 181.389 93.24 181.373 92.991 181.373C93.2309 183.589 101.824 187.189 103.985 187.367ZM137.357 110.759C138.329 108.76 139.289 106.74 140.34 104.78C140.788 103.943 141.241 103.671 141.621 102.938L141.519 102.743C140.785 102.649 139.523 102.526 138.849 102.335C138.461 104.467 136.573 108.938 135.895 111.443L136.046 111.613C136.644 111.501 137.136 111.383 137.357 110.759ZM71.9777 186.747C73.1341 186.626 75.9996 185.672 75.962 184.29C75.0813 183.305 71.4607 183.727 70.1237 183.768C68.67 183.892 66.5059 183.885 66.5728 185.847C67.7221 187.887 70.1926 187.211 71.9777 186.747ZM79.5202 113.165C80.7949 113.205 84.5595 113.519 84.8123 111.68C84.1147 110.759 82.0209 110.807 80.9735 110.888C79.658 111.237 76.9092 111.735 76.1972 112.802C76.554 113.79 78.6368 113.287 79.5202 113.165ZM97.8076 106.116C98.094 104.527 98.1035 103.36 96.0003 103.103C95.0545 102.988 92.9577 103.037 92.02 103.164C92.4165 103.786 97.2414 106.179 97.8076 106.116ZM164.753 183.148C163.999 183.284 163.335 183.319 162.785 183.84C162.086 185.499 165.638 186.738 166.838 187.303L169.607 186.814C170.331 186.631 170.933 186.557 171.449 186.024C172.117 183.641 166.419 182.981 164.753 183.148ZM87.5036 103.69L87.5044 103.23C86.8727 102.907 85.1311 103.115 84.3172 103.171C84.8509 104.325 86.3673 103.836 87.5036 103.69ZM144.119 181.835C141.993 182.242 135.526 184.658 133.567 185.658C133.228 186.134 132.691 186.73 132.712 187.257C132.822 187.32 133.018 187.444 133.129 187.478C135.174 186.753 143.952 184.15 144.433 182.219C144.282 181.967 144.335 181.964 144.119 181.835ZM78.2933 103.179C77.8081 103.216 76.7842 103.183 76.5716 103.527C75.5715 105.144 74.4564 107.078 73.5087 108.71L73.597 109.035C74.2343 109.387 75.316 109.2 75.9905 109L77.91 108.333C79.4871 106.287 80.0593 105.31 81.3337 103.115L78.2933 103.179ZM83.2391 106.251C82.8358 106.824 82.7688 106.909 82.6266 107.613C83.4315 109.86 91.6897 109.639 93.4323 108.872C94.0238 108.671 94.6255 108.551 94.957 108.033C95.1026 105.425 85.1716 106.214 83.2391 106.251Z" fill="black"/>
<path d="M139.556 21.4189L140.53 21.3939C144.306 21.3104 148.082 21.2699 151.859 21.2726C154.641 21.2633 161.277 20.732 162.103 23.8622C162.905 26.9023 162.507 32.8206 162.478 36.0464C162.463 41.8789 162.486 47.7116 162.548 53.5439L162.561 71.6069C162.553 82.594 164.264 84.9099 151.274 84.5358C148.824 84.4652 145.933 84.5069 143.438 84.4889C142.593 81.5755 141.335 79.2032 138.399 78.1432C130.189 79.9785 127.146 85.4645 117.564 85.2783C115.622 80.9386 113.681 76.4634 108.251 75.8978C104.758 75.8874 103.229 76.931 101.891 80.1098C102.689 82.1218 103.052 82.8197 104.504 84.4176C98.9425 84.9603 89.5768 85.8658 84.3027 83.9856C80.3346 82.5711 81.1504 73.1381 81.1556 69.5076L81.1899 54.2731L81.2134 35.3556C81.2467 32.3986 81.2783 29.2018 81.5099 26.2495C81.617 24.8814 82.8982 23.0249 83.6382 21.6902C85.3051 21.8317 87.8989 21.7545 89.6237 21.7534L100.374 21.74L139.556 21.4189Z" fill="#E8635F"/>
<path d="M134.106 37.4218C139.308 38.2695 140.723 41.1718 141.817 45.857C143.384 52.5573 138.666 63.1647 130.593 57.5445C130.273 57.2613 129.992 56.9371 129.758 56.5801C128.391 54.5421 126.157 46.5125 128.572 45.0509C129.889 44.9178 133.443 48.0873 134.707 49.0672C134.629 44.9883 133.097 42.3226 131.465 38.6169C132.365 38.0959 133.148 37.8043 134.106 37.4218Z" fill="black"/>
<path d="M102.121 38.0129C110.781 37.4791 112.398 49.8739 109.153 55.5996C107.799 57.9892 106.278 58.9498 103.752 59.615C101.66 59.0964 100.983 58.7746 99.3747 57.3868C99.0777 57.0709 98.7921 56.7444 98.5183 56.4081C95.9198 53.1581 96.4005 49.0688 96.8361 45.2726C98.3656 45.9392 101.98 48.5746 103.46 49.6117C102.635 45.9597 101.646 42.0916 99.6828 38.8758C100.511 38.5551 101.282 38.2916 102.121 38.0129Z" fill="black"/>
<path d="M147.132 58.9021C150.46 58.6987 155.854 63.3616 153.453 65.1912C152.298 65.4022 151.547 64.7196 150.605 64.0698C149.552 67.2814 147.522 69.0788 145.104 71.3762C141.862 74.456 136.367 77.0477 131.927 77.5436C129.778 77.7836 126.604 77.5895 124.368 77.4899C122.755 77.2312 119.433 76.9785 119.118 75.0863C119.961 72.8824 123.927 74.2539 125.747 74.5819C133.553 75.9885 141.2 72.1488 145.921 66.0366C146.674 65.0616 147.688 64.0524 148.55 63.1798C147.408 61.9242 146.502 60.5899 147.132 58.9021Z" fill="black"/>
<path d="M132.32 27.1645C134.513 26.9548 137.356 27.3999 138.527 29.5188C138.509 30.1739 138.61 29.942 138.164 30.3927C137.451 30.6979 136.405 30.4057 135.603 30.2664C133.81 30.203 129.931 30.6919 128.699 29.8116C128.347 29.1735 128.399 29.4519 128.469 28.7613C129.186 27.7813 131.113 27.4778 132.32 27.1645Z" fill="black"/>
<path d="M100.875 27.7946C102.083 27.732 103.924 27.8808 105.179 27.9486C106.055 28.5016 107.743 29.3932 107.377 30.5789C106.348 31.3204 104.864 30.9201 103.606 30.7467C101.408 30.5045 99.2043 30.307 96.9976 30.1545C96.9347 29.6798 97.3517 28.4505 97.503 27.9207L100.875 27.7946Z" fill="black"/>
<path d="M75.7448 14.9773C81.0626 14.7957 86.7138 14.9893 92.0673 14.9091C106.193 14.6974 120.166 15.1294 134.266 15.387C140.454 15.4894 146.644 15.5195 152.833 15.4773C154.497 15.476 164.313 15.2003 165.385 16.053C168.332 18.3962 168.064 23.9709 168.08 27.46C168.081 30.7076 168.136 33.9552 168.246 37.201C168.567 48.1865 168.744 59.1757 168.776 70.1659C168.836 76.0705 169.106 82.0512 168.811 87.9357C168.661 90.9448 168.097 92.8957 164.807 92.955C161.604 93.0127 158.428 93.0079 155.227 93.0073L136.565 93.0015C138.252 91.2515 140.335 89.1173 142.217 87.6071C150.095 87.1277 165.495 90.5545 165.731 79.3766C165.983 67.3916 165.715 55.4563 165.65 43.482L165.659 31.9028C165.67 28.0606 166.366 23.3911 163.434 20.5307C161.272 18.4214 159.809 17.8554 156.893 17.7482C143.813 17.5925 130.59 18.0741 117.499 18.1684C105.623 18.254 93.7299 18.3409 81.8584 18.5158C80.0302 18.5427 76.2183 18.7911 75.0915 20.2631C74.4225 21.1374 74.1021 21.5648 73.9215 22.6831C73.0833 27.8733 73.5669 33.1355 73.3366 38.3718C73.1317 43.0219 72.8614 47.6574 72.7399 52.3057C72.6401 57.9315 72.614 63.5583 72.662 69.1848C72.6673 72.9079 72.6481 76.6254 72.7411 80.3476C72.7934 82.4355 73.5388 84.5366 75.1652 85.935C78.8871 89.1361 83.9909 88.1258 88.4734 88.1818C93.9568 88.2118 99.4252 88.0322 104.89 87.7648C105.173 88.7521 105.435 89.8186 105.7 90.8175L105.025 92.7742C104.76 92.834 104.494 92.8869 104.226 92.9327C99.145 93.8056 91.6143 93.2259 86.2648 93.3909C82.587 93.3884 78.9242 93.6583 75.2493 93.4578C68.0875 93.0586 68.4741 86.4115 68.5182 81.1095C68.6707 61.246 69.3526 41.3917 69.8324 21.5379C69.9291 17.5358 71.656 15.5301 75.7448 14.9773Z" fill="#9C9B9C"/>
<path d="M59.2737 117.242C60.0083 118.606 62.0033 121.466 62.4172 122.73C60.55 124.268 60.944 124.551 61.0628 127.005C64.5384 127.995 65.741 127.459 69.1318 127.744C70.5678 127.864 73.3304 128.745 75.036 129.017C80.4723 129.886 85.0184 128.76 90.3097 127.671C92.5134 128.763 94.3667 130.525 96.8402 131.475C100.327 132.813 103.617 132.906 107.262 133.462C109.234 133.762 111.395 134.438 113.322 134.982C113.681 134.555 114.047 134.133 114.42 133.718C115.179 133.502 115.068 133.63 115.971 133.978C119.384 135.024 123.321 135.729 126.54 137.088C123.275 136.717 120.568 136.784 117.288 136.821C110.803 137.983 59.3463 139.123 54.9671 137.594C53.7496 137.168 52.5792 136.101 52.0638 134.919C49.6122 129.294 57.3152 122.102 59.239 117.329L59.2737 117.242Z" fill="#9C9B9C"/>
<path d="M117.288 136.821C116.572 136.73 115.609 136.714 114.87 136.68C115.679 136.518 120.799 136.407 121.885 136.373C121.526 135.385 117.024 134.943 115.605 134.121L115.972 133.978C119.385 135.024 123.322 135.729 126.54 137.088C123.275 136.717 120.568 136.784 117.288 136.821Z" fill="#FDFDFD"/>
<path d="M116.736 147.986C121.242 148.412 122.978 148.289 127.557 147.975C130.035 152.198 131.576 159.914 133.522 164.648C134.172 166.23 137.592 175.338 137.666 176.477L137.265 176.739C135.771 177.303 132.448 178.423 130.941 178.039C127.453 177.15 125.835 171.928 124.755 169.018C123.644 166.055 122.581 163.074 121.567 160.076C120.32 156.378 118.802 151.129 116.736 147.986Z" fill="#E8635F"/>
<path d="M91.2617 148.807C94.2427 149.516 99.0207 149.202 102.049 148.751C101.838 156.741 105.732 166.989 106.433 175.102C106.485 175.706 106.294 175.87 106.012 176.346C104.223 178.267 100.09 177.571 97.594 177.46C95.1143 173.371 92.7197 154.788 91.2617 148.807Z" fill="#E8635F"/>
<path d="M137.848 96.854C146.864 96.9017 156.392 96.7375 165.329 96.9439L166.395 98.6972C166.028 99.6864 164.978 101.885 164.397 102.777C160.926 108.106 157.883 117.905 153.571 122.215C151.454 123.3 150.163 122.867 147.894 122.399C150.84 118.234 153.014 113.155 155.464 108.657C156.389 106.96 159.802 100.799 159.265 99.3225C157.45 99.0386 153.101 99.156 151.095 99.1626C146.522 99.1919 141.949 99.1814 137.376 99.131C137.582 98.3978 137.71 97.6066 137.848 96.854Z" fill="#9C9B9C"/>
<path d="M77.6227 23.9682C77.9644 23.9787 78.2161 24.0039 78.5279 24.1529C78.6854 24.228 78.7627 24.4949 78.8121 24.6543C79.2351 26.0197 78.2899 43.1915 78.2205 46.4347C78.083 53.8282 78.0308 61.2231 78.064 68.6178C78.0611 70.2298 78.2498 81.4227 77.8791 82.0435C77.7911 82.1908 77.3267 82.2452 77.1488 82.2904C75.591 81.3603 75.7123 80.6778 75.6953 78.9565C75.6131 71.0218 75.6346 63.0862 75.7602 55.1519C75.9053 49.4953 76.2698 43.7835 76.4683 38.1141C76.6116 34.016 76.296 29.7784 76.6496 25.7069C76.7219 24.8758 77.0509 24.5509 77.6227 23.9682Z" fill="#FDFDFD"/>
<path d="M113.086 200.199C113.543 200.124 113.558 200.135 114 200.302L114.099 200.656C113.111 202.724 99.0014 207.349 95.9729 208.078C89.2178 209.706 80.9742 210.391 74.0178 210.607C70.1133 210.727 59.9698 209.066 56.4952 207.566C55.6587 207.033 55.1228 206.345 54.4717 205.605C57.2818 206.156 60.0041 206.799 62.8624 207.382C74.8694 209.831 88.0672 208.514 99.7313 204.941C104.278 203.547 108.559 201.581 113.086 200.199Z" fill="#E8635F"/>
<path d="M123.629 200.786C125.907 200.459 132.964 203.749 135.809 204.667C138.252 205.433 140.73 206.086 143.233 206.623C156.425 209.479 168.307 209.264 181.355 205.816C181.911 205.669 182.786 205.417 183.305 205.654C183.157 206.272 183.032 206.212 182.463 206.727C178.138 208.919 165.906 211.01 160.821 210.792C149.29 210.304 136.531 207.57 126.012 202.718C125.323 202.402 123.855 201.509 123.629 200.786Z" fill="#E8635F"/>
<path d="M171.629 44.8068C171.751 44.466 171.82 44.3888 172.02 44.1011C172.969 44.2106 172.739 44.9043 173.676 44.9512C173.773 43.9928 173.501 43.6649 173.93 43.0807C174.691 56.8385 174.791 70.6412 174.614 84.411C174.598 85.6777 174.834 90.6923 174.587 91.3199C174.127 91.481 174.003 91.4434 173.503 91.4188C173.11 90.6334 172.896 90.5551 173.009 89.8488C174.424 88.2605 173.738 81.0481 173.6 78.6932L173.565 78.7866C173.372 78.4863 173.33 78.4554 173.088 78.2107C172.663 80.6613 172.989 84.6526 172.903 87.4635C171.703 86.5417 172.874 78.5082 172.337 76.1335C172.318 76.4466 172.182 76.921 172.104 77.2384C172.067 66.5862 171.786 55.4949 171.629 44.8068Z" fill="#342E30" fill-opacity="0.0156863"/>
<path d="M144.971 102.263L155.682 102.314C153.998 105.425 152.448 108.464 150.676 111.549C149.915 111.968 142.405 111.717 140.467 111.992C141.801 109.691 144.04 104.748 144.971 102.263Z" fill="#FDFDFD"/>
<path d="M103.307 96.942L103.506 97.0932C103.456 97.6735 102.928 98.5943 102.645 99.1601C98.2023 99.5647 92.9182 99.337 88.413 99.4523C86.5361 99.5002 75.1555 100.228 74.3961 99.7701L73.1211 97.2982C78.1361 97.1811 83.1528 97.172 88.168 97.2708C92.7255 97.377 99.0098 97.9215 103.307 96.942Z" fill="url(#paint0_linear_61_246)"/>
<path d="M172.902 87.4635C172.989 84.6526 172.663 80.6613 173.087 78.2107C173.33 78.4554 173.372 78.4862 173.565 78.7866L173.6 78.6932C173.738 81.0481 174.424 88.2605 173.008 89.8488C172.908 89.1472 172.917 88.1905 172.902 87.4635Z" fill="#342E30" fill-opacity="0.270588"/>
<path d="M145.87 115.041L149.266 114.966C148.618 116.065 148.149 117.218 147.584 118.17C147.353 117.76 147.357 117.858 146.884 117.581C146.567 116.628 146.761 116.488 147.034 115.518C146.652 115.021 146.686 115.171 145.87 115.041Z" fill="#342E30" fill-opacity="0.0431373"/>
<path d="M84.3174 103.171C85.1312 103.115 86.8728 102.907 87.5045 103.23L87.5038 103.689C86.3675 103.836 84.851 104.325 84.3174 103.171Z" fill="black" fill-opacity="0.0196078"/>
</g>
<defs>
<linearGradient id="paint0_linear_61_246" x1="85.9763" y1="92.3585" x2="90.9589" y2="103.63" gradientUnits="userSpaceOnUse">
<stop stop-color="#B2AEB0"/>
<stop offset="1" stop-color="#DADCDE"/>
</linearGradient>
<clipPath id="clip0_61_246">
<rect width="233.6" height="224" fill="white"/>
</clipPath>
</defs>
</svg>
