<svg width="234" height="224" viewBox="0 0 234 224" fill="none" xmlns="http://www.w3.org/2000/svg">
<g clip-path="url(#clip0_61_629)">
<path d="M187.162 11.732C196.681 10.2043 196.767 20.7553 197.006 27.2842C203.38 26.0841 201.685 27.8813 206.506 29.6378C207.849 30.1273 209.353 29.9916 210.685 30.5256C212.343 31.1898 213.652 32.7379 214.305 34.3702C215.446 37.2228 213.928 51.3012 212.517 54.1541C211.591 56.0283 209.496 57.004 208.726 58.9208C208.102 60.478 208.463 62.6672 207.904 63.8021C207.186 65.2655 205.061 66.1367 203.607 66.5863C201.933 87.7348 190.546 103.511 168.101 104.233C165.87 106.808 165.388 109.468 164.052 112.011C161.658 116.57 155.303 130.565 152.028 133.62C150.705 134.853 149.083 135.719 147.322 136.129C145.045 136.676 136.163 136.472 133.418 136.395C133.66 138.357 134.355 140.907 134.816 142.916C135.614 146.424 136.392 149.937 137.151 153.455L140.252 168.076C140.777 170.536 141.566 174.763 142.435 176.979C146.001 177.997 146.781 178.848 149.05 181.713C152.178 179.841 156.466 178.482 160.072 177.98C166.268 177.118 172.678 177.713 177.776 181.612C182.652 185.34 184.454 190.687 186.037 196.373C186.512 198.078 187.121 199.83 187.337 201.587C187.539 203.221 187.493 205.267 186.399 206.609C185.811 207.331 185.019 207.821 184.172 208.185C180.494 209.768 170.147 211.84 165.985 212.296C164.461 212.463 162.923 212.475 161.396 212.604C159.145 212.795 156.881 213.109 154.619 213.075C147.828 212.974 128.945 210.763 123.874 206.595C123.057 205.924 122.164 204.998 121.802 203.98C120.738 200.983 123.194 194.176 123.422 190.883C123.548 189.063 122.843 187.541 122.698 185.787C122.456 182.87 124.748 180.745 126.453 178.72C126.472 178.073 126.509 177.047 126.391 176.424C124.322 165.514 121.251 154.8 119.24 143.874C118.781 141.377 118.549 138.897 117.773 136.474C114.664 136.956 106.608 137.378 103.543 137.118C103.456 142.079 105.806 151.345 106.84 156.467C107.795 161.198 108.706 165.963 109.483 170.747C109.858 173.06 110.526 175.441 110.852 177.717C112.229 179.134 114.362 180.462 115.41 182.172C117.092 184.917 115.341 187.911 115.699 190.551C116.273 194.783 118.102 200.968 116.987 205.281C112.41 210.915 91.9611 212.572 84.5992 213.103C78.6693 213.532 56.8779 210.35 52.7201 206.475C51.2769 201.867 52.7334 201.178 53.449 197.201C56.4149 180.715 67.9381 174.639 83.6477 179.403C84.7148 179.726 89.0449 181.729 89.8415 181.745C91.032 179.12 92.7696 178.07 95.1444 176.686C94.8833 174.41 94.256 172 93.8923 169.711C92.5677 161.377 90.5286 153.273 89.1341 144.945C88.7875 143.717 88.5958 138.297 87.9027 137.587C87.1083 136.773 77.7954 137.552 76.2642 137.522C73.4299 137.514 70.685 137.455 67.8373 137.3C64.1316 137.043 58.9751 137.659 55.9629 135.017C52.9066 132.344 52.7095 126.5 53.8992 122.864C55.1543 119.029 58.2419 115.067 60.2852 111.582C60.8437 110.629 61.8092 109.339 62.5715 108.545C55.5702 107.996 47.8831 105.36 42.7577 100.396C38.1657 95.9495 33.1535 86.3789 33.1404 79.9621C30.4219 79.0248 29.5234 78.7626 27.5661 76.5759C27.231 74.9343 26.9439 73.2832 26.7051 71.6247C25.513 70.8495 24.4444 69.9801 23.5718 68.8821C20.4696 65.2838 20.8618 61.6362 19.9997 57.447C18.9041 52.1232 17.0362 45.2684 24.2869 43.2306C25.1667 42.9872 27.0345 42.784 27.7479 42.3125C32.0208 39.4881 31.6422 39.076 36.9549 39.6832C36.9312 38.5983 36.9215 37.5133 36.9258 36.4283C36.9437 33.2019 37.2647 27.6067 39.6976 25.2368C42.4793 22.1754 49.2185 23.7029 49.6837 27.9946C50.3518 34.1587 49.949 41.7216 49.6662 47.9071C56.5525 51.6508 56.4334 58.495 53.6043 64.99C52.9396 66.5156 51.5203 67.924 51.0414 69.5861C50.5927 71.1424 51.7181 72.9213 51.041 74.5127C48.9513 78.9052 46.6316 76.8142 48.3904 82.2925C51.5895 92.2575 61.4371 96.0849 70.9993 92.9514C71.6255 92.7462 72.2544 92.3691 72.5285 91.7596C70.76 89.4182 69.0404 87.5847 69.0603 84.5018C69.1245 73.8299 69.0422 63.1486 69.1489 52.4776C69.2613 49.0892 69.7386 45.6622 69.7712 42.2753C69.7951 36.9799 69.817 31.6946 69.8299 26.3979C69.8364 23.8064 70.1656 20.8532 71.142 18.4452C71.7018 17.0648 73.5729 15.142 75.0225 14.7393C77.1035 14.1612 79.6364 13.8516 81.8134 13.7485C86.494 13.6781 91.2397 13.724 95.9211 13.7353L125.155 13.8664L148.515 13.8335C154.077 13.8367 162.647 13.2402 167.625 15.488C172.688 17.774 174.124 23.4918 174.021 28.5026C173.981 30.455 174.581 33.117 174.531 35.1495C174.847 46.4778 174.075 57.8462 175.223 69.1361C175.317 71.3023 175.392 73.5276 175.345 75.6965C175.24 80.6285 176.051 84.7738 173.754 89.3487C175.34 88.2939 177.033 87.5908 178.611 86.7201C184.85 83.2788 187.584 76.9456 188.536 70.1703C188.839 68.0165 189.485 66.1064 186.875 64.9318C183.737 63.5191 184.528 60.401 185.335 57.806C180.925 54.5862 179.349 50.1595 179.539 44.8136C179.687 40.6355 181.17 38.0511 184.767 35.9398C184.639 34.2253 184.713 32.5645 184.541 30.7257C184.108 26.1017 182.613 20.4491 183.388 15.9042C183.733 13.8784 185.528 12.6478 187.162 11.732ZM35.1067 65.8711C35.6048 63.9698 36.7786 61.7486 36.5218 60.0801C36.0894 59.4854 35.9322 59.5201 35.1124 59.2893C32.1647 59.9778 30.9297 61.316 27.9021 61.7992C25.6751 62.1546 24.3635 61.0012 23.2957 61.1915C22.786 62.0607 25.7564 67.3091 26.5665 68.2503C27.0357 68.7956 28.5419 69.7557 29.1942 70.17C30.3393 71.2279 34.885 71.6184 35.391 72.1998L35.3971 72.7327C31.9876 75.3789 31.5914 72.4857 29.7723 73.4384C29.7486 74.0914 30.4998 75.1961 30.9677 75.6677C35.0028 79.7334 43.4672 78.0918 47.5337 74.8262C48.9602 73.6806 48.4855 72.4979 48.0956 71.0118C46.8717 71.6786 42.5089 73.7062 41.7278 72.0273C42.2846 70.5149 46.8173 68.8479 48.4282 67.4992C52.3653 64.2027 55.1069 53.41 49.0898 51.0075C46.8875 50.1282 41.4647 50.778 38.4889 50.4824C37.7362 50.6708 36.9491 50.8553 36.2089 51.0765C35.3102 53.1569 35.2797 53.354 35.3318 55.6258C39.6833 59.4411 41.9222 57.3835 47.0521 57.4045C46.7617 58.1041 46.4456 58.8328 46.1886 59.5418C43.9337 59.6522 40.9115 60.2508 39.2656 61.9559C37.5759 63.7065 38.7278 66.4307 37.7441 66.7838C37.556 66.8512 35.5405 66.0234 35.1067 65.8711ZM101.092 94.859C98.6547 94.8791 96.2996 95.1158 93.8722 95.2716C88.7848 95.5981 83.6097 95.4572 78.5099 95.4498C77.4703 97.2469 76.5374 99.2148 75.4743 100.931C72.5786 105.604 69.6833 110.129 67.1884 115.043C66.0616 117.263 64.9516 118.72 64.3574 121.224C69.6036 121.589 77.4885 121.343 82.9853 121.336L121.686 121.171L136.052 121.353C137.782 121.362 144.972 121.651 145.699 120.387C147.162 117.844 148.921 113.887 150.065 111.167C151.392 108.009 157.574 98.0463 157.401 95.3289C156.75 94.7401 149.586 95.2233 148.313 95.2585C136.859 95.496 125.401 95.5608 113.945 95.4531C110.018 95.3978 104.836 94.5431 101.092 94.859ZM200.301 58.6842C203.512 59.1293 206.036 57.7319 208.33 55.5881C210.852 53.2314 211.207 50.3147 211.3 47.0597C207.633 50.4725 205.21 49.1414 201.33 47.0068C199.84 47.4776 198.891 47.3844 197.338 47.3697C197.605 47.7089 197.842 48.0735 198.11 48.4079C199.135 49.6881 199.468 53.6279 197.988 54.6064L197.668 54.5408C196.837 53.8402 196.356 51.53 196.162 50.3756C195.654 47.3546 186.642 48.0638 188.378 44.8694C189.455 44.5433 192.806 45.5097 195.039 45.2839C198.374 44.9468 201.15 41.8054 198.09 38.9527C197.867 38.7444 196.706 38.2403 196.349 38.2308C192.206 38.0967 185.745 36.9718 183.079 40.966C180.005 45.5721 183.313 53.6254 187.702 56.2676C189.631 57.4283 191.955 58.3518 194.245 57.8203C196.214 57.4352 197.873 56.9974 199.698 58.2389C199.905 58.3807 200.106 58.5293 200.301 58.6842ZM169.516 88.0164C170.179 87.4569 170.893 86.812 171.629 86.3694C172.088 85.9605 172.391 85.8212 172.395 85.1451C172.473 72.0417 171.481 58.9626 171.711 45.8514C171.778 42.0553 171.357 38.3447 171.202 34.5606C171.025 30.788 171.117 27.0654 170.574 23.3199C170.162 22.8029 169.466 21.7741 168.908 21.5995C168.792 30.5182 168.788 39.4477 169.333 48.3515C169.413 49.6684 169.43 51.0404 169.459 52.3614C169.578 59.5865 169.609 66.8128 169.552 74.0388C169.541 78.216 169.743 83.9549 169.516 88.0164ZM46.9087 48.158C46.6048 43.3083 49.3799 29.7123 45.6964 26.5235C45.0725 25.9833 44.6926 25.8347 43.8639 25.8605C37.8405 27.2517 39.6215 42.8464 40.1223 47.6896C41.4268 47.9293 42.0952 47.9739 43.408 48.0363L46.9087 48.158ZM186.232 15.7847C185.476 19.4961 186.499 22.8753 186.681 26.3934C186.879 30.2122 186.913 31.8629 187.609 35.6923C189.001 35.383 189.764 35.3227 191.187 35.2152L193.998 35.2197C194.484 30.0519 195.143 18.6254 191.548 14.5726C190.535 14.1611 189.87 13.7889 188.776 14.0089C187.579 14.5281 187.094 14.797 186.232 15.7847ZM70.4106 181.718C69.5079 181.758 68.0641 182.095 67.4015 182.709C66.5354 185.017 71.4986 185.044 72.8038 184.971C73.825 184.658 76.1393 183.946 76.4194 182.82C75.5425 181.302 71.9899 181.686 70.4106 181.718ZM202.82 63.9168C203.66 63.7115 205.808 62.2517 205.239 61.1629C204.634 60.8497 203.974 61.0242 203.257 61.1048C203.491 62.3671 203.387 62.7577 202.82 63.9168ZM104.456 188.824C104.857 188.151 104.872 188.366 104.738 187.79C101.76 186.433 98.7035 185.371 95.8852 183.685C95.3623 183.373 94.8887 183.054 94.2736 183.002C94.2858 183.642 94.2396 183.973 94.5929 184.522C96.0677 185.439 101.857 189.623 103.217 189.393C103.649 189.319 104.077 189.032 104.456 188.824ZM134.818 188.935C135.184 188.883 136.389 188.695 136.676 188.558C138.32 187.779 145.113 184.96 145.52 183.321C145.208 182.991 145.253 183.102 144.622 183.079C142.724 183.829 134.58 187.158 133.852 188.392L133.913 188.747C134.227 188.934 134.414 189.066 134.818 188.935ZM192.817 60.6054C191.072 60.6327 189.211 59.2898 187.773 59.7389C186.51 62.1074 190.591 64.027 192.346 64.4529C193.177 63.213 193.174 62.0056 192.817 60.6054ZM98.0834 84.6264L141.946 84.0662C147.224 83.9472 152.524 84.115 157.779 83.8209C165.629 83.3815 163.479 73.2035 163.782 67.9109C163.879 66.2177 163.782 64.2047 163.789 62.463C163.926 52.076 163.952 41.6879 163.866 31.3002C163.835 29.4666 163.957 26.3803 163.487 24.7073C161.787 18.6496 156.209 19.3286 151.485 19.3649C148.088 19.3801 144.692 19.4185 141.296 19.4801L101.214 19.9207L89.1853 20.0155C86.5159 20.0399 84.1336 20.106 81.4704 20.2862C74.7534 20.7403 76.2353 27.9248 76.2292 32.8738L76.0827 46.3554C76.0339 52.0432 75.9397 57.7306 75.8002 63.4171C75.6676 68.0441 75.5107 72.5808 75.4992 77.2491C75.4897 81.0865 77.2133 83.7771 81.1678 84.6278C83.7834 85.1905 87.2569 84.8382 89.9781 84.7553C92.6794 84.6874 95.3814 84.6443 98.0834 84.6264ZM206.95 46.5215C207.303 46.3852 208.567 45.9254 208.832 45.7796C209.355 45.4666 210.24 44.9637 210.573 44.4392C212.192 41.8957 213.162 37.3619 211.586 34.6511C210.681 33.0981 208.574 32.4303 206.998 31.838C207.21 36.3277 207.73 38.1523 205.754 42.8113C205.374 43.7094 204.668 45.0622 205.131 45.8615C205.711 46.2702 206.262 46.3533 206.95 46.5215ZM198.562 29.4924C197.089 30.8126 194.418 35.0569 197.727 35.747C201.003 36.4298 201.601 38.6461 201.511 41.6267C201.506 42.5306 200.947 43.4691 201.656 44.0488C203.101 43.094 204.25 40.6879 204.523 39.0327C205.167 35.1333 204.478 32.0541 201.412 29.5845C200.298 29.4818 199.691 29.416 198.562 29.4924ZM170.949 184.292C171.607 184.111 171.758 184.087 172.289 183.61C172.117 181.219 165.512 181.777 163.882 181.88C163.324 182.355 163.34 182.196 163.184 182.804C163.599 183.698 164.908 184.224 165.767 184.588C167.673 185.399 169.049 184.848 170.949 184.292ZM38.1521 47.7152C37.8692 43.9266 37.8051 40.9256 33.2366 41.694C33.1952 41.6975 33.1537 41.7013 33.1122 41.7051C30.9331 42.822 31.047 43.0389 29.915 45.2325C28.8031 47.3877 29.7653 56.322 32.1758 57.0893C32.7048 56.7158 32.9225 55.8813 33.1257 55.247C32.8243 52.8419 32.4252 52.5531 33.3694 50.0505C35.2234 48.4281 35.6579 48.1864 38.1521 47.7152ZM25.0515 45.2351C24.6197 45.5892 24.1667 45.9577 23.7555 46.3299C20.3805 49.3859 21.4489 55.3301 24.461 58.2432C24.9346 58.7013 25.6408 59.1615 26.2098 59.4657C27.0412 59.5912 27.9997 59.787 28.7128 59.2638C29.5074 57.8918 28.1316 55.491 27.6711 53.777C27.0865 51.6017 27.9897 46.5017 26.4073 45.2918C25.8012 45.1984 25.6612 45.1853 25.0515 45.2351Z" fill="black"/>
<path d="M80.9165 16.5924C81.0039 16.5879 81.0913 16.5842 81.1787 16.5813C82.8185 16.5246 84.6048 16.5767 86.2471 16.641C99.3292 17.1529 112.402 16.8728 125.487 16.8657L146.508 16.8882C150.877 16.8566 155.306 16.6448 159.667 16.9337C161.392 17.0297 162.496 17.6834 163.743 18.8121C166.593 21.3926 165.964 26.2626 165.941 29.9137C165.91 33.3096 165.9 36.7059 165.911 40.1019C165.938 48.1869 166.335 55.8351 166.478 63.8312L166.652 76.5951C166.689 79.5505 166.802 82.6592 166.426 85.5885C165.885 89.807 160.953 89.1684 157.836 89.1434C138.635 89.236 119.689 89.7332 100.445 89.7319L87.18 89.7454C83.392 89.7515 76.9164 90.402 73.8605 87.9599C72.2237 86.6848 71.7147 84.2617 71.7391 82.2484C71.9103 68.0605 71.8581 53.6121 72.3729 39.456C72.4897 36.7358 72.5728 34.0143 72.6222 31.2922C72.6606 28.2922 72.6344 25.3205 72.9679 22.3336C73.5582 17.0463 76.5122 16.7497 80.9165 16.5924ZM98.0839 84.6264L141.946 84.0662C147.224 83.9472 152.524 84.1151 157.78 83.8209C165.629 83.3815 163.48 73.2035 163.783 67.911C163.88 66.2177 163.782 64.2047 163.789 62.463C163.927 52.0761 163.952 41.6879 163.866 31.3002C163.836 29.4666 163.958 26.3803 163.488 24.7073C161.787 18.6496 156.21 19.3286 151.485 19.3649C148.088 19.3801 144.692 19.4186 141.296 19.4801L101.215 19.9208L89.1858 20.0155C86.5165 20.0399 84.1341 20.106 81.4709 20.2862C74.754 20.7403 76.2358 27.9248 76.2297 32.8738L76.0832 46.3555C76.0344 52.0432 75.9402 57.7306 75.8007 63.4171C75.6681 68.0441 75.5112 72.5809 75.4997 77.2491C75.4902 81.0866 77.2138 83.7771 81.1683 84.6279C83.784 85.1906 87.2574 84.8382 89.9786 84.7553C92.6799 84.6875 95.3819 84.6444 98.0839 84.6264Z" fill="#9E9D9E"/>
<path d="M141.296 19.4802C144.692 19.4186 148.089 19.3802 151.485 19.3649C156.21 19.3287 161.787 18.6497 163.488 24.7074C163.958 26.3804 163.836 29.4666 163.866 31.3003C163.953 41.6879 163.927 52.0761 163.789 62.463C163.782 64.2048 163.88 66.2177 163.783 67.911C163.48 73.2035 165.63 83.3815 157.78 83.8209C152.524 84.1151 147.225 83.9473 141.946 84.0663L98.0842 84.6265C95.3822 84.6444 92.6802 84.6875 89.9789 84.7553C87.2577 84.8383 83.7843 85.1906 81.1686 84.6279C77.2141 83.7771 75.4905 81.0866 75.5 77.2492C75.5115 72.5809 75.6684 68.0442 75.801 63.4172C75.9405 57.7307 76.0347 52.0433 76.0835 46.3555L76.23 32.8738C76.2361 27.9248 74.7543 20.7403 81.4712 20.2862C84.1344 20.106 86.5168 20.04 89.1861 20.0156L101.215 19.9208L141.296 19.4802ZM104.045 48.1618C104.269 46.9489 104.224 45.7862 103.572 44.7284C103.313 45.4257 103.587 47.6062 104.045 48.1618ZM79.8679 79.3479L80.2992 79.6688L80.5853 79.5707C80.6849 79.1273 80.5637 75.3023 80.5639 74.5054C80.5851 68.9969 80.5705 63.4884 80.5198 57.9803C80.4684 48.3146 80.7091 38.6361 80.7366 28.9696C80.7389 28.1551 80.7529 25.7949 80.2274 25.2476C79.8732 25.7543 79.4864 26.2246 79.443 26.8372C79.1601 30.8221 79.2169 34.8767 79.1959 38.8703L78.9855 58.4567C78.8563 64.7969 78.0897 71.5056 78.5348 77.891C78.5831 78.5833 79.3246 78.9854 79.8679 79.3479Z" fill="black"/>
<path d="M149.928 22.3444C151.697 22.3151 158.18 21.9436 159.148 22.9964C161.029 25.0424 160.935 32.3097 160.949 35.0373L160.96 63.331C160.964 66.6922 160.937 70.3446 160.966 73.6809C161.035 81.8 158.061 81.1291 151.54 81.2325C148.664 81.2623 145.788 81.3249 142.913 81.4204C126.591 81.9842 110.941 81.8295 94.6286 81.8445C91.5857 81.8167 86.2418 82.581 84.5687 79.8553C83.0515 77.3839 83.3923 70.2247 83.3921 67.3899L83.3975 54.5582C83.4016 46.2284 83.1647 37.4568 83.8105 29.1832C84.0327 26.3383 84.4383 24.8277 86.6622 23.025L149.928 22.3444ZM104.045 48.1618C104.268 46.9488 104.224 45.7861 103.572 44.7284C103.313 45.4257 103.587 47.6061 104.045 48.1618Z" fill="#E8625F"/>
<path d="M134.175 37.9216C138.518 38.1252 140.604 42.1564 141.417 46.059C142.823 52.8047 138.71 63.3284 130.51 56.8608C127.862 53.6661 127.384 49.1024 128.402 45.1901C130.701 45.8817 132.747 47.706 134.581 49.2173C134.198 44.9762 133.374 43.9721 131.395 40.1869C132.302 39.065 132.762 38.2268 134.175 37.9216Z" fill="black"/>
<path d="M103.572 44.7284C102.2 41.798 99.5242 39.5454 104.01 38.2122C106.499 38.8664 108.664 39.9412 109.858 42.3325C113.004 48.6309 111.903 56.6922 104.931 59.5735C102.389 58.8184 100.839 58.463 99.4204 55.9363C97.7385 52.9403 97.5371 48.8706 97.8381 45.502C99.687 46.1957 101.169 47.0081 102.687 48.2765C103.049 48.579 103.552 49.1345 103.967 49.1505C103.97 48.8742 103.939 48.3774 104.045 48.1618C104.268 46.9489 104.224 45.7862 103.572 44.7284Z" fill="black"/>
<path d="M147.486 58.7569C151.479 57.9205 155.03 63.4952 151.962 64.117C151.306 63.9806 150.98 63.5343 150.512 63.0458C148.118 65.9301 146.908 68.0486 143.76 70.4635C137.947 74.9225 132.014 76.55 124.83 75.7346C122.944 75.3932 119.098 75.819 120.135 72.5701C120.349 72.3915 120.588 72.1539 120.862 72.235C130.693 75.1515 139.311 71.7242 145.98 64.1965C148.991 60.7972 146.22 60.9142 146.073 59.2091C146.489 58.7901 146.878 58.8271 147.486 58.7569Z" fill="black"/>
<path d="M102.053 28.2087C104.047 28.016 108.472 28.7745 109.274 30.8592C108.981 32.0977 107.334 31.7269 106.342 31.6328C104.509 31.5949 99.6825 32.0817 98.6053 31.0554C97.9693 29.1404 100.701 28.6332 102.053 28.2087Z" fill="black"/>
<path d="M132.192 27.6716C133.264 27.4307 136.148 27.9923 137.119 28.5794C138.688 29.5278 138.691 30.2499 137.849 31.7009C136.75 31.215 136.354 31.1061 135.166 30.9591C133.362 30.7923 129.4 31.2931 128.105 30.2556C127.738 28.9082 131.177 27.9634 132.192 27.6716Z" fill="black"/>
<path d="M103.572 44.7284C104.224 45.7861 104.268 46.9488 104.045 48.1618C103.587 47.6061 103.313 45.4257 103.572 44.7284Z" fill="#E78A9D" fill-opacity="0.988235"/>
<path d="M151.85 92.5172C153.918 92.4558 162.267 92.1733 163.606 92.7611C163.739 93.0006 163.781 93.1361 163.782 93.4152C163.791 96.2949 151.625 120.186 149.288 124.139C148.661 125.201 147.985 126.18 147.103 127.052C146.403 127.744 145.406 128.572 144.423 128.786C141.609 129.398 138.488 129.205 135.619 129.218C132.198 129.214 128.778 129.267 125.359 129.378L105.56 130.068C102.091 130.215 98.6389 130.503 95.1594 130.601C86.4593 130.778 77.7569 130.814 69.0555 130.708C65.8998 130.708 60.3789 131.246 57.9408 129.135C55.4665 126.955 56.7754 123.127 58.1752 120.637C62.4025 113.119 67.4608 105.89 71.9648 98.5062C72.9427 96.9028 75.1909 93.0042 76.9784 92.8649C79.2075 92.6911 81.7806 92.7288 84.0526 92.7362L96.4016 92.7728C106.712 92.6333 117.024 92.5856 127.336 92.6299C135.334 92.6412 143.897 92.7995 151.85 92.5172ZM78.5105 95.4498C77.4709 97.2469 76.538 99.2148 75.4749 100.931C72.5792 105.604 69.6839 110.129 67.189 115.043C66.0622 117.263 64.9523 118.72 64.358 121.224C69.6042 121.589 77.4891 121.343 82.9859 121.336L121.687 121.171L136.053 121.353C137.783 121.362 144.973 121.651 145.7 120.387C147.163 117.844 148.922 113.887 150.065 111.167C151.393 108.009 157.574 98.0463 157.402 95.3289C156.751 94.7402 149.587 95.2233 148.313 95.2585C136.859 95.496 125.402 95.5608 113.946 95.4531C110.019 95.3978 104.837 94.5431 101.092 94.859C98.6553 94.8791 96.3002 95.1158 93.8728 95.2716C88.7855 95.5981 83.6103 95.4572 78.5105 95.4498Z" fill="#9E9D9E"/>
<path d="M101.092 94.8589C104.836 94.543 110.018 95.3977 113.945 95.453C125.401 95.5607 136.859 95.4959 148.313 95.2585C149.586 95.2233 156.75 94.7401 157.401 95.3288C157.574 98.0462 151.392 108.009 150.065 111.167C148.922 113.887 147.162 117.844 145.699 120.387C144.972 121.651 137.782 121.362 136.052 121.353L121.686 121.171L82.9853 121.336C77.4885 121.343 69.6037 121.589 64.3574 121.224C64.9517 118.72 66.0617 117.263 67.1885 115.043C69.6833 110.129 72.5787 105.604 75.4743 100.931C76.5374 99.2147 77.4704 97.2468 78.51 95.4498C83.6098 95.4571 88.7849 95.598 93.8723 95.2716C96.2997 95.1158 98.6547 94.879 101.092 94.8589ZM139.693 106.986C142.088 106.994 147.194 107.303 149.111 106.144C151.308 103.871 152.448 100.607 154.442 97.772C151.414 97.6437 146.516 97.9118 143.992 97.6304C143.475 99.1304 140.489 105.528 139.693 106.986ZM129.843 106.782C131.84 106.93 134.357 107.087 136.367 106.969C138.735 104.141 139.422 100.796 140.909 97.8145C138.773 97.739 136.586 97.6934 134.451 97.833C132.505 100.43 131.254 103.801 129.843 106.782ZM90.1174 103.932C88.9247 104.972 88.6763 106.365 86.6382 106.16C86.0732 106.103 85.8508 106.169 85.3427 105.822C84.9599 104.909 85.935 103.879 85.9745 102.617L85.8559 102.46C85.2472 102.947 84.5953 104.278 84.0782 105.015C83.9183 105.81 83.5717 106.083 83.0151 106.677C83.4864 106.971 87.6348 106.633 88.4952 106.569C89.0893 105.893 90.1314 104.836 90.1174 103.932ZM113.88 98.4471C113.533 100.378 111.026 105.574 109.918 107.2C111.303 107.05 115.936 107.036 116.655 106.826C118.073 104.624 119.43 101.133 120.948 98.5353C119.123 98.5477 115.568 98.673 113.88 98.4471ZM95.2093 113.616C95.7639 112.891 97.1133 110.547 97.1792 109.675C96.67 109.458 94.7888 110.349 93.0056 110.196L92.8377 110.181C92.0616 110.16 91.6797 110.022 91.0626 110.339C90.9922 110.778 91.0464 110.823 91.2448 111.246C92.536 110.813 93.397 111.005 94.7529 111.188L95.4114 111.364C95.7573 112.075 95.2176 112.693 95.2093 113.616ZM106.907 106.868C108.026 105.121 110.306 99.686 111.149 98.7931L111.069 98.587C109.773 98.594 106.609 98.7017 105.486 98.5501C104.055 101.318 102.819 104.705 101.359 107.178C102.529 107.091 106.185 107.03 106.907 106.868ZM98.2389 106.531C99.4899 104.33 100.987 100.601 102.338 98.8961L102.256 98.663C100.168 98.5239 98.4991 98.731 96.3015 98.5314C95.4053 101.156 93.6418 104.448 92.3298 106.959C93.212 106.932 97.8327 106.936 98.2389 106.531ZM130.859 97.94C129.189 97.9867 125.503 98.211 123.995 97.9876C123.203 99.457 122.618 100.621 121.969 102.158C121.393 103.523 120.671 105.692 119.961 106.908C121.245 106.958 125.406 107.111 126.575 106.682C128.055 104.481 129.423 100.512 130.859 97.94ZM103.786 114.499C104.473 112.91 105.147 111.316 105.808 109.716L103.682 110.016L100.528 110.116C99.2406 112.769 97.8382 115.563 96.6262 118.245C97.0752 118.442 96.9124 118.39 97.4798 118.271C98.8446 118.172 100.381 118.361 101.698 118.063C102.176 117.954 102.329 117.487 102.564 117.058C102.852 116.774 103.637 114.918 103.786 114.499Z" fill="black"/>
<path d="M138.708 109.15C141.69 109.024 145.202 109.132 148.192 109.194C147.005 111.872 145.157 115.9 143.689 118.374C142.855 118.646 135.797 118.415 134.392 118.425C136.137 115.781 137.194 112.082 138.708 109.15Z" fill="#FDFCFD"/>
<path d="M128.971 109.131C130.783 109.206 134.018 109.283 135.754 109.158C134.325 112.528 133.388 115.117 131.579 118.382C130.833 118.619 126.122 118.449 125.035 118.419C125.776 115.842 127.786 111.623 128.971 109.131Z" fill="#FDFCFD"/>
<path d="M119.396 109.324C121.454 109.342 123.654 109.402 125.699 109.303C125.245 110.33 122.008 118.071 121.594 118.398C119.39 118.442 117.185 118.433 114.981 118.372C115.885 115.811 117.504 111.277 119.396 109.324Z" fill="#FDFCFD"/>
<path d="M112.658 109.742C113.509 109.685 114.146 109.599 114.981 109.769C114.374 110.119 114.259 110.014 113.469 109.932L113.393 110.189C113.709 110.434 114.542 111.076 114.471 111.462C114.089 113.518 112.575 116.458 111.708 118.332C110.297 118.379 108.977 118.371 107.566 118.353C107.048 118.34 106.941 118.345 106.456 118.172C106.659 117.687 106.819 117.261 106.463 116.847L105.984 117.011C105.814 116.428 108.372 111.225 108.791 110.219C108.869 110.51 108.921 110.655 109.027 110.929C109.665 110.978 110.149 110.971 110.523 110.442C110.337 110.243 109.838 110.155 109.526 110.065C110.687 109.993 111.516 109.904 112.658 109.742Z" fill="#FDFCFD"/>
<path d="M82.2302 109.873C83.9607 109.9 85.6082 109.826 87.3336 109.755C86.7235 110.106 85.8656 110.466 85.5981 111.007C85.885 111.448 85.7907 111.308 86.4071 111.523L86.4525 111.708C85.8157 113.701 84.0678 116.55 82.6944 118.178C82.1532 118.638 81.0591 118.44 80.3621 118.495C74.2235 118.982 80.6298 111.589 82.2302 109.873Z" fill="#FDFCFD"/>
<path d="M77.766 109.575L78.0105 109.507L78.2555 109.662C78.1898 110.813 74.4136 117.187 73.5894 118.454C72.1969 118.465 70.7621 118.434 69.3659 118.42L68.8048 118.38L68.7129 118.085C69.7638 115.843 71.9399 111.87 73.3103 109.861C74.8998 109.891 76.1821 109.739 77.766 109.575Z" fill="#FDFCFD"/>
<path d="M90.7664 110.031C91.4576 110.073 92.1483 110.123 92.8384 110.181C92.0623 110.16 91.6804 110.022 91.0633 110.339C90.9929 110.778 91.0471 110.823 91.2455 111.246C92.5367 110.813 93.3977 111.005 94.7535 111.188L95.4121 111.364C95.758 112.075 95.2182 112.693 95.21 113.616C94.9388 115.655 93.7574 116.697 92.2012 117.849C92.7968 118.116 92.5331 118.085 93.2006 117.939C92.5983 118.577 89.0554 118.395 88.1366 118.207L88.4404 118.094C88.3514 117.673 88.308 117.539 88.1531 117.137C87.5836 117.223 87.3558 117.661 86.8689 118.169L86.7061 118.111C87.5321 116.168 89.7399 111.842 90.7664 110.031Z" fill="#FDFCFD"/>
<path d="M90.7664 110.031C91.4576 110.073 92.1483 110.123 92.8384 110.181C92.0623 110.16 91.6804 110.022 91.0633 110.339C90.9929 110.778 91.0471 110.823 91.2455 111.246C90.7827 112.944 88.4295 115.981 88.4404 118.094C88.3514 117.673 88.308 117.539 88.1531 117.137C87.5836 117.223 87.3558 117.661 86.8689 118.169L86.7061 118.111C87.5321 116.168 89.7399 111.842 90.7664 110.031Z" fill="#E4E2E4"/>
<path d="M94.7535 111.188L95.412 111.364C95.7579 112.075 95.2182 112.693 95.2099 113.616C94.9387 115.655 93.7573 116.697 92.2012 117.849C93.0062 115.478 95.1541 113.545 94.7535 111.188Z" fill="#E4E2E4"/>
<path d="M86.9982 98.4311C88.9489 98.2866 91.3269 98.3826 93.3088 98.4358C92.2247 100.013 91.3798 102.72 90.1173 103.932C88.9246 104.972 88.6762 106.365 86.6382 106.16C86.0731 106.103 85.8507 106.169 85.3426 105.822C84.9598 104.91 85.9349 103.879 85.9744 102.617L85.8558 102.46C85.2471 102.947 84.5952 104.278 84.0781 105.015C84.3002 103.695 86.3425 99.7195 86.9982 98.4311Z" fill="#FDFCFD"/>
<path d="M81.0191 98.3931L84.2691 98.2961C82.8264 100.508 81.664 103.924 79.912 105.691L79.718 105.383C79.1523 105.272 78.4329 105.565 78.3318 106.204L77.6555 106.418C77.3066 106.02 77.3757 105.213 77.2005 104.615C76.4775 105.312 76.1914 105.55 75.3633 106.112C76.3689 104.032 77.6857 101.596 79.02 99.7055C79.7257 98.7054 79.8905 98.5609 81.0191 98.3931Z" fill="#E4E2E4"/>
<path d="M100.528 110.117L103.682 110.016C103.784 110.53 103.793 110.549 103.594 111.015C103.246 111.323 103.033 111.331 102.568 111.452C102.065 111.412 101.442 111.331 101.031 111.686C100.098 112.49 99.5215 114.687 99.4542 115.888L98.8967 116.525L98.6807 116.622C98.728 117.13 98.7034 117.343 98.5686 117.835C98.276 118.165 97.931 118.174 97.4796 118.271C96.9123 118.39 97.0751 118.442 96.626 118.245C97.8381 115.563 99.2404 112.77 100.528 110.117Z" fill="#3F4041" fill-opacity="0.0392157"/>
<path d="M99.4549 115.888C99.7016 115.889 100.961 116.061 101.06 115.988C102.209 115.141 101.319 112.784 102.518 111.847C103.177 111.702 103.275 111.745 103.922 111.954L104.027 112.406L103.385 113.759C102.061 116.15 102.084 117.598 98.9757 117.094L98.8975 116.525L99.4549 115.888Z" fill="#848184" fill-opacity="0.733333"/>
<path d="M99.4551 115.888C99.5224 114.687 100.099 112.49 101.032 111.686C101.443 111.331 102.066 111.412 102.569 111.452C103.098 111.526 103.969 111.564 104.331 111.875C104.204 112.316 104.329 112.162 104.027 112.406L103.923 111.954C103.275 111.745 103.177 111.702 102.519 111.847C101.319 112.784 102.209 115.141 101.06 115.988C100.961 116.061 99.7017 115.889 99.4551 115.888Z" fill="#9E9D9E" fill-opacity="0.247059"/>
<path d="M84.0787 105.015C84.5958 104.278 85.2477 102.947 85.8564 102.46L85.975 102.617C85.9355 103.879 84.9604 104.91 85.3432 105.822C85.8513 106.169 86.0737 106.103 86.6388 106.16C88.6768 106.365 88.9252 104.972 90.1179 103.932C90.1319 104.836 89.0898 105.893 88.4957 106.569C87.6353 106.633 83.487 106.971 83.0156 106.677C83.5722 106.083 83.9188 105.81 84.0787 105.015Z" fill="#9E9D9E" fill-opacity="0.0392157"/>
<path d="M98.9756 117.094C102.084 117.598 102.061 116.15 103.385 113.759L103.786 114.499C103.638 114.918 102.852 116.775 102.564 117.058L102.342 116.761C101.521 117.49 99.85 117.899 98.9756 117.094Z" fill="#3F4041" fill-opacity="0.454902"/>
<path d="M97.4805 118.271C97.9319 118.174 98.2769 118.165 98.5694 117.835C98.7042 117.343 98.7288 117.13 98.6816 116.622L98.8975 116.525L98.9758 117.094C99.8502 117.899 101.522 117.49 102.342 116.761L102.564 117.058C102.33 117.487 102.177 117.955 101.699 118.063C100.382 118.361 98.8453 118.172 97.4805 118.271Z" fill="#494A4C" fill-opacity="0.113725"/>
<path d="M131.056 140.819L131.237 140.789C132.033 141.569 138.493 174.309 138.958 177.537C135.219 178.839 133.911 179.69 130.058 178.608C129.478 178.188 129.06 177.815 128.902 177.082C128.434 174.908 128.35 172.532 127.878 170.36C125.78 160.703 123.812 151.033 121.307 141.468C124.474 141.194 127.817 141.08 131.056 140.819Z" fill="#E8625F"/>
<path d="M101.747 142.1C101.902 142.328 101.99 146.834 102.143 147.699C103.339 154.267 104.571 160.828 105.84 167.382C106.525 170.783 107.44 174.31 107.985 177.704C104.815 179.724 102.679 180.069 99.2929 178.056C98.845 177.7 98.1723 177.039 98.0074 176.493C97.1135 173.538 96.8834 170.189 96.2455 167.172C94.4959 158.897 93.1865 150.384 91.3525 142.148L101.747 142.1Z" fill="#E8625F"/>
<path d="M184.34 201.446L184.628 201.482L184.801 201.753C183.925 204.149 170.115 206.667 167.071 207.039C157.96 208.15 148.465 208.202 139.386 206.746C136.166 206.231 132.924 205.351 129.766 204.538C129.536 204.501 129.373 204.414 129.154 204.325C128.963 203.813 128.92 203.734 129.07 203.215C129.272 202.991 129.51 202.679 129.894 202.783C131.477 203.208 133.172 203.664 134.761 204.002C138.588 204.82 142.471 205.348 146.377 205.583C154.076 206.035 163.314 205.752 170.886 204.423C175.351 203.639 179.932 202.169 184.34 201.446Z" fill="url(#paint0_linear_61_629)"/>
<path d="M55.4238 200.934C57.3318 201.69 59.6199 202.187 61.6147 202.783C75.582 206.951 91.0612 206.448 105.279 203.838C106.459 203.621 109.919 202.612 110.807 203C110.729 203.549 110.655 203.467 110.189 203.915C106.428 205.915 98.3616 207.078 93.9008 207.388C84.9182 208.011 75.1936 207.995 66.4002 205.918C64.2935 205.421 62.5328 204.974 60.453 204.276C59.0484 203.806 56.8886 203.745 55.667 202.67C55.2912 202.339 55.4199 201.473 55.4238 200.934Z" fill="url(#paint1_linear_61_629)"/>
<path d="M194.246 57.8203C196.215 57.4351 197.873 56.9974 199.698 58.2389C199.905 58.3807 200.106 58.5293 200.302 58.6842C201.145 60.0632 201.463 60.9116 203.258 61.1047C203.491 62.3671 203.387 62.7576 202.82 63.9168C201.847 65.0937 200.687 65.4211 199.174 65.5316C197.55 65.6503 193.438 65.654 192.347 64.4529C193.178 63.213 193.174 62.0056 192.817 60.6054C193.307 59.6837 193.783 58.7553 194.246 57.8203Z" fill="#FDFCFD"/>
</g>
<defs>
<linearGradient id="paint0_linear_61_629" x1="156.86" y1="207.397" x2="156.925" y2="201.447" gradientUnits="userSpaceOnUse">
<stop stop-color="#FF7472"/>
<stop offset="1" stop-color="#E19398"/>
</linearGradient>
<linearGradient id="paint1_linear_61_629" x1="82.2275" y1="207.947" x2="83.347" y2="199.588" gradientUnits="userSpaceOnUse">
<stop stop-color="#FF7271"/>
<stop offset="1" stop-color="#D68085"/>
</linearGradient>
<clipPath id="clip0_61_629">
<rect width="233.6" height="224" fill="white"/>
</clipPath>
</defs>
</svg>
