<svg width="234" height="240" viewBox="0 0 234 240" fill="none" xmlns="http://www.w3.org/2000/svg">
<g clip-path="url(#clip0_61_406)">
<path d="M88.4485 11.1428C97.8573 10.8533 106.712 11.1516 116.09 11.3831C122.799 11.5487 129.893 11.4746 136.636 11.4987L155.707 11.522C161.075 11.5183 167.896 10.5455 171.901 14.5109C173.511 16.106 175.808 19.7592 176.093 22.0116C177.525 33.2904 176.92 44.6312 177 55.9678C177.018 59.1714 177.634 61.975 177.724 65.0038C177.874 70.1042 177.702 75.2104 177.81 80.307C179.923 81.7948 182.646 83.3727 184.66 84.8846C191.053 89.832 197.683 95.3626 201.042 102.92C202.057 105.738 202.06 109.036 202.133 111.942C202.347 120.364 194.028 126.555 186.302 127.174C182.587 127.472 171.285 127.406 168.097 125.813C164.586 129.426 164.105 129.808 158.952 129.441C156.686 135.996 153.714 139.845 146.282 140.578C144.615 140.913 141.867 141.147 140.549 142.249C136.098 145.973 131.239 147.927 129.002 153.594C130.335 157.605 133.571 163.158 136.987 165.749L137.116 165.713C145.711 163.362 147.11 170.027 149.004 175.433C150.153 177.273 155.367 183.258 155.406 185.128C155.648 196.962 136.987 210.219 126.716 212.379C119.843 213.827 108.442 213.781 102.279 210.884C99.5253 209.589 100.172 206.229 100.562 204.126C98.4266 193.12 103.026 183.838 114.444 181.42C115.957 181.1 117.548 181.063 119.133 180.769C118.511 176.621 119.091 174.491 121.549 171.131C119.161 168.833 118.038 166.897 116.391 163.998C112.378 156.346 111.374 151.045 116.792 143.768C117.439 142.9 118.366 142.199 118.951 141.345L118.794 141.041C117.304 140.801 112.638 140.687 111.094 140.784C110.889 141.06 109.953 142.253 109.701 142.337C102.252 144.814 91.2036 144.481 85.9522 151.213C83.9642 153.762 84.9935 161.358 85.3082 164.579C85.5089 165.635 85.5851 168.098 86.1668 168.978C89.9891 174.761 92.175 175.876 87.7958 182.762C87.9468 184.823 88.0167 186.889 88.0049 188.955C87.9442 193.33 87.4731 198.072 84.1131 201.278C81.9901 203.305 78.7554 204.063 75.8842 203.975C65.6859 203.663 42.7739 190.895 35.7446 183.383C33.0649 180.519 30.2402 175.888 30.399 171.836C30.6181 166.246 34.193 161.962 38.0779 158.332C41.8097 154.846 46.0613 153.198 51.2061 153.385C60.6274 153.727 64.6676 159.041 70.5636 165.401C69.3554 157.229 67.6455 147.57 74.3775 141.138C70.0076 142.458 64.3226 141.699 59.8687 141.113C54.3716 140.389 52.3923 137.699 51.8066 132.383C51.5196 129.779 52.0459 127.637 52.1531 125.062C49.1019 124.714 44.1775 123.732 41.3019 122.364C33.3245 118.569 32.2011 107.793 37.9014 100.868C44.2005 93.2152 57.3331 85.8047 67.252 82.7659C67.4988 80.4188 67.4175 75.0354 67.4156 72.5554L67.4038 54.5922C67.4194 48.3906 68.0895 42.9316 68.1045 36.7556L68.1034 26.2739C68.1034 20.6133 67.7118 12.1694 75.6527 11.4622C79.8419 11.0892 84.2278 11.2199 88.4485 11.1428ZM77.4428 75.9383C77.4992 77.0779 77.4249 78.8198 77.4127 80.0055L79.3247 80.8666C78.8657 76.6436 79.82 70.6684 79.0032 66.1916C78.8973 66.6645 78.7352 67.2748 78.7076 67.7461C78.6501 70.2796 78.4493 73.615 77.4428 75.9383ZM131.903 117.868C132.166 114.197 133.998 112.835 137.098 111.109C137.805 110.715 139.649 110.163 140.354 110.682C139.765 112.45 134.651 115.273 134.363 118.184C134.148 119.732 134.306 121.935 135.406 123.218C138.733 127.099 141.367 128.386 145.465 125.505C144.503 123.802 144.206 123.479 142.57 122.412L140.269 122.91C140.926 121.808 141.598 120.224 142.545 119.383C144.081 118.021 148.389 124.647 151.802 124.815C155.319 124.989 157.809 123.48 160.316 121.194L160.703 121.22C162.009 122.39 160.316 124.434 159.447 125.46C160.373 126.348 160.613 126.578 161.747 127.215C163.15 126.306 164.383 125.348 165.477 123.959C168.891 119.622 170.302 111.224 165.437 107.371C164.822 106.884 164.438 106.665 163.66 106.763C162.537 108.167 164.645 111.415 162.96 112.661C161.367 112.456 160.911 110.064 160.172 108.881C159.451 107.727 158.425 106.997 157.565 106.023C148.065 95.2514 126.584 95.6404 120.009 109.443C119.614 110.272 118.219 113.202 119.789 113.623C123.999 114.753 126.491 111.929 128.623 108.817C129.978 106.869 132.664 104.346 134.89 103.286C135.524 103.847 135.389 104.238 135.251 104.987C135.456 105.215 135.503 105.305 135.799 105.402C135.314 105.747 134.835 106.099 134.362 106.459C130.068 109.753 128.297 113.191 131.903 117.868ZM61.4531 106.835C58.3379 110.115 57.9184 111.146 57.892 115.817C57.8763 118.596 60.1045 125.621 63.372 125.632C64.8678 124.594 62.8478 121.569 63.8855 120.39C65.2922 120.249 66.9169 122.812 67.8944 123.71C69.1297 124.844 70.1683 125.15 71.7055 125.631C72.9518 125.259 74.2362 124.713 75.3845 124.326C77.0234 123.774 81.1678 120.259 82.5303 120.609C83.4823 121.235 83.5727 122.172 83.2017 123.17C82.2784 124.271 77.4423 124.987 80.2527 127.436C81.048 128.129 84.171 128.02 85.1769 127.776C89.5278 125.479 90.6472 122.434 88.7674 117.821C87.8017 115.451 84.6224 114.252 84.2066 112.73C85.0718 111.107 90.2969 113.897 90.6181 115.901C90.7329 116.617 92.1386 119.465 92.776 119.794C94.7714 118.863 94.0377 113.809 93.2821 112.13C92.4415 110.264 89.1855 108.483 89.463 106.572C92.1872 105.78 96.0653 111.81 97.2293 113.993C98.0583 115.547 102.16 120.178 104.414 117.807C104.654 117.554 105.032 116.578 105.181 116.201C104.993 115.363 104.706 114.014 104.35 113.263C102.773 109.93 98.4245 105.812 95.4373 103.838C93.0552 102.264 87.8434 100.227 84.996 100.06C78.7872 101.098 76.5123 101.014 70.7733 104.775C69.1653 105.829 68.3582 105.96 67.0636 107.683C66.3323 108.656 64.844 111.275 64.036 111.873C60.648 111.508 64.3809 106.747 64.3148 106.32C63.4099 106.117 62.3638 106.559 61.4531 106.835ZM184.838 111.881C185.86 110.98 186.11 110.664 186.901 109.556C184.358 103.662 180.289 100.247 174.989 96.859C173.97 96.2074 172.045 94.72 170.982 94.3383C170.804 97.5339 171.752 98.7722 171.642 101.78C171.568 103.803 169.305 107.977 170.422 109.756C172.505 111.63 181.995 112.314 184.838 111.881ZM69.8946 102.075C70.7897 101.498 71.9164 100.708 72.6445 99.984C76.2847 96.3632 81.6293 96.8628 86.3163 96.1853C87.3864 96.0304 89.1181 95.588 89.5716 94.4234L89.5588 94.1135C85.0687 95.8095 79.3272 94.8358 74.5243 95.3649C73.2815 97.6364 69.9421 100.638 69.8946 102.075ZM172.508 55.272C173.708 53.3 173.372 50.8255 173.73 48.5055C174.116 46.5861 173.416 23.4689 172.818 21.4327C171.796 20.7508 171.537 20.2154 170.84 19.2099C171.123 20.8714 171.123 22.0072 171.151 23.7049C170.999 30.1211 171.051 36.5405 171.307 42.9533C171.351 43.8548 171.427 46.5444 171.645 47.3055C171.841 49.7261 171.946 52.1529 171.961 54.5813C172.032 55.1364 171.966 55.392 172.275 55.7678C172.322 55.6705 172.485 55.3539 172.508 55.272ZM110.186 121.84C111.185 121.785 111.75 121.885 112.386 121.149C114.232 119.012 114.953 115.085 116.26 112.81C115.512 112.742 112.06 112.359 111.521 112.396L109.585 113.07C106.595 117.895 110.967 118.388 104.655 121.779C106.674 121.898 108.181 121.887 110.186 121.84ZM126.904 98.5304C128.163 97.6333 129.393 96.8487 130.36 95.6289C128.264 94.4811 127.144 93.7327 124.67 93.9588C123.124 95.236 123.7 98.8036 123.743 100.751C125.317 99.827 125.514 99.6076 126.904 98.5304ZM59.4158 161.098C59.5348 160.683 59.795 160.107 59.5038 159.736C57.7341 157.484 53.996 157.208 51.4464 156.926C51.4362 157.861 51.3013 158.611 52.0335 159.31C53.616 160.821 57.3247 161.785 59.4158 161.098ZM111.191 191.04C112.603 190.422 115.933 189.448 115.655 187.633C115.16 186.942 114.394 186.149 113.505 186.108C112.164 186.783 107.921 188.667 108.772 190.512C109.493 191.015 110.332 191.116 111.191 191.04ZM134.632 182.279C134.955 181.616 134.963 181.818 134.926 181.135C134.334 180.867 131.322 181.519 130.291 181.511C127.939 181.492 125.652 180.75 123.351 180.975C124.563 182.29 127.165 183.236 128.906 183.307C130.913 183.387 132.647 182.651 134.632 182.279ZM66.0384 102.669C66.6203 101.746 67.9887 100.178 68.2348 99.5137C68.0565 99.1245 68.1598 99.191 67.8508 99.0541C62.0941 100.617 54.8805 104.788 50.8236 109.297L50.8609 109.596L51.0906 109.712C53.5278 109.702 54.8543 109.415 57.2276 108.809C57.6112 107.669 58.0642 106.741 58.4472 105.664C60.7209 103.972 63.1969 102.953 66.0384 102.669ZM127.642 117.615C125.788 120.222 125.56 121.932 129.218 121.878C129.883 121.415 129.761 121.635 130.029 120.947C129.857 119.98 128.459 117.958 127.642 117.615ZM134.392 95.5598C135.691 94.9084 135.511 94.0087 135.287 92.6569C135.019 92.3072 135.182 92.408 134.835 92.2602C134.498 92.9743 133.698 94.2764 133.633 94.9156C133.906 95.3775 133.862 95.2514 134.392 95.5598ZM101.294 121.67C100.422 120.855 98.5268 118.904 97.4308 118.743C96.9604 119.426 96.1104 120.506 95.9596 121.267C96.4487 122.159 98.1666 121.864 99.1674 121.859C99.831 121.803 100.648 121.757 101.294 121.67ZM159.304 94.8154C156.797 94.9383 141.701 94.4377 140.311 95.0628L140.342 95.2419C142.725 95.5611 145.252 95.9573 147.635 96.0984C150.373 96.2605 154.599 95.8244 157.21 96.0714C158.172 95.8183 158.581 95.463 159.304 94.8154ZM115.132 121.997C119.101 120.708 118.895 122.195 121.961 121.775C122.638 120.876 124.36 118.54 124.217 117.441C124.189 117.223 124.144 117.083 123.968 116.951C123.669 116.728 118.569 116.549 117.781 116.543C116.989 118.389 116.245 120.332 115.132 121.997ZM101.324 99.9089C100.227 100.81 99.6417 101.398 98.6617 102.431C99.2967 103.308 99.9276 103.985 100.874 104.542C101.936 104.141 102.894 102.117 102.849 100.952C102.589 100.46 102.448 100.234 101.813 100.04C101.652 99.9908 101.489 99.947 101.324 99.9089ZM119.591 100.47L115.026 100.69C114.146 102.852 112.589 106.705 111.612 108.963C111.657 109.078 111.701 109.192 111.746 109.307C112.333 109.643 112.69 109.616 113.365 109.653L116.319 109.756C116.853 108.59 117.193 107.938 117.804 106.861C118.663 105.349 121.138 102.657 121.188 101.043C120.899 100.425 121.081 100.602 120.535 100.323C120.237 100.351 119.85 100.359 119.591 100.47ZM106.891 100.629C105.67 102.097 104.107 105.444 103.436 107.288C104.881 108.961 106.344 109.354 108.54 109.009C109.647 106.311 110.92 103.065 112.388 100.57L106.891 100.629ZM95.7024 93.7381C95.2002 93.8741 90.6889 97.5539 90.4678 97.9884C90.8061 98.4581 93.7226 99.7903 94.3746 99.9531C97.3468 101.066 97.6737 100.782 99.0495 97.3729C99.6922 95.7809 98.8577 94.4251 97.1455 93.9895C96.6725 93.8647 96.1899 93.7807 95.7024 93.7381ZM104.846 94.5796C104.222 94.5828 103.287 94.5146 102.78 94.8164C102.428 95.2687 102.473 95.6634 102.437 96.251C103.062 97.5773 116.269 96.9525 118.376 96.8861C119.065 96.8878 120.027 96.9851 120.56 96.6183C120.705 96.0937 120.601 95.7139 120.516 95.1834C120.168 94.7575 119.932 94.6663 119.266 94.6525C114.901 94.563 109.094 94.2868 104.846 94.5796Z" fill="black"/>
<path d="M79.847 14.1777C85.1656 13.9906 91.2731 14.1191 96.6174 14.1349L128.338 14.3232C134.862 14.3606 141.387 14.3612 147.911 14.325C152.432 14.311 156.989 14.2505 161.504 14.5073C162.549 14.5986 164.784 14.7975 165.54 15.5125C167.39 17.2988 167.884 20.3684 167.888 22.8367C167.895 25.9823 167.884 29.1019 167.974 32.2415L168.888 62.4539C169.058 66.8042 169.883 87.383 167.644 89.6853C165.831 91.5487 159.835 90.879 157.281 90.8615C151.175 90.8771 144.775 90.7204 138.659 90.5491C137.761 90.524 135.766 88.8165 134.519 89.1295C133.441 89.3438 133.048 90.7746 131.756 90.8164C118.829 91.2324 105.944 91.3045 93.011 91.251C88.6898 91.2329 84.2946 91.579 79.9609 91.4524C77.5963 91.3832 74.6791 91.8327 72.8003 90.1032C70.5052 88.1183 70.3649 85.0318 70.1536 82.2129C69.7782 77.2089 70.1172 72.1499 70.2546 67.1421L70.7529 46.8611C70.9506 38.0933 71.0776 29.2937 71.1822 20.523C71.2521 14.6629 75.1197 14.4306 79.847 14.1777ZM77.4424 75.9383C77.4988 77.0779 77.4245 78.8198 77.4123 80.0055L79.3243 80.8666C78.8652 76.6436 79.8195 70.6684 79.0028 66.1916C78.8969 66.6645 78.7348 67.2748 78.7072 67.7461C78.6496 70.2796 78.4489 73.615 77.4424 75.9383Z" fill="#9A999A"/>
<path d="M129.027 17.2381C139.811 16.9827 150.177 17.2583 160.949 17.514C165.15 20.1848 165.409 21.741 165.585 26.3423C166.034 38.0734 165.549 49.7796 165.561 61.4928C165.584 65.105 165.628 68.7168 165.695 72.3284C165.769 77.6993 166.608 84.0575 159.302 84.9107C153.529 85.5846 147.442 85.3246 141.608 85.3356C131.419 85.337 121.231 85.4221 111.044 85.5907C102.145 86.1261 92.9611 85.705 84.0367 85.9417C78.264 86.2949 74.2314 83.868 74.1375 77.556C73.8585 58.8156 74.8438 40.1478 74.9274 21.3941C76.0331 19.3063 77.6882 17.9246 80.08 17.7375C86.0219 17.2728 92.2348 17.491 98.1985 17.5051C108.476 17.5837 118.753 17.4947 129.027 17.2381ZM77.4432 75.9383C77.4996 77.0779 77.4253 78.8198 77.4131 80.0055L79.3251 80.8667C78.8661 76.6436 79.8204 70.6684 79.0036 66.1916C78.8977 66.6646 78.7356 67.2749 78.708 67.7461C78.6505 70.2796 78.4497 73.6151 77.4432 75.9383Z" fill="black"/>
<path d="M143.788 20.0953C147.162 19.9134 158.288 19.6905 160.937 20.7475C163.211 24.1078 162.516 30.305 162.509 34.3896L162.515 52.4166C162.597 60.7676 163.308 69.0688 162.605 77.4461C162.105 83.4113 156.491 82.3463 152.077 82.324C148.512 82.2935 144.946 82.2842 141.381 82.2956C127.906 82.3732 115.009 82.3972 101.507 82.6749C96.8891 82.7008 91.7967 82.8608 87.1757 82.7067C86.6733 82.6899 85.5428 82.3901 85.1925 82.0029C83.447 80.0718 82.6959 78.8048 82.6176 76.2391C82.5091 72.6751 82.5327 69.2202 82.5291 65.7023L82.5668 45.9019L82.5283 34.1513C82.5123 30.529 81.9967 24.4389 84.4163 21.3743C84.8193 20.864 85.2624 20.7204 85.9115 20.6943C88.3896 20.5943 90.8833 20.6322 93.3662 20.6292L107.41 20.608C119.437 20.5888 131.73 20.3278 143.788 20.0953Z" fill="#E7625F"/>
<path d="M102.741 36.6362C104.681 36.5036 106.009 36.4158 107.74 37.5608C113.947 41.665 113.821 57.0903 105.017 57.9931C103.448 58.1543 101.9 57.4213 100.661 56.5377C97.3711 53.5863 97.0725 47.2958 98.7203 43.4396C100.227 44.7478 103.259 46.9436 105.001 47.737C104.606 45.495 104.175 44.1907 103.232 42.1335C102.801 41.1945 101.563 38.5834 101.631 37.733C101.875 37.1518 102.224 36.9817 102.741 36.6362Z" fill="black"/>
<path d="M133.742 36.6308C135.01 36.5727 136.386 36.5906 137.665 36.5857C141.19 39.5299 142.738 41.9295 142.756 46.748C142.783 49.768 142.517 53.1047 140.637 55.6247C138.389 58.6375 135.516 58.6623 132.698 56.5432C128.315 52.8004 128.789 48.3404 129.205 43.0009C131.494 44.6554 133.68 46.1583 136.142 47.5442C135.747 44.8663 132.641 38.1453 133.138 36.8794L133.742 36.6308Z" fill="black"/>
<path d="M148.027 57.9249C151.069 57.7851 155.062 59.5813 154.58 63.0806C154.209 63.6335 154.422 63.4897 153.787 63.627C153.118 63.4609 152.683 62.803 152.227 62.2604C146.945 70.8185 137.674 76.5017 127.486 75.9912C126.258 75.8339 122.117 75.5061 121.373 74.2118C120.747 73.1225 121.704 72.2303 123.041 72.4514C124.364 72.6701 125.992 72.851 127.34 73.0428C135.047 74.0021 142.706 69.623 147.369 63.7143C147.858 63.0952 148.85 62.2922 148.873 61.4851C148.921 59.8097 147.55 59.7156 148.027 57.9249Z" fill="black"/>
<path d="M101.352 25.9518C103.551 26.107 106.036 26.4796 108.036 27.4255L109.33 29.7331C108.134 29.7525 106.908 29.6965 105.711 29.6594C103.861 29.48 98.861 30.0973 97.9023 28.8912C98.0161 27.24 99.9441 26.3472 101.352 25.9518Z" fill="black"/>
<path d="M130.759 25.96C133.001 25.8497 135.248 25.849 137.49 25.9575C138.474 26.6389 139.829 27.6476 139.651 28.9682C139.122 29.34 139.255 29.2242 138.469 29.1739C135.755 28.8583 132.032 28.9402 129.197 28.893C129.625 27.5987 129.831 26.9595 130.759 25.96Z" fill="black"/>
<path d="M77.1727 67.892C76.9115 65.4699 77.2016 61.8289 77.1634 59.2924C77.0312 50.5349 77.443 41.7651 77.914 33.0215C78.0475 30.5442 77.6649 26.0175 78.0085 23.9482C78.0734 23.5381 78.3089 23.1747 78.6567 22.948C79.0635 22.6815 79.5594 22.6076 80.0317 22.7118C80.2176 23.3303 79.6432 24.6739 79.6115 25.4173C79.231 34.3244 79.5978 43.3594 79.4651 52.2628C79.4213 55.2139 79.8049 63.7436 79.0032 66.1916C78.8973 66.6646 78.7352 67.2748 78.7075 67.7461C78.65 70.2796 78.4493 73.615 77.4428 75.9383C77.0531 74.7939 77.1555 69.3594 77.1727 67.892Z" fill="#F6F5F7"/>
<path d="M77.1723 67.892C77.4645 68.6476 77.6352 71.1065 77.7416 72.0829C78.2302 70.9232 78.0163 68.5893 78.7072 67.7461C78.6496 70.2796 78.4489 73.615 77.4424 75.9383C77.0527 74.7939 77.1551 69.3594 77.1723 67.892Z" fill="#B9B8BC"/>
<path d="M38.5789 168.613C48.7351 168.21 53.3154 174.345 60.2945 180.781C63.5817 183.813 65.5743 186.314 69.5737 188.577C67.2854 190.063 65.2082 191.4 62.733 192.56C60.9343 193.36 59.501 194.021 57.6025 194.592C54.7972 193.558 47.5846 188.981 44.828 187.118C38.9375 183.137 34.5428 179.321 33.0605 172.259C34.4837 169.468 35.6448 169.234 38.5789 168.613Z" fill="#E7625F"/>
<path d="M132.163 141.798C133.265 141.72 135.088 141.768 136.306 141.731C131.724 146.468 128.837 146.369 125.986 153.915C127.585 158.912 131.206 163.795 134.382 167.95C135.179 168.992 135.885 169.829 136.436 171.038C135.942 171.719 135.401 172.364 134.818 172.969C133.332 174.525 132.123 174.855 130.106 174.896C129.02 174.787 127.754 174.408 126.985 173.548C122.546 168.581 116.72 161.671 116.075 154.836C115.766 151.568 117.05 147.901 119.062 145.589C122.23 141.95 127.73 142.022 132.163 141.798Z" fill="#E7625F"/>
<path d="M143.035 132.463C140.38 132.867 135.434 132.693 132.581 132.728C128.295 132.805 124.01 132.949 119.729 133.159C115.461 133.345 111.167 133.676 106.917 133.82C98.5036 134.053 90.0884 134.221 81.6722 134.323C75.6767 134.448 69.6729 134.568 63.6756 134.586C61.9752 134.59 58.2493 134.524 56.9402 133.318C54.1948 130.789 54.6411 126.99 56.8965 124.26C58.0556 125.867 58.9819 127.525 61.0733 127.764C66.1383 128.343 71.5103 127.774 76.6133 128.036C77.256 128.505 79.3019 130.392 79.9308 130.506C91.5344 132.601 104.205 131.879 115.94 131.387C121.386 131.159 126.1 131.662 130.184 127.983C130.54 127.082 130.791 125.416 131.303 124.829C134.407 123.894 137.013 132.717 145.736 128.874C144.847 130.525 143.399 131.553 143.035 132.463Z" fill="#9A999A"/>
<path d="M80.2515 141.803C82.131 141.74 93.2468 141.27 93.8357 142.579C92.9683 143.553 86.7906 145.202 84.4405 148.338C81.1001 152.796 81.7258 158.046 82.1592 163.282C82.3809 164.905 82.4885 166.317 82.5986 167.954C78.5127 165.86 77.4963 165.508 72.9039 165.108C72.1976 157.185 70.5973 147.842 77.2948 141.925L80.2515 141.803Z" fill="#E7625F"/>
<path d="M71.7429 190.436C75.124 191.541 79.1244 196.314 81.2613 199.055C78.1907 202.025 75.3217 201.232 71.516 200.556C67.1057 199.695 65.0861 198.461 61.1006 196.659C64.4429 194.47 68.5541 192.931 71.7429 190.436Z" fill="#E7625F"/>
<path d="M38.6743 163.888C41.5577 163.677 47.1865 163.814 49.6812 165.398C56.4455 169.75 62.1884 176.083 68.3339 181.278C74.7175 186.675 82.764 188.328 84.4638 197.539C83.9267 196.842 83.5686 196.227 83.1223 195.478C79.1294 190.399 73.6998 188.542 68.8242 184.68C65.772 182.061 63.3168 178.88 60.1974 176.316C54.8587 171.928 50.0286 166.667 42.7903 165.785C41.1175 165.581 37.1402 165.535 35.8691 165.043L35.7646 164.683C36.3592 164.009 37.7948 163.962 38.6743 163.888Z" fill="#E7625F"/>
<path d="M92.2518 124.835C98.3219 124.731 104.429 124.879 110.503 124.809C112.573 124.786 114.7 124.754 116.763 124.926L116.833 128.316L112.901 128.415C104.965 128.838 97.2118 128.781 89.1162 129.386C91.4659 126.958 90.8461 126.698 92.2518 124.835Z" fill="#9A999A"/>
<path d="M172.508 55.272C173.708 53.3 173.372 50.8255 173.73 48.5055C173.726 54.0682 174.346 59.6695 174.524 65.2245C174.762 72.6533 174.692 80.1144 174.652 87.5457C174.646 88.6011 173.183 89.3514 172.144 88.5653C171.427 87.2508 171.775 83.5931 171.83 81.9571C172.128 73.0805 171.039 63.3843 171.961 54.5813C172.032 55.1363 171.966 55.392 172.275 55.7678C172.322 55.6704 172.485 55.3539 172.508 55.272Z" fill="#F6F5F7"/>
<path d="M159.303 94.8154C166.852 90.1598 169.731 100.817 159.835 104.031C159.39 103.418 158.641 102.451 158.299 101.815C159.426 98.8449 160.993 97.339 157.21 96.0714C158.172 95.8183 158.581 95.463 159.303 94.8154Z" fill="#9A999A"/>
<path d="M130.797 205.575C131.217 205.223 131.526 204.884 132.048 204.764C132.199 205.173 132.216 205.206 132.238 205.638L132.67 205.893C131.581 206.427 130.204 207.002 129.035 207.33C127.206 208.53 121.949 209.149 119.738 209.455C116.98 209.84 102.901 209.541 103.113 205.844C103.632 205.798 107.037 206.771 107.998 206.952C115.436 208.349 120.797 208.139 128.03 205.947L128.257 206.19L130.797 205.575Z" fill="#E7625F"/>
<path d="M130.797 205.575C131.217 205.223 131.526 204.884 132.048 204.764C132.199 205.173 132.216 205.206 132.238 205.638L132.67 205.893C131.581 206.427 130.204 207.002 129.035 207.33L128.949 207.128C129.457 206.476 130.125 206.726 130.979 206.16L130.654 205.888L130.797 205.575Z" fill="#FE8A7D"/>
<path d="M128.03 205.947C136.683 202.318 145.146 197.569 150.207 189.338C150.809 188.358 151.423 186.965 152.539 186.623L152.648 186.83L152.436 186.615L152.627 186.708C152.644 186.999 152.61 187.175 152.491 187.446C148.78 195.928 140.72 202.208 132.67 205.893L132.238 205.638C132.216 205.206 132.199 205.173 132.048 204.764C131.526 204.884 131.217 205.223 130.797 205.575L128.258 206.19L128.03 205.947Z" fill="url(#paint0_linear_61_406)"/>
<path d="M172.819 21.4327C173.417 23.4689 174.116 46.5861 173.731 48.5055C173.373 50.8255 173.708 53.3 172.508 55.272C172.485 54.4026 172.77 50.9251 172.788 49.9068C172.795 49.5457 173.494 48.2028 173.501 47.5946C173.529 45.1634 173.605 33.8066 172.98 32.1954L172.725 32.2571C172.533 32.1038 172.34 31.9516 172.147 31.8004C171.581 32.5173 171.876 37.2284 171.891 38.404C171.935 41.3733 171.853 44.3432 171.645 47.3055C171.427 46.5444 171.351 43.8548 171.308 42.9533C171.051 36.5405 170.999 30.1211 171.151 23.7049C171.383 24.7293 171.36 27.4539 171.638 28.0459C171.754 26.7051 171.768 25.5411 172.377 24.3339L172.393 24.4173C173.032 23.7327 172.847 22.3668 172.819 21.4327Z" fill="#625F64" fill-opacity="0.521569"/>
<path d="M171.645 47.3055C171.853 44.3432 171.935 41.3733 171.89 38.404C171.876 37.2284 171.581 32.5173 172.146 31.8004C172.34 31.9516 172.533 32.1038 172.725 32.2571L172.98 32.1954C173.605 33.8066 173.528 45.1634 173.5 47.5946C173.493 48.2028 172.794 49.5457 172.788 49.9068C172.769 50.9251 172.484 54.4026 172.508 55.272C172.485 55.3539 172.322 55.6705 172.274 55.7678C171.966 55.392 172.032 55.1364 171.961 54.5813C171.946 52.1529 171.841 49.7261 171.645 47.3055ZM172.973 43.8619L173.04 42.9617C173.235 41.7049 173.426 41.2405 172.879 40.1249L172.643 40.1554C172.019 41.884 172.272 44.2242 172.634 45.9842C172.709 45.5741 172.985 44.1931 172.973 43.8619Z" fill="#747176" fill-opacity="0.0470588"/>
<path d="M172.635 45.9842C172.272 44.2242 172.02 41.884 172.643 40.1554L172.879 40.1249C173.426 41.2406 173.235 41.7049 173.04 42.9617C172.995 42.5023 172.985 41.543 172.743 41.2594C172.363 42.0689 172.324 43.0007 172.511 43.8665L172.778 44.0232L172.973 43.8619C172.985 44.1931 172.709 45.5741 172.635 45.9842Z" fill="black" fill-opacity="0.27451"/>
<path d="M172.973 43.8619L172.777 44.0232L172.511 43.8664C172.323 43.0007 172.362 42.0689 172.743 41.2594C172.984 41.543 172.995 42.5023 173.039 42.9617L172.973 43.8619Z" fill="#1A1C1A" fill-opacity="0.490196"/>
<path d="M145.737 128.873C148.158 127.359 148.346 127.449 151.192 127.277C148.533 131.352 148.147 132.289 143.036 132.463C143.4 131.553 144.848 130.525 145.737 128.873Z" fill="#B9B8BC"/>
<path d="M120.714 125.323C122.087 125.376 125.361 125.203 126.045 126.357C125.974 126.943 125.558 127.204 125.109 127.587C123.724 128.002 121.445 127.946 119.942 127.952C120.167 127.088 120.456 126.182 120.714 125.323Z" fill="#B9B8BC"/>
<path d="M170.84 19.2099C171.536 20.2154 171.796 20.7509 172.818 21.4328C172.846 22.3669 173.031 23.7328 172.392 24.4173L172.376 24.3339C171.767 25.5411 171.753 26.7051 171.637 28.0459C171.359 27.4539 171.383 24.7293 171.15 23.7049C171.123 22.0072 171.123 20.8714 170.84 19.2099Z" fill="#625F64" fill-opacity="0.235294"/>
<path d="M72.0205 170.114C73.3258 170.55 73.5217 170.117 74.795 171.224C75.6039 171.928 76.4946 173.533 76.6822 174.543C75.0178 174.276 74.8681 172.8 72.795 171.94C72.5106 171.314 72.2702 170.754 72.0205 170.114Z" fill="#F6F5F7"/>
<path d="M134.89 103.286C135.361 103.004 135.51 102.875 136.075 102.896C137.232 103.661 136.784 104.711 135.799 105.402C135.503 105.306 135.456 105.215 135.251 104.987C135.389 104.238 135.524 103.847 134.89 103.286Z" fill="black" fill-opacity="0.960784"/>
</g>
<defs>
<linearGradient id="paint0_linear_61_406" x1="141.27" y1="195.152" x2="143.655" y2="198.267" gradientUnits="userSpaceOnUse">
<stop stop-color="#E87E6B"/>
<stop offset="1" stop-color="#FF9B9B"/>
</linearGradient>
<clipPath id="clip0_61_406">
<rect width="233.6" height="224" fill="white"/>
</clipPath>
</defs>
</svg>
