<svg width="66" height="72" viewBox="0 0 66 72" fill="none" xmlns="http://www.w3.org/2000/svg">
<path d="M38.4279 69.5341C39.7989 69.6601 40.9219 69.8561 42.1919 69.8881C44.9619 69.9561 47.6209 69.8601 50.3339 69.2881C52.5819 68.8141 54.8479 68.2281 56.9889 67.4801C57.1829 67.4121 57.0169 66.7981 56.8689 66.7931C54.7139 67.4991 52.6589 68.0521 50.4569 68.5331C48.2769 69.0101 46.1099 69.1741 43.8699 69.1751C43.2349 69.1751 42.5859 69.2311 41.9669 69.1691L38.7079 68.8411C38.5829 68.8291 38.3069 68.9741 38.2329 69.0721C38.1599 69.1701 38.2999 69.5221 38.4279 69.5341ZM26.6149 69.2351C26.7509 69.2201 26.8529 68.8001 26.7589 68.7421C26.6659 68.6851 26.4199 68.5421 26.3119 68.5561C19.4939 69.4461 14.8189 68.6531 8.31393 66.5701L8.19593 67.2691C13.6259 68.9981 17.0049 69.7451 22.7749 69.6141C24.0279 69.5851 25.3989 69.3701 26.6149 69.2351ZM42.6229 62.6631C42.7139 62.5861 42.6419 62.1361 42.5379 62.1221C42.4349 62.1081 42.2189 62.1231 42.1229 62.1961L40.8959 63.1291C39.7159 64.0261 39.0039 63.8951 39.0859 64.4501C39.2389 65.4861 42.4219 62.8321 42.6229 62.6631ZM24.2189 62.9241C23.6399 62.5351 22.8299 61.8901 22.3669 62.0511C22.3089 62.0701 22.3179 62.3371 22.3729 62.3821C22.7739 62.7041 25.5139 65.0201 25.9149 64.2011C26.1229 63.7771 25.2829 63.6391 24.2189 62.9241ZM52.2639 61.2531C51.7299 60.6371 49.2529 60.7791 48.7769 61.2951C48.9159 62.2281 52.3139 62.4291 52.2639 61.2531ZM16.0629 61.3131C16.9909 60.5901 13.3139 60.2641 12.7629 60.9521C12.7119 62.0191 15.2019 61.9831 16.0629 61.3131ZM26.8089 60.9691C27.1149 61.0041 27.5029 60.4151 27.6009 60.1581C28.2669 58.4211 28.8169 56.7411 29.3169 54.9241C28.1529 55.2121 27.1769 55.1321 26.0989 54.7641L24.8459 59.1461C24.8509 59.5671 24.7559 60.3151 25.1649 60.5111C25.6549 60.7451 26.2149 60.9031 26.8089 60.9691ZM38.1349 61.2921C38.6669 61.2251 39.2649 61.0081 39.7649 60.8701C40.2719 60.7301 40.2889 60.2181 40.2499 59.7511L38.7399 54.3771C37.7499 54.8451 36.7599 55.0791 35.5869 54.8891L37.2559 60.1821C37.3509 60.5601 37.5829 61.3621 38.1349 61.2921ZM56.0629 56.5821C55.5119 57.0091 55.1369 57.6811 55.1249 58.3131C55.0959 59.8461 56.8329 61.2701 58.1129 60.8941C58.8209 60.6861 59.2379 60.1051 59.6219 59.4991C59.7299 59.3291 60.1759 59.4261 60.2069 59.6131C60.2289 59.7501 60.1809 59.9731 60.1119 60.2271C60.7949 60.4221 61.6019 60.1011 62.0539 59.4841C62.9239 58.2961 62.3389 57.9851 62.9239 57.6561C63.0249 57.6001 63.3499 57.7191 63.3569 57.8401L63.4079 58.6371C63.8329 58.6221 64.3279 58.2901 64.5489 57.8031C66.0999 54.3731 63.4169 51.5391 63.2329 51.7161L62.9839 51.9551C62.8909 52.0451 62.6209 52.1501 62.4929 52.1351C62.3639 52.1201 62.1589 51.8721 62.1869 51.7451C62.2109 51.6401 62.3189 51.4861 62.4329 51.3501C63.2539 50.3701 63.0999 48.8091 62.1429 47.9361C61.2669 47.7681 61.6149 49.6221 60.4319 50.2391C59.2079 50.8771 57.8069 50.1541 57.3179 48.9041C57.2489 48.7291 57.0219 48.5161 56.8739 48.5101C56.4069 48.4931 55.7869 49.6931 56.2699 50.6821C57.1179 52.4201 58.7639 51.6441 58.8109 52.4011C58.8599 53.1991 56.8499 52.6171 56.3109 52.0091C55.0119 52.4851 53.9439 53.4251 53.3799 54.7251C52.8939 55.8451 53.3009 57.2001 54.3139 57.8121L55.1269 56.2841L54.4719 56.1351C54.3709 56.1111 54.3509 55.7721 54.4159 55.6901C55.0929 54.8321 58.0829 56.3501 57.1339 56.9331C56.6949 57.2021 56.4319 56.5201 56.0629 56.5821ZM41.0149 51.4541C42.2209 51.4181 43.2509 51.5031 44.3819 51.3751C44.8119 51.3261 45.2709 50.8581 45.4749 50.4951L46.7689 48.2031C48.1489 45.7581 49.4149 43.3021 50.5059 40.7131C50.6669 40.3321 50.0119 40.0451 49.6519 40.0461L24.2369 40.0981C23.5699 40.0241 23.0159 40.2181 22.6519 40.7541L17.6899 48.0431C17.1579 48.8241 16.8809 49.7301 16.9909 50.6701C17.0529 51.2051 17.6019 51.6991 18.1709 51.7241C22.3309 51.9071 26.3949 51.8841 30.5819 51.7611L41.0149 51.4541ZM10.9329 38.3041C11.0439 39.2561 10.9229 40.0771 10.2429 40.7541C10.6799 41.7611 10.3549 42.7841 9.57693 43.5251C8.31593 44.7261 5.91693 44.9071 4.94093 43.4751C4.84993 43.3421 4.96893 42.9581 5.11093 42.9191C5.72593 42.7541 5.64693 43.5001 6.79793 43.6681C7.78993 43.8121 8.76293 43.3901 9.32893 42.5861C9.77193 41.9571 9.72593 41.1371 9.13293 40.6321C7.84493 39.5321 6.69593 40.4911 6.71293 39.6791C6.73093 38.8251 9.13493 39.3681 9.77193 40.0401C10.2139 39.4701 10.2289 38.8321 10.0179 38.1481C9.88093 37.7031 9.36193 37.2501 8.80993 37.0261C6.90893 36.2561 5.59993 37.4181 5.39793 36.6321C5.16593 35.7291 8.46593 35.8931 9.12893 36.2451C9.11693 35.5961 8.73193 35.0211 8.16393 34.6851C6.66693 33.7971 4.75793 33.8331 3.32793 34.7881C2.72793 35.1881 2.44593 35.6951 2.35693 36.4191C2.33093 36.6341 1.89693 36.8381 1.70693 36.9901C0.456933 37.9891 0.513932 39.8741 1.78293 40.8891C0.654932 43.1081 2.53393 45.9341 4.83393 46.5921C6.85393 47.1691 8.74293 45.8921 8.69993 46.7101C8.69293 46.8391 8.53993 47.0661 8.42093 47.1301L7.98193 47.3671C8.30093 47.7991 8.89193 47.8341 9.35793 47.6121C10.8729 46.8941 11.8259 45.5191 12.4079 43.9681C12.6339 43.3651 12.8069 42.6071 12.5869 42.0221C12.5469 41.9171 12.3049 41.7521 12.2119 41.7761C11.8179 41.8771 11.8679 42.8411 10.9249 43.8181C10.8329 43.9131 10.3949 43.8571 10.3459 43.7351C10.1139 43.1561 11.6549 42.1161 11.5239 39.7301C11.4939 39.1781 11.3839 38.6531 10.9329 38.3041ZM10.8579 37.8781C11.3589 36.9691 11.2059 36.0351 10.7659 35.2241C10.2139 34.2051 9.25693 33.2201 8.02593 33.6711C9.44693 34.5021 9.97593 35.1831 9.98793 36.7461L10.8579 37.8781ZM53.0609 38.1961L52.6929 21.4281C52.6769 20.6941 52.5369 19.7311 52.3309 19.1661C52.3029 19.0911 52.0189 19.0061 51.9899 19.0711C51.9609 19.1371 51.8709 19.3461 51.8729 19.4291L52.1829 36.9871C52.1929 37.5161 52.1919 37.8651 52.1449 38.4101C52.1229 38.6581 52.3819 38.8681 52.6039 38.8151C52.7699 38.7761 53.0689 38.5251 53.0609 38.1961ZM50.6859 39.0541C51.0799 38.9241 51.4129 38.2231 51.4029 37.7681L51.0239 19.0751C50.9999 17.9051 49.5369 17.4081 48.5539 17.4051L23.5929 17.3321C23.0579 17.3301 22.3379 18.1091 22.3249 18.6231L21.8489 37.0441C21.8249 37.9451 22.5849 39.2501 23.5759 39.2491L49.2929 39.2311C49.7659 39.2301 50.2079 39.2131 50.6859 39.0541ZM36.2449 13.6361C36.5989 13.4941 36.3489 12.7901 36.2059 12.5481L34.7069 10.0221C34.5939 9.83208 34.7569 9.45508 34.8949 9.33008C35.3639 8.90408 37.2369 7.16808 37.0289 6.68208C36.9959 6.60408 36.7949 6.47108 36.6919 6.46608C34.9209 6.37008 33.0959 6.03508 31.4089 5.39708L24.2159 2.67608C21.1439 1.51408 17.9129 0.985079 14.6259 0.822079C12.1939 0.700079 9.85993 1.13108 7.67693 2.08608C7.25893 2.26908 6.54693 2.71708 6.54293 3.23008L6.46693 13.8041C6.46393 14.2421 6.74693 14.6251 7.15193 14.7491C10.4279 12.9311 16.5049 12.2331 20.0799 12.7001L26.6949 13.5631C28.5609 13.8061 34.6909 14.2591 36.2449 13.6361ZM41.3269 60.6421C42.4199 60.8171 43.3219 60.4911 43.6629 62.0601L45.0409 61.3281C46.3769 60.6171 47.8809 60.2121 49.3989 60.0061C50.8609 59.8061 52.3179 60.0261 53.6159 60.7001C54.5719 61.1971 55.3139 61.9721 55.9059 62.8521C56.5529 63.8151 56.8879 64.8751 57.3269 65.9371C57.5669 66.5171 58.0319 66.9341 57.8519 67.7041L57.6089 68.7481C57.0389 69.4361 56.1679 69.6901 55.3529 69.9631C51.2319 71.3431 46.6309 71.5961 42.3029 71.3721C41.2369 71.3171 36.6589 71.0251 36.0809 70.1691C35.9579 68.6501 35.9649 67.1251 36.3729 65.6481C35.7709 65.1201 35.5399 64.4051 35.7309 63.6091C35.8959 62.9201 36.3909 62.4031 36.9449 61.9601L36.3209 59.9811C35.6499 57.8521 34.9759 55.8171 34.3949 53.5941L30.5499 53.6221L28.8549 59.1991L28.0729 61.7031C28.7129 62.1701 29.1519 62.7091 29.3029 63.4251C29.4559 64.1481 29.2509 64.8311 28.6549 65.3421C29.0169 66.8241 29.0729 68.3431 28.9349 69.8851C28.3569 70.7491 23.7589 71.0351 22.6549 71.0961C18.3429 71.3351 13.7559 71.0351 9.65893 69.6881C8.82793 69.4141 8.02093 69.1431 7.38793 68.5021L7.32293 67.5291C7.28293 66.9391 7.45093 66.4571 7.62993 65.9351C8.00793 64.8271 8.37393 63.7881 8.97093 62.7861C11.7059 58.1951 17.4999 59.3931 21.3539 61.8181L22.2159 60.7101C22.4929 60.3541 23.1739 60.4231 23.6669 60.3951L25.5329 53.8031L22.1009 53.7261L18.7519 53.6371C17.7779 53.6101 16.7199 53.0991 16.3249 52.1861C15.9829 51.3931 15.8719 50.4251 15.9909 49.5661C16.0919 48.8411 16.6039 48.2521 16.9079 47.5721C15.0159 47.8101 13.2119 47.6891 11.5559 46.9891C10.9389 47.5391 10.3639 48.0871 9.67893 48.3831C8.61693 48.8411 7.55593 48.4301 7.05193 47.4671C4.23893 47.9981 1.63693 46.1551 0.821933 43.5741C0.558933 42.7411 0.516933 41.9311 0.797933 41.0611C-0.528067 39.5401 -0.147067 37.2141 1.53793 36.1241C1.89093 34.3641 3.33593 33.6681 4.93593 33.2791C5.48193 33.1461 5.56893 32.5211 5.57093 32.0061L5.72793 2.14508C5.72893 1.94508 5.82893 1.71408 5.90993 1.61708C5.99093 1.52008 6.38093 1.72908 6.54193 1.65708C9.16693 0.490079 12.4609 -0.220921 15.4979 0.0620786C18.6089 0.352079 21.5489 0.791079 24.4489 1.89308L31.3729 4.52508C32.7189 5.03708 34.0679 5.35308 35.4939 5.56408C36.3909 5.69708 37.2479 5.64008 38.1309 5.52908C40.0069 5.29208 36.0019 9.51008 35.5529 9.82008C36.2219 11.2251 37.1459 12.3671 38.0289 13.6251C38.2259 13.9061 37.6689 14.2771 37.4229 14.3331C36.0879 14.6381 34.7649 14.7891 33.3679 14.7591C31.1129 14.7111 28.9239 14.6601 26.6829 14.3711L19.8679 13.4921C16.9229 13.1121 11.0659 13.6401 8.43493 15.1101C7.91793 15.3981 7.10893 16.0461 7.10193 16.7031L6.91193 32.6631C6.90993 32.8381 7.21293 33.0571 7.33093 33.0091C9.27693 32.2291 10.6539 33.2561 11.5179 34.9251C12.0009 35.8591 12.1379 36.8541 11.7389 37.8671C12.2919 38.6021 12.3689 39.4891 12.3239 40.4021C13.5459 41.3321 13.6549 42.3171 13.3169 43.8001C15.7589 44.2181 18.3699 43.1491 20.6359 42.2891L21.8119 40.5511C22.0309 40.2271 22.2289 40.0061 22.5729 39.7071C21.2709 38.9461 20.9879 37.6421 21.0219 36.2461L21.4379 19.4201C21.4779 17.8031 22.3749 16.4821 24.1299 16.4911L49.6629 16.6181C50.9889 16.6251 52.2709 17.3911 52.9139 18.4871C53.4159 19.3421 53.4759 20.3321 53.4969 21.3201L53.8069 35.5881C57.6619 37.1011 59.8979 40.1551 60.9449 44.0861L61.5279 46.6271C63.2849 47.2611 64.1699 49.1081 63.6129 50.9261C65.6689 52.5291 66.4039 55.7501 65.3329 58.0661C64.8939 59.0151 64.0339 59.5851 63.0189 59.4321C62.3279 60.7421 60.9249 61.4561 59.5019 60.9481C58.7939 61.6781 57.8659 62.0031 56.8669 61.6511C55.7439 61.2561 54.7079 60.3051 54.4339 59.1191C54.3309 58.6731 54.2639 58.6561 53.8969 58.4491C52.6149 57.7261 52.0349 56.0351 52.5259 54.6521C53.0759 53.1041 54.2749 52.0461 55.7169 51.3591C54.8069 49.7331 55.3929 48.3111 56.7939 47.2921C56.1709 44.8061 55.1909 41.3431 52.7689 40.0561L51.5939 40.3191C52.0409 41.2691 52.1039 42.3401 51.5729 43.3181C50.8399 44.6711 50.1539 45.9911 49.5059 47.4001C48.6859 49.1821 47.8479 50.8481 46.8429 52.5421C46.3089 52.9851 45.6589 53.3481 44.9419 53.4111C43.0689 53.5781 41.3089 53.5671 39.3509 53.5611L41.3269 60.6421Z" fill="black"></path>
<path d="M38.428 69.5341C38.3 69.5221 38.16 69.1701 38.233 69.0721C38.307 68.9741 38.583 68.8291 38.708 68.8411L41.967 69.1691C42.586 69.2311 43.235 69.1751 43.87 69.1751C46.11 69.1741 48.277 69.0101 50.457 68.5331C52.659 68.0521 54.714 67.4991 56.869 66.7931C57.017 66.7981 57.183 67.4121 56.989 67.4801C54.848 68.2281 52.582 68.8141 50.334 69.2881C47.621 69.8601 44.962 69.9561 42.192 69.8881C40.922 69.8561 39.799 69.6601 38.428 69.5341Z" fill="#EB625C"></path>
<path d="M26.6143 69.2356C25.3983 69.3696 24.0283 69.5856 22.7753 69.6136C17.0043 69.7456 13.6263 68.9986 8.19629 67.2696L8.31429 66.5706C14.8183 68.6536 19.4933 69.4456 26.3123 68.5566C26.4193 68.5426 26.6653 68.6856 26.7583 68.7416C26.8533 68.7996 26.7503 69.2206 26.6143 69.2356Z" fill="#EB625C"></path>
<path d="M42.6235 62.6629C42.4225 62.8329 39.2395 65.4859 39.0865 64.4499C39.0045 63.8949 39.7155 64.0259 40.8965 63.1289L42.1235 62.1959C42.2195 62.1229 42.4345 62.1079 42.5375 62.1219C42.6415 62.1359 42.7145 62.5869 42.6235 62.6629Z" fill="white"></path>
<path d="M52.2634 61.2536C52.3134 62.4286 48.9154 62.2286 48.7764 61.2946C49.2534 60.7796 51.7304 60.6366 52.2634 61.2536Z" fill="white"></path>
<path d="M24.2194 62.9246C25.2833 63.6396 26.1224 63.7766 25.9154 64.2006C25.5144 65.0206 22.7744 62.7036 22.3734 62.3816C22.3184 62.3376 22.3094 62.0706 22.3664 62.0506C22.8304 61.8896 23.6394 62.5346 24.2194 62.9246Z" fill="white"></path>
<path d="M56.0629 56.5817C56.4319 56.5207 56.6949 57.2017 57.1339 56.9327C58.0829 56.3507 55.0929 54.8317 54.4159 55.6897C54.3509 55.7717 54.3709 56.1117 54.4719 56.1347L55.1269 56.2837L54.3139 57.8127C53.3009 57.2007 52.8939 55.8447 53.3799 54.7247C53.9439 53.4247 55.0119 52.4847 56.3109 52.0097C56.8499 52.6167 58.8599 53.1987 58.8099 52.4007C58.7639 51.6447 57.1179 52.4197 56.2699 50.6827C55.7869 49.6927 56.4069 48.4927 56.8739 48.5107C57.0219 48.5157 57.2489 48.7287 57.3179 48.9037C57.8069 50.1537 59.2079 50.8767 60.4319 50.2387C61.6149 49.6227 61.2669 47.7687 62.1429 47.9367C63.0989 48.8087 63.2539 50.3707 62.4329 51.3497C62.3189 51.4857 62.2109 51.6397 62.1869 51.7447C62.1589 51.8717 62.3639 52.1197 62.4929 52.1357C62.6209 52.1507 62.8909 52.0447 62.9839 51.9547L63.2329 51.7157C63.4169 51.5387 66.0999 54.3737 64.5489 57.8027C64.3279 58.2897 63.8329 58.6217 63.4079 58.6377L63.3569 57.8397C63.3489 57.7197 63.0249 57.5997 62.9239 57.6567C62.3389 57.9847 62.9239 58.2967 62.0539 59.4847C61.6019 60.1007 60.7949 60.4227 60.1119 60.2267C60.1809 59.9737 60.2289 59.7497 60.2059 59.6137C60.1759 59.4267 59.7299 59.3297 59.6219 59.4987C59.2379 60.1057 58.8209 60.6857 58.1129 60.8937C56.8329 61.2697 55.0959 59.8457 55.1249 58.3127C55.1369 57.6807 55.5119 57.0087 56.0629 56.5817Z" fill="white"></path>
<path d="M38.1344 61.2924C37.5824 61.3614 37.3504 60.5604 37.2554 60.1824L35.5864 54.8884C36.7604 55.0794 37.7504 54.8454 38.7394 54.3774L40.2494 59.7514C40.2884 60.2184 40.2724 60.7304 39.7644 60.8704C39.2644 61.0074 38.6674 61.2254 38.1344 61.2924Z" fill="#EB625C"></path>
<path d="M26.8086 60.9694C26.2146 60.9024 25.6546 60.7454 25.1646 60.5114C24.7556 60.3154 24.8516 59.5674 24.8456 59.1464L26.0986 54.7644C27.1766 55.1314 28.1536 55.2114 29.3166 54.9234C28.8166 56.7414 28.2666 58.4214 27.6016 60.1584C27.5026 60.4144 27.1146 61.0034 26.8086 60.9694Z" fill="#EB625C"></path>
<path d="M16.063 61.3129C15.202 61.9829 12.711 62.0189 12.762 60.9519C13.313 60.2639 16.99 60.5909 16.063 61.3129Z" fill="white"></path>
<path d="M44.6636 48.8734L48.4356 41.3974C48.4406 41.2254 48.4246 40.9954 48.3676 40.8984C48.3226 40.8214 48.1146 40.7574 47.9746 40.7584L24.0006 40.9414L19.7216 47.9294C19.6306 48.0784 19.5716 48.4364 19.6686 48.5444C19.7496 48.6344 19.9926 48.7254 20.1736 48.7264L44.6636 48.8734ZM41.0146 51.4544L30.5816 51.7614C26.3946 51.8844 22.3306 51.9074 18.1706 51.7244C17.6016 51.6994 17.0526 51.2054 16.9906 50.6704C16.8806 49.7304 17.1576 48.8244 17.6896 48.0434L22.6516 40.7544C23.0156 40.2184 23.5696 40.0244 24.2366 40.0984L49.6516 40.0464C50.0116 40.0454 50.6666 40.3324 50.5056 40.7134C49.4146 43.3024 48.1486 45.7574 46.7686 48.2034L45.4756 50.4954C45.2706 50.8574 44.8116 51.3264 44.3816 51.3744C43.2506 51.5024 42.2206 51.4184 41.0146 51.4544Z" fill="#A8A8A8"></path>
<path d="M44.2241 48.0452L45.5701 45.2832L42.5431 45.2652L41.2661 48.0222L44.2241 48.0452ZM31.1851 47.9542L32.4091 45.2852L30.6581 45.2862L29.3271 47.9392L31.1851 47.9542ZM28.3831 47.9592L29.7111 45.3242C29.0011 45.2722 28.3381 45.2712 27.6401 45.2912L26.2701 47.9252L28.3831 47.9592ZM25.3431 47.9192L26.7041 45.2912L24.7201 45.2952L23.3091 47.9002L25.3431 47.9192ZM22.4231 47.8942L23.8231 45.2982L22.2421 45.2942L20.6761 47.8862L22.4231 47.8942ZM40.3921 48.0102L41.6371 45.2702L39.4451 45.2672L38.2091 48.0102H40.3921ZM37.3681 47.9862L38.5781 45.2602L36.4801 45.2432L35.2221 47.9862H37.3681ZM34.3491 47.9802L35.5621 45.2662L33.3391 45.2602L32.0601 47.9712L34.3491 47.9802ZM32.8431 44.4662L34.1271 41.7052L32.4741 41.7072L31.1111 44.4562L32.8431 44.4662ZM30.1671 44.4642L31.5361 41.7282L29.5171 41.7322L28.1051 44.4632L30.1671 44.4642ZM27.1651 44.4652L28.5831 41.7442L26.7761 41.7382L25.2241 44.4552L27.1651 44.4652ZM24.3361 44.4142L25.8431 41.7822C25.3531 41.7572 24.8641 41.7612 24.3891 41.7912L22.7991 44.4172C23.3591 44.4732 23.8691 44.4812 24.3361 44.4142ZM46.0261 44.4582L47.4531 41.5962L44.2551 41.6192L42.9431 44.4602L46.0261 44.4582ZM42.0421 44.4722L43.3581 41.6262L41.1191 41.6362L39.8341 44.4772L42.0421 44.4722ZM38.9611 44.4902L40.2451 41.6722L38.1241 41.6592L36.8411 44.4692L38.9611 44.4902ZM35.9481 44.4852L37.2191 41.6832L35.0581 41.6662L33.7271 44.4632L35.9481 44.4852ZM44.6631 48.8732L20.1731 48.7262C19.9931 48.7252 19.7491 48.6342 19.6681 48.5442C19.5721 48.4372 19.6301 48.0782 19.7211 47.9292L24.0001 40.9412L47.9741 40.7592C48.1141 40.7582 48.3221 40.8212 48.3681 40.8982C48.4251 40.9952 48.4401 41.2252 48.4361 41.3972L44.6631 48.8732Z" fill="black"></path>
<path d="M34.3495 47.9798L32.0605 47.9708L33.3385 45.2598L35.5625 45.2668L34.3495 47.9798Z" fill="white"></path>
<path d="M44.2241 48.0451L41.2661 48.0221L42.5431 45.2651L45.5701 45.2831L44.2241 48.0451Z" fill="white"></path>
<path d="M40.393 48.0102H38.21L39.446 45.2672L41.637 45.2702L40.393 48.0102Z" fill="white"></path>
<path d="M37.3682 47.9862H35.2222L36.4802 45.2432L38.5782 45.2602L37.3682 47.9862Z" fill="white"></path>
<path d="M28.3835 47.9597L26.2705 47.9257L27.6395 45.2907C28.3385 45.2707 29.0015 45.2727 29.7115 45.3247L28.3835 47.9597Z" fill="white"></path>
<path d="M31.1856 47.9539L29.3276 47.9389L30.6586 45.2859L32.4096 45.2849L31.1856 47.9539Z" fill="white"></path>
<path d="M25.3436 47.9188L23.3096 47.9008L24.7206 45.2948L26.7046 45.2908L25.3436 47.9188Z" fill="white"></path>
<path d="M22.4238 47.8942L20.6768 47.8862L22.2428 45.2942L23.8238 45.2982L22.4238 47.8942Z" fill="white"></path>
<path d="M46.0269 44.4577L42.9429 44.4607L44.2549 41.6197L47.4539 41.5957L46.0269 44.4577Z" fill="white"></path>
<path d="M42.0425 44.472L39.8345 44.477L41.1195 41.636L43.3585 41.626L42.0425 44.472Z" fill="white"></path>
<path d="M35.948 44.4855L33.728 44.4635L35.058 41.6665L37.219 41.6835L35.948 44.4855Z" fill="white"></path>
<path d="M38.9613 44.4897L36.8413 44.4687L38.1243 41.6587L40.2453 41.6727L38.9613 44.4897Z" fill="white"></path>
<path d="M30.1675 44.4645L28.1055 44.4635L29.5165 41.7315L31.5355 41.7275L30.1675 44.4645Z" fill="white"></path>
<path d="M32.8438 44.4663L31.1118 44.4563L32.4748 41.7073L34.1278 41.7053L32.8438 44.4663Z" fill="white"></path>
<path d="M27.1651 44.4653L25.2241 44.4553L26.7761 41.7373L28.5831 41.7433L27.1651 44.4653Z" fill="white"></path>
<path d="M24.3363 44.4137C23.8693 44.4807 23.3593 44.4727 22.7993 44.4167L24.3893 41.7907C24.8643 41.7607 25.3533 41.7567 25.8433 41.7827L24.3363 44.4137Z" fill="white"></path>
<path d="M53.0611 38.1957C53.0681 38.5257 52.7691 38.7757 52.6041 38.8157C52.3821 38.8687 52.1231 38.6577 52.1441 38.4097C52.1911 37.8647 52.1931 37.5157 52.1831 36.9877L51.8731 19.4287C51.8711 19.3467 51.9611 19.1367 51.9901 19.0707C52.0181 19.0057 52.3031 19.0907 52.3301 19.1667C52.5371 19.7307 52.6771 20.6937 52.6931 21.4287L53.0611 38.1957Z" fill="white"></path>
<path d="M10.9331 38.3042C11.3841 38.6532 11.4941 39.1782 11.5241 39.7302C11.6551 42.1162 10.1141 43.1562 10.3461 43.7352C10.3941 43.8572 10.8331 43.9132 10.9241 43.8182C11.8681 42.8412 11.8181 41.8772 12.2121 41.7762C12.3051 41.7522 12.5461 41.9172 12.5861 42.0222C12.8071 42.6072 12.6341 43.3652 12.4081 43.9682C11.8261 45.5192 10.8731 46.8942 9.35808 47.6122C8.89108 47.8342 8.30108 47.7992 7.98208 47.3672L8.42108 47.1302C8.54008 47.0662 8.69308 46.8392 8.70008 46.7102C8.74308 45.8922 6.85408 47.1692 4.83308 46.5922C2.53308 45.9342 0.65508 43.1082 1.78208 40.8892C0.51308 39.8742 0.45708 37.9882 1.70708 36.9902C1.89708 36.8382 2.33108 36.6342 2.35708 36.4192C2.44608 35.6952 2.72808 35.1882 3.32708 34.7882C4.75708 33.8332 6.66608 33.7972 8.16408 34.6852C8.73208 35.0212 9.11608 35.5962 9.12808 36.2452C8.46508 35.8932 5.16508 35.7292 5.39708 36.6322C5.59908 37.4182 6.90908 36.2562 8.81008 37.0262C9.36108 37.2502 9.88008 37.7032 10.0171 38.1482C10.2281 38.8322 10.2131 39.4692 9.77108 40.0402C9.13508 39.3682 6.73108 38.8252 6.71308 39.6792C6.69608 40.4912 7.84508 39.5322 9.13308 40.6322C9.72608 41.1372 9.77108 41.9572 9.32908 42.5862C8.76308 43.3902 7.79008 43.8122 6.79808 43.6682C5.64608 43.5002 5.72608 42.7542 5.11108 42.9192C4.96908 42.9582 4.85008 43.3422 4.94108 43.4752C5.91708 44.9072 8.31608 44.7262 9.57708 43.5242C10.3551 42.7842 10.6801 41.7612 10.2431 40.7542C10.9231 40.0772 11.0441 39.2562 10.9331 38.3042Z" fill="white"></path>
<path d="M10.8574 37.8776L9.98739 36.7456C9.97639 35.1836 9.44639 34.5026 8.02539 33.6716C9.25739 33.2196 10.2144 34.2056 10.7654 35.2236C11.2054 36.0356 11.3584 36.9686 10.8574 37.8776Z" fill="white"></path>
<path d="M46.1332 37.6418C47.1022 37.6378 47.8892 37.5448 48.7302 37.4428C50.2952 37.2538 50.3572 35.3598 50.3532 34.1318L50.3132 20.6888C50.3092 19.3088 49.3222 18.2768 47.9992 18.2818L43.0702 18.3008L27.0232 18.3768C26.2302 18.3808 25.4782 18.3758 24.7722 18.4878C23.8722 18.6298 23.4602 19.2368 23.4412 20.0988L23.1182 35.2338C23.0852 36.8038 24.3432 37.8308 25.7662 37.7738L26.9292 37.7278L46.1332 37.6418ZM50.6852 39.0548C50.2072 39.2128 49.7652 39.2308 49.2922 39.2308L23.5752 39.2498C22.5842 39.2498 21.8252 37.9448 21.8482 37.0448L22.3242 18.6238C22.3382 18.1088 23.0572 17.3308 23.5922 17.3318L48.5542 17.4048C49.5362 17.4078 51.0002 17.9058 51.0232 19.0758L51.4032 37.7678C51.4122 38.2228 51.0792 38.9238 50.6852 39.0548Z" fill="#A8A8A8"></path>
<path d="M24.7938 36.1595L24.7488 33.8065L24.8008 27.4475L24.8158 21.6295C24.8178 21.1195 24.9178 20.3805 24.9708 19.9145C24.9838 19.8035 24.6318 19.6885 24.5598 19.7675C24.4868 19.8475 24.2638 20.0395 24.2608 20.1635L23.9258 34.6595C23.9138 35.1755 23.9618 35.5185 24.0638 35.9905C24.1098 36.2055 24.7988 36.3935 24.7938 36.1595ZM45.1888 36.8435C46.3938 36.8395 47.4448 36.7865 48.6158 36.6655C49.5638 36.5675 49.5638 34.7065 49.5628 33.8975L49.5358 20.7035C49.5338 19.8235 48.9268 19.1005 48.0758 19.1045L26.3908 19.2095C25.7418 19.9855 25.5938 20.8755 25.5958 21.8635L25.6058 25.8835L25.5318 34.2515C25.5258 34.9095 25.5808 35.5165 25.8338 36.1245C25.9788 36.4725 26.4788 36.8975 26.9228 36.8965L45.1888 36.8435ZM46.1328 37.6415L26.9288 37.7275L25.7668 37.7745C24.3428 37.8315 23.0848 36.8035 23.1188 35.2335L23.4418 20.0985C23.4598 19.2365 23.8718 18.6305 24.7718 18.4875C25.4778 18.3765 26.2298 18.3805 27.0228 18.3775L43.0708 18.3015L47.9998 18.2825C49.3218 18.2775 50.3088 19.3085 50.3128 20.6885L50.3528 34.1325C50.3568 35.3595 50.2958 37.2535 48.7298 37.4425C47.8898 37.5445 47.1018 37.6375 46.1328 37.6415Z" fill="black"></path>
<path d="M37.2946 34.7463C40.6686 35.7313 44.5026 34.2813 46.1626 31.1733C46.3746 31.4503 46.5526 31.6563 46.7186 31.6833C46.9606 31.7233 47.1986 31.3733 47.0956 31.1533C46.7456 30.3983 46.1136 29.9713 45.2936 29.8243C45.1366 29.7963 44.8516 30.1243 44.9086 30.2773C44.9566 30.4063 45.1796 30.5533 45.4366 30.6893C44.8436 32.0003 43.6936 33.0133 42.3496 33.6063C38.8456 35.1523 37.0476 33.3193 36.9116 34.1993C36.8826 34.3893 37.0466 34.6743 37.2946 34.7463ZM39.6256 25.6263C39.0366 27.1203 39.6936 29.6923 41.2536 29.8033C41.8146 29.8443 42.3936 29.6123 42.7586 29.1233C43.7216 27.8323 43.7906 25.9703 42.9016 24.6383C42.3716 23.8433 41.3256 23.6023 40.6336 24.1643C40.6426 24.3723 42.3516 27.6323 41.2266 26.8043L39.6256 25.6263ZM30.5776 25.6743C29.9966 27.1873 30.6456 29.8433 32.3246 29.8673C32.8416 29.8743 33.3936 29.6213 33.7436 29.1433C34.6616 27.8893 34.7306 26.1103 33.9246 24.7823C33.4096 23.9333 32.3616 23.6553 31.5816 24.1863L32.6106 26.7603C32.6496 26.8583 32.3126 26.9533 32.2236 26.8873L30.5776 25.6743ZM42.6236 21.5773C42.6736 20.6423 39.2926 20.5133 39.6746 21.5613C39.7276 21.7063 40.0706 21.7953 40.2256 21.7403C41.5456 21.2753 42.5786 22.4123 42.6236 21.5773ZM33.5716 21.6813C33.6526 20.9663 31.9356 20.6383 30.8106 21.0993C30.6716 21.1563 30.5836 21.5223 30.6476 21.6463C30.7116 21.7703 31.0286 21.8513 31.1626 21.8033C32.5396 21.3133 33.4836 22.4603 33.5716 21.6813ZM45.1886 36.8433L26.9236 36.8963C26.4786 36.8973 25.9796 36.4723 25.8346 36.1243C25.5806 35.5163 25.5266 34.9093 25.5316 34.2513L25.6056 25.8833L25.5966 21.8633C25.5936 20.8753 25.7416 19.9853 26.3906 19.2093L48.0766 19.1043C48.9276 19.1003 49.5346 19.8233 49.5356 20.7033L49.5626 33.8973C49.5646 34.7063 49.5636 36.5673 48.6156 36.6653C47.4456 36.7863 46.3946 36.8393 45.1886 36.8433Z" fill="#EB625C"></path>
<path d="M37.2945 34.7463C37.0465 34.6743 36.8825 34.3893 36.9115 34.1993C37.0475 33.3193 38.8455 35.1523 42.3495 33.6063C43.6935 33.0133 44.8435 32.0003 45.4365 30.6893C45.1795 30.5533 44.9565 30.4063 44.9085 30.2773C44.8515 30.1243 45.1365 29.7963 45.2935 29.8243C46.1135 29.9713 46.7455 30.3983 47.0955 31.1533C47.1985 31.3733 46.9605 31.7233 46.7185 31.6833C46.5525 31.6563 46.3745 31.4503 46.1625 31.1733C44.5025 34.2813 40.6685 35.7313 37.2945 34.7463Z" fill="black"></path>
<path d="M39.6252 25.6266L41.2262 26.8046C42.3512 27.6326 40.6432 24.3726 40.6332 24.1646C41.3262 23.6026 42.3712 23.8436 42.9022 24.6386C43.7912 25.9696 43.7212 27.8326 42.7582 29.1236C42.3932 29.6126 41.8152 29.8446 41.2532 29.8036C39.6932 29.6916 39.0362 27.1206 39.6252 25.6266Z" fill="black"></path>
<path d="M30.5777 25.6741L32.2237 26.8871C32.3127 26.9531 32.6497 26.8591 32.6107 26.7611L31.5817 24.1871C32.3617 23.6551 33.4097 23.9331 33.9247 24.7821C34.7307 26.1101 34.6607 27.8891 33.7437 29.1431C33.3937 29.6221 32.8417 29.8751 32.3247 29.8671C30.6457 29.8431 29.9967 27.1871 30.5777 25.6741Z" fill="black"></path>
<path d="M42.6231 21.5779C42.5781 22.4119 41.5451 21.2749 40.2251 21.7409C40.0701 21.7949 39.7271 21.7059 39.6741 21.5609C39.2921 20.5129 42.6731 20.6429 42.6231 21.5779Z" fill="black"></path>
<path d="M33.5721 21.6815C33.4841 22.4605 32.5401 21.3125 31.1631 21.8035C31.0281 21.8515 30.7121 21.7705 30.6481 21.6465C30.5831 21.5215 30.6721 21.1565 30.8111 21.0995C31.9361 20.6385 33.6531 20.9665 33.5721 21.6815Z" fill="black"></path>
<path d="M24.7941 36.1595C24.7991 36.3935 24.1101 36.2055 24.0641 35.9905C23.9621 35.5185 23.9141 35.1755 23.9261 34.6595L24.2611 20.1635C24.2641 20.0395 24.4871 19.8475 24.5601 19.7675C24.6321 19.6885 24.9841 19.8035 24.9711 19.9145C24.9181 20.3805 24.8181 21.1195 24.8161 21.6295L24.8011 27.4475L24.7491 33.8065L24.7941 36.1595Z" fill="white"></path>
<path d="M23.6187 24.7592L20.3487 19.0792C19.9537 18.3922 19.3317 17.9032 18.6347 17.6642C17.9387 17.4252 17.1587 17.4282 16.4377 17.7142C16.2967 17.7702 16.1587 17.8372 16.0237 17.9142L10.3447 21.1842C9.6567 21.5792 9.1687 22.2022 8.9297 22.8982C8.6907 23.5942 8.6937 24.3742 8.9797 25.0952C9.0367 25.2372 9.1037 25.3752 9.1797 25.5082L12.4497 31.1882C12.8447 31.8762 13.4677 32.3642 14.1637 32.6032C14.8597 32.8422 15.6397 32.8392 16.3607 32.5532C16.5017 32.4972 16.6397 32.4302 16.7747 32.3532L22.4537 29.0842C23.1417 28.6882 23.6297 28.0652 23.8687 27.3692C24.1077 26.6732 24.1047 25.8932 23.8187 25.1722C23.7617 25.0302 23.6947 24.8922 23.6187 24.7592Z" fill="white"></path>
<path d="M21.9518 28.2119L16.2728 31.4809C15.2378 32.0769 13.9168 31.7209 13.3218 30.6859L10.0518 25.0069C9.45685 23.9729 9.81285 22.6509 10.8468 22.0559L16.5258 18.7869C17.5608 18.1909 18.8818 18.5469 19.4778 19.5809L22.7468 25.2609C23.3418 26.2949 22.9868 27.6159 21.9518 28.2119Z" fill="#0F1523"></path>
<path d="M12.1668 23.6363C11.8378 23.8263 11.7238 24.2463 11.9138 24.5763L12.8388 26.1823L13.5078 22.8643L12.1668 23.6363Z" fill="#ECEDEF"></path>
<path d="M17.8262 20.3784L14.7912 22.1254C14.7652 22.2704 14.7392 22.4164 14.7132 22.5614C14.6482 22.9224 14.5832 23.2844 14.5182 23.6454C14.4352 24.1124 14.3512 24.5784 14.2672 25.0454C14.1842 25.5054 14.1022 25.9654 14.0192 26.4254C13.9572 26.7684 13.8962 27.1114 13.8342 27.4544C13.8142 27.5644 13.7742 27.6744 13.7872 27.7884C13.8012 27.9164 13.8942 28.0164 13.9562 28.1234L14.3462 28.8014C14.3922 28.8804 14.4372 28.9604 14.4832 29.0394C14.7532 29.5084 15.3522 29.6704 15.8222 29.4004L16.2502 29.1534L20.3782 26.7774C20.8472 26.5064 21.0092 25.9074 20.7392 25.4384L20.0632 24.2644L17.0222 26.0154C16.9452 26.0604 16.8682 26.1044 16.7902 26.1484C16.8072 26.0484 16.8262 25.9484 16.8442 25.8484L17.8262 20.3784Z" fill="#EB625C"></path>
<path d="M36.2448 13.6362C34.6908 14.2592 28.5608 13.8062 26.6948 13.5632L20.0798 12.6992C16.5048 12.2332 10.4278 12.9312 7.15182 14.7492C6.74782 14.6242 6.46382 14.2422 6.46682 13.8042L6.54282 3.2302C6.54682 2.7172 7.25882 2.2692 7.67682 2.0862C9.85982 1.1312 12.1938 0.700199 14.6258 0.821199C17.9128 0.985199 21.1438 1.5142 24.2158 2.6762L31.4088 5.3972C33.0958 6.0352 34.9208 6.3702 36.6918 6.4652C36.7948 6.4712 36.9958 6.6042 37.0288 6.6822C37.2368 7.1682 35.3638 8.9042 34.8948 9.3292C34.7568 9.4552 34.5938 9.8322 34.7068 10.0222L36.2058 12.5482C36.3488 12.7902 36.5988 13.4942 36.2448 13.6362Z" fill="#EB625C"></path>
<path d="M30.7814 8.37037C31.1014 8.48037 31.3594 8.34237 31.4414 7.98537C31.5244 7.62837 31.3574 7.32737 31.0274 7.19337C30.7004 7.06037 30.4384 7.20237 30.3674 7.58437C30.2954 7.96737 30.4644 8.26237 30.7814 8.37037ZM32.3644 6.48337C32.1644 7.16237 32.0774 7.49437 31.9094 8.16637C31.7594 8.76637 31.2364 8.98237 30.6824 8.80537C30.1134 8.62337 29.7884 8.07637 29.9004 7.42437C30.0114 6.76737 30.5124 6.49337 31.0894 6.74037C31.3754 6.86337 31.5594 7.05537 31.6254 7.21437C31.7194 6.83137 31.7684 6.64037 31.8734 6.25537C32.0694 6.34637 32.1674 6.39237 32.3644 6.48337Z" fill="white"></path>
<path d="M33.6921 8.53742C33.6601 8.34242 33.5031 8.18042 33.2571 8.08842C33.0141 7.99842 32.8021 8.02542 32.6681 8.16842C33.0711 8.32142 33.2751 8.39642 33.6921 8.53742ZM33.4571 9.08042C33.6711 9.14942 33.7791 9.18342 33.9981 9.24842C33.7461 9.54642 33.3131 9.65942 32.8351 9.50842C32.2231 9.31542 31.9231 8.79442 32.0701 8.22242C32.2161 7.65542 32.7391 7.45842 33.3831 7.70842C34.0271 7.95842 34.3481 8.44042 34.1701 8.95042C34.1541 8.99742 34.1351 9.03942 34.1161 9.08142C33.4571 8.88342 33.1421 8.77242 32.5211 8.54842C32.5041 8.81542 32.6611 9.02542 32.9441 9.11842C33.1441 9.18442 33.3211 9.16942 33.4571 9.08042Z" fill="white"></path>
<path d="M25.4845 10.7738C25.4445 11.1748 25.0865 11.3218 24.5875 11.2568C24.1235 11.1968 23.8345 10.9828 23.7075 10.8568C23.8425 10.7288 23.9095 10.6618 24.0395 10.5248C24.2105 10.7138 24.4375 10.8218 24.6505 10.8498C24.8295 10.8738 24.9675 10.8388 24.9785 10.7238C25.0125 10.3848 23.8015 10.4608 23.8635 9.62483C23.8945 9.20483 24.2175 9.00683 24.7065 9.09883C25.1355 9.17883 25.3975 9.40683 25.5715 9.59383C25.4535 9.74283 25.3935 9.81583 25.2745 9.96083C25.0645 9.73883 24.8445 9.63183 24.6665 9.60183C24.4975 9.57383 24.4015 9.61583 24.3955 9.70583C24.3725 10.0338 25.5575 10.0388 25.4845 10.7738Z" fill="white"></path>
<path d="M27.1409 10.9629C27.0839 11.3769 26.7529 11.5359 26.3169 11.4779C25.9109 11.4239 25.6589 11.2179 25.5449 11.0969C25.6649 10.9689 25.7249 10.9029 25.8429 10.7659C25.9959 10.9439 26.1959 11.0389 26.3849 11.0609C26.5439 11.0789 26.6699 11.0389 26.6839 10.9219C26.7279 10.5779 25.6279 10.7039 25.6859 9.91487C25.7159 9.51787 26.0229 9.31387 26.4829 9.35287C26.8859 9.38587 27.1229 9.59687 27.2769 9.77587C27.1609 9.92587 27.1019 10.0009 26.9859 10.1489C26.8009 9.93787 26.5989 9.85187 26.4339 9.83787C26.2769 9.82487 26.1859 9.87487 26.1789 9.96087C26.1519 10.2749 27.2459 10.2049 27.1409 10.9629Z" fill="white"></path>
<path d="M27.4903 9.50051C27.6763 9.52651 27.7683 9.54051 27.9503 9.56951C27.8443 10.4465 27.7903 10.8715 27.6473 11.6565C27.4763 11.6265 27.3893 11.6125 27.2153 11.5845C27.3463 10.8115 27.3953 10.3855 27.4903 9.50051ZM27.8243 8.58951C27.9693 8.61451 28.0663 8.77151 28.0483 8.93151C28.0283 9.10151 27.9023 9.21051 27.7603 9.18851C27.6173 9.16551 27.5163 9.01951 27.5343 8.84651C27.5503 8.68351 27.6793 8.56451 27.8243 8.58951Z" fill="white"></path>
<path d="M28.7775 11.4464C29.0705 11.5054 29.3095 11.3234 29.3835 10.9394C29.4575 10.5554 29.2995 10.2814 28.9955 10.2184C28.6935 10.1554 28.4585 10.3554 28.3965 10.7434C28.3335 11.1314 28.4875 11.3884 28.7775 11.4464ZM29.0725 9.75436C29.6415 9.87836 29.9375 10.3994 29.8065 11.0304C29.6755 11.6674 29.2235 12.0064 28.6905 11.8934C28.1565 11.7814 27.8645 11.3134 27.9605 10.6654C28.0555 10.0214 28.5025 9.62936 29.0725 9.75436Z" fill="white"></path>
<path d="M31.6528 11.3029C31.5268 11.7779 31.4618 12.0229 31.3178 12.5329C31.1498 12.4819 31.0668 12.4579 30.9008 12.4099C31.0358 11.9099 31.0978 11.6689 31.2158 11.1959C31.2868 10.9109 31.1288 10.7339 30.9188 10.6779C30.7098 10.6219 30.4958 10.7019 30.4318 10.9899C30.3248 11.4679 30.2688 11.7099 30.1458 12.2009C29.9818 12.1579 29.8998 12.1369 29.7368 12.0959C29.8548 11.6039 29.9078 11.3599 30.0098 10.8729C30.0838 10.5169 30.4158 10.0699 31.0188 10.2379C31.6228 10.4059 31.7448 10.9559 31.6528 11.3029Z" fill="white"></path>
<path d="M31.9595 12.0917C32.1195 12.1387 32.1945 12.2927 32.1395 12.4807C32.0825 12.6737 31.9365 12.7667 31.7795 12.7177C31.6225 12.6677 31.5535 12.5097 31.6065 12.3197C31.6595 12.1337 31.7995 12.0447 31.9595 12.0917Z" fill="white"></path>
<path d="M26.5921 4.32606C27.1591 4.40306 27.5431 4.73006 27.7681 5.17706C27.5771 5.26706 27.4811 5.31406 27.2891 5.41406C27.1341 5.12806 26.8871 4.93006 26.5301 4.88506C25.8781 4.80206 25.4711 5.15406 25.4201 5.90606C25.3691 6.65806 25.7071 7.26606 26.3301 7.31906C26.6711 7.34806 26.9331 7.23706 27.1311 7.01506C27.2901 7.17506 27.3691 7.25606 27.5231 7.41806C27.2251 7.74806 26.8221 7.91406 26.2921 7.87306C25.3601 7.80106 24.8091 6.84406 24.8831 5.75906C24.9561 4.67506 25.5951 4.19106 26.5921 4.32606Z" fill="white"></path>
<path d="M28.6318 7.71891C28.9618 7.80191 29.2068 7.62391 29.2678 7.21591C29.3288 6.80691 29.1498 6.48691 28.8098 6.38191C28.4738 6.27791 28.2138 6.47491 28.1628 6.90591C28.1128 7.33791 28.3058 7.63691 28.6318 7.71891ZM28.8868 5.88491C29.5208 6.09491 29.8468 6.70591 29.7388 7.36391C29.6288 8.02691 29.1748 8.35291 28.5738 8.21291C27.9728 8.07291 27.5958 7.52491 27.6718 6.79191C27.7478 6.06291 28.2528 5.67491 28.8868 5.88491Z" fill="white"></path>
<path d="M22.4814 4.72141C22.0944 4.59641 21.7994 4.80141 21.7614 5.30841C21.7244 5.81441 21.9724 6.19241 22.3614 6.30041C22.7474 6.40841 23.0094 6.18441 23.0454 5.69541C23.0804 5.20641 22.8644 4.84541 22.4814 4.72141ZM23.5034 7.06841C23.4634 7.75841 22.9974 8.13341 22.2944 7.98241C21.8234 7.88241 21.4494 7.57441 21.2164 7.15041C21.4164 7.03241 21.5164 6.97541 21.7134 6.86441C21.8314 7.07941 22.0154 7.31541 22.3354 7.39141C22.7214 7.48341 22.9444 7.27741 22.9654 6.91941C22.9694 6.85741 22.9714 6.82641 22.9754 6.76441C22.8564 6.89941 22.6174 6.97641 22.2774 6.89041C21.6014 6.71841 21.1134 6.00441 21.1734 5.14941C21.2324 4.29841 21.8244 3.93141 22.5324 4.16541C23.2444 4.40241 23.6314 5.06941 23.5764 5.87241C23.5444 6.34641 23.5304 6.58841 23.5034 7.06841Z" fill="white"></path>
<path d="M20.5728 8.70553C20.6038 8.23453 20.3458 7.87053 19.9148 7.82153C19.5478 7.77853 19.3618 7.76053 18.9818 7.73653C18.9768 8.40453 18.9738 8.73253 18.9528 9.32153C19.3058 9.33453 19.4828 9.34553 19.8348 9.37253C20.2478 9.40453 20.5428 9.16053 20.5728 8.70553ZM18.3018 7.01453C19.0078 7.03953 19.3438 7.07353 19.9958 7.16153C20.7828 7.26753 21.2398 7.96353 21.1808 8.76653C21.1188 9.59753 20.5728 9.98653 19.8418 9.93653C19.4748 9.91153 19.2908 9.90153 18.9268 9.89053C18.9068 10.2405 18.8948 10.4015 18.8608 10.6845C18.6348 10.6785 18.5238 10.6765 18.3048 10.6765C18.3848 9.61353 18.3488 8.71153 18.3018 7.01453Z" fill="white"></path>
<path d="M22.4565 9.21861C22.0655 9.15261 21.7825 9.39661 21.7365 9.82761C21.6905 10.2586 21.9195 10.5066 22.3165 10.5546C22.7085 10.6026 22.9935 10.4236 23.0345 10.0116C23.0745 9.59961 22.8435 9.28461 22.4565 9.21861ZM23.5835 10.0996C23.5435 10.5306 23.5205 10.7326 23.4655 11.0916C23.2445 11.0636 23.1315 11.0506 22.9065 11.0226C22.9185 10.9526 22.9235 10.9166 22.9345 10.8436C22.8055 10.9486 22.5485 11.0126 22.2015 10.9746C21.5115 10.8976 21.0895 10.4846 21.1655 9.75161C21.2415 9.02461 21.7795 8.52961 22.4935 8.66661C23.2125 8.80461 23.6455 9.42561 23.5835 10.0996Z" fill="white"></path>
<path d="M12.0492 8.82418C12.3092 8.77718 12.4392 8.75518 12.6982 8.71118C12.7912 9.93418 12.8352 10.5442 12.9082 11.4652C12.6332 11.5282 12.4942 11.5612 12.2172 11.6282C12.1552 10.6762 12.1212 10.0582 12.0492 8.82418ZM12.2842 7.45618C12.4772 7.42418 12.6432 7.58618 12.6612 7.81018C12.6792 8.04618 12.5392 8.25118 12.3412 8.28518C12.1432 8.31818 11.9782 8.16518 11.9632 7.92718C11.9502 7.70218 12.0912 7.48818 12.2842 7.45618Z" fill="white"></path>
<path d="M14.6256 11.1234C13.7436 11.2994 13.1996 11.0764 13.1296 10.2334C13.0446 9.20535 12.9946 8.59335 12.8936 7.42735C13.1436 7.38835 13.2676 7.36935 13.5136 7.33435C13.5656 7.82935 13.5906 8.07835 13.6386 8.56135C13.8796 8.52535 13.9996 8.50835 14.2346 8.47635C14.2656 8.73935 14.2796 8.86935 14.3086 9.12335C14.0706 9.15735 13.9486 9.17635 13.7046 9.21435C13.7416 9.58535 13.7586 9.76535 13.7926 10.1074C13.8406 10.5964 14.0676 10.7214 14.5706 10.6324C14.5946 10.8404 14.6056 10.9394 14.6256 11.1234Z" fill="white"></path>
<path d="M15.1618 8.57279C15.2848 8.39879 15.4708 8.27679 15.7338 8.25479C16.4328 8.19779 16.7888 8.92479 16.8488 9.38079C16.9298 10.0038 16.9648 10.2888 17.0098 10.7278C16.8178 10.7438 16.7168 10.7548 16.5048 10.7808C16.4528 10.3328 16.4158 10.0478 16.3318 9.42579C16.2818 9.05178 16.0218 8.87979 15.7468 8.90479C15.4708 8.92979 15.2368 9.14979 15.2858 9.53179C15.3678 10.1678 15.4038 10.4618 15.4608 10.9378C15.2198 10.9798 15.0948 11.0028 14.8408 11.0518C14.7078 9.88379 14.5968 8.94179 14.3848 7.22079C14.6238 7.19179 14.7418 7.17879 14.9738 7.15479C15.0508 7.73179 15.0898 8.02179 15.1618 8.57279Z" fill="white"></path>
<path d="M7.78662 9.70003C8.01962 9.64703 8.14062 9.62003 8.38662 9.56603C8.60062 10.388 8.71462 10.805 8.96662 11.549C9.21562 10.681 9.34862 10.22 9.60162 9.30303C9.86762 9.24703 10.0036 9.21903 10.2766 9.16403C10.2006 9.42803 10.1626 9.55903 10.0866 9.82003C10.2756 10.383 10.3746 10.659 10.5806 11.162C10.8316 10.329 10.9576 9.88003 11.1906 8.98403C11.4686 8.93003 11.6086 8.90403 11.8886 8.85303C11.5456 10.164 11.3486 10.823 10.9586 11.942C10.6756 12.015 10.5356 12.052 10.2586 12.125C10.0476 11.69 9.94562 11.443 9.75262 10.926C9.56962 11.53 9.47662 11.825 9.30062 12.382C9.03762 12.454 8.90862 12.49 8.65962 12.559C8.26062 11.555 8.09262 10.917 7.78662 9.70003Z" fill="white"></path>
<path d="M20.9655 4.83574C20.9185 5.48774 20.9005 5.83474 20.8635 6.51974C20.6245 6.47274 20.5015 6.44974 20.2535 6.40874C20.2835 5.71874 20.2975 5.36974 20.3375 4.71574C20.3615 4.32274 20.0945 4.09974 19.7635 4.04774C19.4325 3.99474 19.1115 4.12574 19.1015 4.52474C19.0845 5.18774 19.0825 5.54574 19.0775 6.25374C18.8115 6.22874 18.6765 6.21874 18.4005 6.20374C18.3845 5.48074 18.3765 5.11574 18.3735 4.44374C18.3705 3.95274 18.8465 3.32374 19.8035 3.47474C20.7605 3.62474 20.9995 4.35974 20.9655 4.83574Z" fill="white"></path>
<path d="M17.1706 3.34005C17.5196 3.33505 17.6886 3.33705 18.0136 3.34905C18.0096 4.34105 18.0366 4.97205 18.0816 6.19005C17.8006 6.18105 17.6566 6.17905 17.3636 6.18205C17.2676 4.95605 17.2156 4.32205 17.1706 3.34005ZM17.6026 2.40505C17.8776 2.40305 18.0756 2.52405 18.0696 2.67805C18.0626 2.84105 17.8606 2.96905 17.5956 2.96805C17.3296 2.96605 17.1056 2.83905 17.1026 2.68005C17.0996 2.53005 17.3266 2.40805 17.6026 2.40505Z" fill="white"></path>
<path d="M17.1036 6.2308C16.0886 6.2598 15.7326 5.7638 15.6056 4.8798C15.4506 3.7988 15.3776 3.2868 15.2886 2.6008C15.5106 2.5768 15.6216 2.5658 15.8426 2.5448C15.8736 2.8388 15.8956 3.0148 15.9446 3.3998C16.1486 3.3828 16.3836 3.3658 16.7266 3.3518C16.7426 3.5668 16.7526 3.6798 16.7726 3.9138C16.4416 3.9258 16.2186 3.9408 16.0176 3.9548C16.0626 4.2908 16.0866 4.4698 16.1376 4.8378C16.2116 5.3638 16.4316 5.5748 17.0406 5.5598C17.0646 5.8258 17.0776 5.9608 17.1036 6.2308Z" fill="white"></path>
<path d="M11.2723 4.01318C11.2883 4.21618 11.2963 4.32318 11.3123 4.54818C10.9293 4.62018 10.7133 4.85818 10.7323 5.30018C10.7593 5.91818 10.7703 6.25818 10.7913 6.94918C10.5483 6.99518 10.4273 7.01918 10.1873 7.06618C10.1773 6.37418 10.1713 6.03518 10.1543 5.41718C10.1303 4.57818 10.5563 4.15118 11.2723 4.01318Z" fill="white"></path>
<path d="M12.5798 4.33425C12.1788 4.40025 11.9388 4.72025 11.9798 5.24325C12.0198 5.76625 12.3208 6.05525 12.7408 5.99025C13.1558 5.92525 13.3908 5.55125 13.3308 5.02825C13.2708 4.50525 12.9768 4.26925 12.5798 4.33425ZM13.9098 4.95525C13.9808 5.51425 14.0178 5.81425 14.0908 6.41925C13.8538 6.44925 13.7338 6.46525 13.4928 6.49825C13.4808 6.38125 13.4748 6.32325 13.4618 6.20725C13.3628 6.41125 13.1218 6.60625 12.7498 6.66425C12.0108 6.77925 11.4438 6.21325 11.3918 5.34225C11.3398 4.47725 11.7908 3.91925 12.5168 3.79825C13.2478 3.67625 13.7988 4.08125 13.9098 4.95525Z" fill="white"></path>
<path d="M15.1742 3.02648C14.7982 3.06648 14.6332 3.19848 14.6392 3.52848C14.8472 3.50448 14.9512 3.49348 15.1582 3.47148C15.1872 3.68048 15.2032 3.79148 15.2352 4.02048C15.0282 4.04048 14.9232 4.05148 14.7122 4.07548C14.8272 4.88548 14.8942 5.36448 15.0252 6.31548C14.7972 6.33748 14.6812 6.35048 14.4482 6.37648C14.3252 5.42548 14.2632 4.94848 14.1532 4.14148C14.0592 4.15348 14.0122 4.15948 13.9182 4.17248C13.8882 3.94548 13.8732 3.83548 13.8442 3.62948C13.9402 3.61648 13.9872 3.61048 14.0822 3.59748C14.0442 2.95748 14.4082 2.67348 15.1152 2.59448C15.1362 2.75248 15.1482 2.83948 15.1742 3.02648Z" fill="white"></path>
<path d="M8.55432 3.78204C9.11732 3.63604 9.56732 3.68804 9.88332 3.95804C9.70232 4.11904 9.61132 4.20204 9.42832 4.37304C9.22432 4.18104 8.94332 4.12704 8.58532 4.21804C7.93232 4.38304 7.59232 4.85304 7.59332 5.63704C7.59432 6.42104 7.93332 6.93104 8.60232 6.78004C8.97032 6.69804 9.26032 6.45304 9.46032 6.10904C9.65532 6.22904 9.75532 6.29104 9.95632 6.41704C9.64932 6.95904 9.17332 7.35304 8.59032 7.48204C7.56532 7.70704 7.06432 6.89204 7.05532 5.77904C7.04532 4.66704 7.56532 4.03704 8.55432 3.78204Z" fill="white"></path>
</svg>