<svg width="206" height="48" viewBox="0 0 206 48" fill="none" xmlns="http://www.w3.org/2000/svg">
<path d="M59.157 30.5686V9.4062H62.936V27.0919H73.1544V30.5686H59.157ZM81.5603 15.241C86.2462 15.241 89.3904 18.3851 89.3904 23.0711V30.5686H85.7625V29.1175C85.037 30.0547 83.4951 30.8407 81.2882 30.8407C76.9046 30.8407 73.7604 27.6966 73.7604 23.0106C73.7604 18.3549 76.9046 15.241 81.5603 15.241ZM85.7625 23.0408C85.7625 20.2293 84.0998 18.5665 81.5905 18.5665C79.051 18.5665 77.3883 20.2293 77.3883 23.0408C77.3883 25.8524 79.051 27.5152 81.5905 27.5152C84.0998 27.5152 85.7625 25.8524 85.7625 23.0408ZM106.366 23.0408V29.964C106.366 33.9546 103.373 36.7964 98.8084 36.7964C95.7549 36.7964 93.3061 35.4964 91.7341 33.5011L94.6968 31.4151C95.5131 32.4128 96.7526 33.4709 98.8386 33.4709C101.348 33.4709 102.739 31.9895 102.739 29.964V29.0872C102.013 30.0244 100.471 30.8105 98.2642 30.8105C93.8805 30.8105 90.7364 27.6663 90.7364 22.9804C90.7364 18.3246 93.8805 15.2107 98.5363 15.2107C103.222 15.2107 106.366 18.3549 106.366 23.0408ZM102.739 23.0106C102.739 20.199 101.076 18.5363 98.5665 18.5363C96.027 18.5363 94.3642 20.199 94.3642 23.0106C94.3642 25.8222 96.027 27.4849 98.5665 27.4849C101.076 27.4849 102.739 25.8222 102.739 23.0106ZM107.595 23.0106C107.595 18.3549 110.739 15.241 115.425 15.241C120.111 15.241 123.225 18.3549 123.225 23.0106C123.225 27.6966 120.111 30.8407 115.425 30.8407C110.739 30.8407 107.595 27.6966 107.595 23.0106ZM111.223 23.0408C111.223 25.8524 112.886 27.5152 115.395 27.5152C117.934 27.5152 119.597 25.8524 119.597 23.0408C119.597 20.2293 117.934 18.5665 115.395 18.5665C112.886 18.5665 111.223 20.2293 111.223 23.0408ZM124.61 22.1036C124.61 17.5084 127.513 15.1805 132.108 15.1805V18.506C129.689 18.506 128.238 19.6851 128.238 22.1036V30.5686H124.61V22.1036ZM133.316 11.069C133.316 9.98061 134.192 9.07365 135.311 9.07365C136.429 9.07365 137.306 9.98061 137.306 11.069C137.306 12.2178 136.429 13.0945 135.311 13.0945C134.192 13.0945 133.316 12.2178 133.316 11.069ZM133.497 30.5686V15.4526H137.125V30.5686H133.497ZM146.4 27.4547V30.7802C141.442 30.7802 138.812 28.271 138.812 23.6152V9.4062H142.44V15.4526H145.886V18.7781H142.44V23.585C142.44 26.3361 143.558 27.4547 146.4 27.4547ZM151.267 9.4062V16.5107C152.143 15.6945 153.383 15.1805 155.076 15.1805C159.58 15.1805 161.545 18.9293 161.545 21.5595V30.5686H157.918V21.6502C157.918 19.5037 156.346 18.5363 154.592 18.5363C152.839 18.5363 151.267 19.5037 151.267 21.6502V30.5686H147.639V9.4062H151.267Z" fill="#0E1524"></path>
<path d="M170.299 15.1805C172.929 15.1805 174.501 16.2386 175.438 17.5991C176.375 16.2386 177.947 15.1805 180.577 15.1805C185.566 15.1805 187.531 18.9293 187.531 21.5595V30.5686H183.903V21.6502C183.903 19.5037 182.331 18.5363 180.577 18.5363C178.824 18.5363 177.252 19.5037 177.252 21.6502V30.5686H173.624V21.6502C173.624 19.5037 172.052 18.5363 170.299 18.5363C168.545 18.5363 166.973 19.5037 166.973 21.6502V30.5686H163.345V21.5595C163.345 18.9293 165.31 15.1805 170.299 15.1805ZM192.953 20.8944H200.541C199.906 19.413 198.546 18.5665 196.732 18.5665C194.948 18.5665 193.588 19.413 192.953 20.8944ZM196.732 27.5152C198.244 27.5152 199.423 26.9408 200.148 25.8826H204.109C203.111 28.9361 200.42 30.8407 196.762 30.8407C192.076 30.8407 188.932 27.6966 188.932 23.0106C188.932 18.3549 192.076 15.241 196.762 15.241C201.448 15.241 204.562 18.3549 204.562 23.0106C204.562 23.4339 204.532 23.8269 204.502 24.2199H192.681C193.074 26.3059 194.585 27.5152 196.732 27.5152Z" fill="#FF5555"></path>
<path d="M38.1 47.549H9.45C4.232 47.549 0 43.318 0 38.099V9.45C0 4.231 4.232 0 9.45 0H38.1C43.319 0 47.55 4.231 47.55 9.45V38.099C47.55 43.318 43.319 47.549 38.1 47.549Z" fill="#0E1524"></path>
<path d="M39.5541 8.86816H24.2451C23.8291 9.36216 23.4131 9.85616 22.9971 10.3502C21.9631 11.5782 20.9281 12.8062 19.8941 14.0342C18.5591 15.6182 17.2241 17.2032 15.8891 18.7882C14.5721 20.3512 13.2551 21.9152 11.9381 23.4782C10.9571 24.6432 9.97606 25.8082 8.99506 26.9722C8.67906 27.3472 8.28706 27.6772 8.08606 28.1342C7.85906 28.6522 7.99606 29.2322 7.99606 29.7762V33.1932V34.3952C7.99606 36.7622 9.91406 38.6802 12.2811 38.6802H14.4421H35.2691C37.6351 38.6802 39.5541 36.7622 39.5541 34.3952V28.4742H24.2121C23.8221 28.4742 23.4331 28.4752 23.0431 28.4732C23.3251 28.1292 23.6151 27.7912 23.9011 27.4502L39.5541 8.86816Z" fill="#FF5555"></path>
<path d="M11.0041 8.86816C9.34309 8.86816 7.99609 10.2152 7.99609 11.8762V19.9802L17.7691 8.86816H11.0041Z" fill="#A9A9A9"></path>
</svg>