<svg width="88" height="63" viewBox="0 0 88 63" fill="none" xmlns="http://www.w3.org/2000/svg">
<path d="M67.3076 61.541H69.3536V61.306H67.3076V61.541Z" fill="white"></path>
<path d="M68.2139 62.446H68.4469V60.3999H68.2139V62.446Z" fill="white"></path>
<path d="M67.3076 61.059H69.3536V60.825H67.3076V61.059Z" fill="white"></path>
<path d="M68.2139 61.9649H68.4469V59.9189H68.2139V61.9649Z" fill="white"></path>
<path d="M67.3076 61.285H69.3536V61.0509H67.3076V61.285Z" fill="white"></path>
<path d="M68.2139 62.192H68.4469V60.146H68.2139V62.192Z" fill="white"></path>
<path d="M56.8604 61.541H58.9064V61.306H56.8604V61.541Z" fill="white"></path>
<path d="M57.7666 62.446H58.0006V60.3999H57.7666V62.446Z" fill="white"></path>
<path d="M56.8604 61.059H58.9064V60.825H56.8604V61.059Z" fill="white"></path>
<path d="M57.7666 61.9649H58.0006V59.9189H57.7666V61.9649Z" fill="white"></path>
<path d="M56.8604 61.285H58.9064V61.0509H56.8604V61.285Z" fill="white"></path>
<path d="M57.7666 62.192H58.0006V60.146H57.7666V62.192Z" fill="white"></path>
<path d="M46.4131 61.541H48.4591V61.306H46.4131V61.541Z" fill="white"></path>
<path d="M47.3193 62.446H47.5523V60.3999H47.3193V62.446Z" fill="white"></path>
<path d="M46.4131 61.059H48.4591V60.825H46.4131V61.059Z" fill="white"></path>
<path d="M47.3193 61.9649H47.5523V59.9189H47.3193V61.9649Z" fill="white"></path>
<path d="M46.4131 61.285H48.4591V61.0509H46.4131V61.285Z" fill="white"></path>
<path d="M47.3193 62.192H47.5523V60.146H47.3193V62.192Z" fill="white"></path>
<path d="M35.9658 61.541H38.0108V61.306H35.9658V61.541Z" fill="white"></path>
<path d="M36.8721 62.446H37.1061V60.3999H36.8721V62.446Z" fill="white"></path>
<path d="M35.9658 61.059H38.0108V60.825H35.9658V61.059Z" fill="white"></path>
<path d="M36.8721 61.9649H37.1061V59.9189H36.8721V61.9649Z" fill="white"></path>
<path d="M35.9658 61.285H38.0108V61.0509H35.9658V61.285Z" fill="white"></path>
<path d="M36.8721 62.192H37.1061V60.146H36.8721V62.192Z" fill="white"></path>
<path d="M25.5186 61.541H27.5656V61.306H25.5186V61.541Z" fill="white"></path>
<path d="M26.4248 62.446H26.6588V60.3999H26.4248V62.446Z" fill="white"></path>
<path d="M25.5186 61.059H27.5656V60.825H25.5186V61.059Z" fill="white"></path>
<path d="M26.4248 61.9649H26.6588V59.9189H26.4248V61.9649Z" fill="white"></path>
<path d="M25.5186 61.285H27.5656V61.0509H25.5186V61.285Z" fill="white"></path>
<path d="M26.4248 62.192H26.6588V60.146H26.4248V62.192Z" fill="white"></path>
<path d="M67.3076 51.093H69.3536V50.859H67.3076V51.093Z" fill="white"></path>
<path d="M68.2139 51.999H68.4469V49.953H68.2139V51.999Z" fill="white"></path>
<path d="M67.3076 50.6121H69.3536V50.3781H67.3076V50.6121Z" fill="white"></path>
<path d="M68.2139 51.518H68.4469V49.472H68.2139V51.518Z" fill="white"></path>
<path d="M67.3076 50.838H69.3536V50.605H67.3076V50.838Z" fill="white"></path>
<path d="M68.2139 51.745H68.4469V49.699H68.2139V51.745Z" fill="white"></path>
<path d="M56.8604 51.093H58.9064V50.859H56.8604V51.093Z" fill="white"></path>
<path d="M57.7666 51.999H58.0006V49.953H57.7666V51.999Z" fill="white"></path>
<path d="M56.8604 50.6121H58.9064V50.3781H56.8604V50.6121Z" fill="white"></path>
<path d="M57.7666 51.518H58.0006V49.472H57.7666V51.518Z" fill="white"></path>
<path d="M56.8604 50.838H58.9064V50.605H56.8604V50.838Z" fill="white"></path>
<path d="M57.7666 51.745H58.0006V49.699H57.7666V51.745Z" fill="white"></path>
<path d="M46.4131 51.093H48.4591V50.859H46.4131V51.093Z" fill="white"></path>
<path d="M47.3193 51.999H47.5523V49.953H47.3193V51.999Z" fill="white"></path>
<path d="M46.4131 50.6121H48.4591V50.3781H46.4131V50.6121Z" fill="white"></path>
<path d="M47.3193 51.518H47.5523V49.472H47.3193V51.518Z" fill="white"></path>
<path d="M46.4131 50.838H48.4591V50.605H46.4131V50.838Z" fill="white"></path>
<path d="M47.3193 51.745H47.5523V49.699H47.3193V51.745Z" fill="white"></path>
<path d="M56.8604 40.646H58.9064V40.413H56.8604V40.646Z" fill="white"></path>
<path d="M57.7666 41.552H58.0006V39.506H57.7666V41.552Z" fill="white"></path>
<path d="M56.8604 40.164H58.9064V39.931H56.8604V40.164Z" fill="white"></path>
<path d="M57.7666 41.071H58.0006V39.0249H57.7666V41.071Z" fill="white"></path>
<path d="M56.8604 40.391H58.9064V40.157H56.8604V40.391Z" fill="white"></path>
<path d="M57.7666 41.297H58.0006V39.251H57.7666V41.297Z" fill="white"></path>
<path d="M46.4131 40.646H48.4591V40.413H46.4131V40.646Z" fill="white"></path>
<path d="M47.3193 41.552H47.5523V39.506H47.3193V41.552Z" fill="white"></path>
<path d="M46.4131 40.164H48.4591V39.931H46.4131V40.164Z" fill="white"></path>
<path d="M47.3193 41.071H47.5523V39.0249H47.3193V41.071Z" fill="white"></path>
<path d="M46.4131 40.391H48.4591V40.157H46.4131V40.391Z" fill="white"></path>
<path d="M47.3193 41.297H47.5523V39.251H47.3193V41.297Z" fill="white"></path>
<path d="M56.8604 30.199H58.9064V29.965H56.8604V30.199Z" fill="white"></path>
<path d="M57.7666 31.1061H58.0006V29.0601H57.7666V31.1061Z" fill="white"></path>
<path d="M56.8604 29.717H58.9064V29.484H56.8604V29.717Z" fill="white"></path>
<path d="M57.7666 30.623H58.0006V28.5769H57.7666V30.623Z" fill="white"></path>
<path d="M56.8604 29.9441H58.9064V29.7111H56.8604V29.9441Z" fill="white"></path>
<path d="M57.7666 30.85H58.0006V28.804H57.7666V30.85Z" fill="white"></path>
<path d="M87.5001 13.5875H63.4961V40.8805L87.5001 13.5875Z" fill="#A9A9A9"></path>
<path d="M67.3076 40.646H69.3536V40.413H67.3076V40.646Z" fill="white"></path>
<path d="M68.2139 41.552H68.4469V39.506H68.2139V41.552Z" fill="white"></path>
<path d="M67.3076 40.164H69.3536V39.931H67.3076V40.164Z" fill="white"></path>
<path d="M68.2139 41.071H68.4469V39.0249H68.2139V41.071Z" fill="white"></path>
<path d="M67.3076 40.391H69.3536V40.157H67.3076V40.391Z" fill="white"></path>
<path d="M68.2139 41.297H68.4469V39.251H68.2139V41.297Z" fill="white"></path>
<path d="M67.3076 30.199H69.3536V29.965H67.3076V30.199Z" fill="white"></path>
<path d="M68.2139 31.1061H68.4469V29.0601H68.2139V31.1061Z" fill="white"></path>
<path d="M67.3076 29.717H69.3536V29.484H67.3076V29.717Z" fill="white"></path>
<path d="M68.2139 30.623H68.4469V28.5769H68.2139V30.623Z" fill="white"></path>
<path d="M67.3076 29.9441H69.3536V29.7111H67.3076V29.9441Z" fill="white"></path>
<path d="M68.2139 30.85H68.4469V28.804H68.2139V30.85Z" fill="white"></path>
<path d="M67.3076 19.7519H69.3536V19.5179H67.3076V19.7519Z" fill="white"></path>
<path d="M68.2139 20.6591H68.4469V18.6121H68.2139V20.6591Z" fill="white"></path>
<path d="M67.3076 19.271H69.3536V19.037H67.3076V19.271Z" fill="white"></path>
<path d="M68.2139 20.176H68.4469V18.13H68.2139V20.176Z" fill="white"></path>
<path d="M67.3076 19.498H69.3536V19.264H67.3076V19.498Z" fill="white"></path>
<path d="M68.2139 20.4031H68.4469V18.3571H68.2139V20.4031Z" fill="white"></path>
<path d="M47.3193 31.1061H47.5523V29.0601H47.3193V31.1061Z" fill="white"></path>
<path d="M46.4131 30.199H48.4591V29.965H46.4131V30.199Z" fill="white"></path>
<path d="M46.4131 30.199H48.4591V29.965H46.4131V30.199Z" fill="white"></path>
<path d="M47.3193 31.1061H47.5523V29.0601H47.3193V31.1061Z" fill="white"></path>
<path d="M47.3193 30.623H47.5523V28.5769H47.3193V30.623Z" fill="white"></path>
<path d="M46.4131 29.717H48.4591V29.484H46.4131V29.717Z" fill="white"></path>
<path d="M46.4131 29.717H48.4591V29.484H46.4131V29.717Z" fill="white"></path>
<path d="M47.3193 30.623H47.5523V28.5769H47.3193V30.623Z" fill="white"></path>
<path d="M47.3193 30.85H47.5523V28.804H47.3193V30.85Z" fill="white"></path>
<path d="M46.4131 29.9441H48.4591V29.7111H46.4131V29.9441Z" fill="white"></path>
<path d="M46.4131 29.9441H48.4591V29.7111H46.4131V29.9441Z" fill="white"></path>
<path d="M47.3193 30.85H47.5523V28.804H47.3193V30.85Z" fill="white"></path>
<path d="M56.8604 19.7519H58.9064V19.5179H56.8604V19.7519Z" fill="white"></path>
<path d="M57.7666 20.6591H58.0006V18.6121H57.7666V20.6591Z" fill="white"></path>
<path d="M56.8604 19.271H58.9064V19.037H56.8604V19.271Z" fill="white"></path>
<path d="M57.7666 20.176H58.0006V18.13H57.7666V20.176Z" fill="white"></path>
<path d="M56.8604 19.498H58.9064V19.264H56.8604V19.498Z" fill="white"></path>
<path d="M57.7666 20.4031H58.0006V18.3571H57.7666V20.4031Z" fill="white"></path>
<path d="M47.3193 20.6591H47.5523V18.6121H47.3193V20.6591Z" fill="white"></path>
<path d="M46.4131 19.7519H48.4591V19.5179H46.4131V19.7519Z" fill="white"></path>
<path d="M46.4131 19.7519H48.4591V19.5179H46.4131V19.7519Z" fill="white"></path>
<path d="M47.3193 20.6591H47.5523V18.6121H47.3193V20.6591Z" fill="white"></path>
<path d="M47.3193 20.176H47.5523V18.13H47.3193V20.176Z" fill="white"></path>
<path d="M46.4131 19.271H48.4591V19.037H46.4131V19.271Z" fill="white"></path>
<path d="M46.4131 19.271H48.4591V19.037H46.4131V19.271Z" fill="white"></path>
<path d="M47.3193 20.176H47.5523V18.13H47.3193V20.176Z" fill="white"></path>
<path d="M47.3193 20.4031H47.5523V18.3571H47.3193V20.4031Z" fill="white"></path>
<path d="M46.4131 19.498H48.4591V19.264H46.4131V19.498Z" fill="white"></path>
<path d="M46.4131 19.498H48.4591V19.264H46.4131V19.498Z" fill="white"></path>
<path d="M47.3193 20.4031H47.5523V18.3571H47.3193V20.4031Z" fill="white"></path>
<path d="M35.9658 40.646H38.0108V40.413H35.9658V40.646Z" fill="white"></path>
<path d="M36.8721 41.552H37.1061V39.506H36.8721V41.552Z" fill="white"></path>
<path d="M35.9658 40.164H38.0108V39.931H35.9658V40.164Z" fill="white"></path>
<path d="M36.8721 41.071H37.1061V39.0249H36.8721V41.071Z" fill="white"></path>
<path d="M35.9658 40.391H38.0108V40.157H35.9658V40.391Z" fill="white"></path>
<path d="M36.8721 41.297H37.1061V39.251H36.8721V41.297Z" fill="white"></path>
<path d="M25.5186 40.646H27.5656V40.413H25.5186V40.646Z" fill="white"></path>
<path d="M26.4248 41.552H26.6588V39.506H26.4248V41.552Z" fill="white"></path>
<path d="M25.5186 40.164H27.5656V39.931H25.5186V40.164Z" fill="white"></path>
<path d="M26.4248 41.071H26.6588V39.0249H26.4248V41.071Z" fill="white"></path>
<path d="M25.5186 40.391H27.5656V40.157H25.5186V40.391Z" fill="white"></path>
<path d="M26.4248 41.297H26.6588V39.251H26.4248V41.297Z" fill="white"></path>
<path d="M35.9658 51.093H38.0108V50.859H35.9658V51.093Z" fill="white"></path>
<path d="M36.8721 51.999H37.1061V49.953H36.8721V51.999Z" fill="white"></path>
<path d="M35.9658 50.6121H38.0108V50.3781H35.9658V50.6121Z" fill="white"></path>
<path d="M36.8721 51.518H37.1061V49.472H36.8721V51.518Z" fill="white"></path>
<path d="M35.9658 50.838H38.0108V50.605H35.9658V50.838Z" fill="white"></path>
<path d="M36.8721 51.745H37.1061V49.699H36.8721V51.745Z" fill="white"></path>
<path d="M25.5186 51.093H27.5656V50.859H25.5186V51.093Z" fill="white"></path>
<path d="M26.4248 51.999H26.6588V49.953H26.4248V51.999Z" fill="white"></path>
<path d="M25.5186 50.6121H27.5656V50.3781H25.5186V50.6121Z" fill="white"></path>
<path d="M26.4248 51.518H26.6588V49.472H26.4248V51.518Z" fill="white"></path>
<path d="M25.5186 50.838H27.5656V50.605H25.5186V50.838Z" fill="white"></path>
<path d="M26.4248 51.745H26.6588V49.699H26.4248V51.745Z" fill="white"></path>
<path d="M35.9658 30.199H38.0108V29.965H35.9658V30.199Z" fill="white"></path>
<path d="M36.8721 31.1061H37.1061V29.0601H36.8721V31.1061Z" fill="white"></path>
<path d="M35.9658 29.717H38.0108V29.484H35.9658V29.717Z" fill="white"></path>
<path d="M36.8721 30.623H37.1061V28.5769H36.8721V30.623Z" fill="white"></path>
<path d="M35.9658 29.9441H38.0108V29.7111H35.9658V29.9441Z" fill="white"></path>
<path d="M36.8721 30.85H37.1061V28.804H36.8721V30.85Z" fill="white"></path>
<path d="M25.5186 30.199H27.5656V29.965H25.5186V30.199Z" fill="white"></path>
<path d="M26.4248 31.1061H26.6588V29.0601H26.4248V31.1061Z" fill="white"></path>
<path d="M25.5186 29.717H27.5656V29.484H25.5186V29.717Z" fill="white"></path>
<path d="M26.4248 30.623H26.6588V28.5769H26.4248V30.623Z" fill="white"></path>
<path d="M25.5186 29.9441H27.5656V29.7111H25.5186V29.9441Z" fill="white"></path>
<path d="M26.4248 30.85H26.6588V28.804H26.4248V30.85Z" fill="white"></path>
<path d="M35.9658 19.7519H38.0108V19.5179H35.9658V19.7519Z" fill="white"></path>
<path d="M36.8721 20.6591H37.1061V18.6121H36.8721V20.6591Z" fill="white"></path>
<path d="M35.9658 19.271H38.0108V19.037H35.9658V19.271Z" fill="white"></path>
<path d="M36.8721 20.176H37.1061V18.13H36.8721V20.176Z" fill="white"></path>
<path d="M35.9658 19.498H38.0108V19.264H35.9658V19.498Z" fill="white"></path>
<path d="M36.8721 20.4031H37.1061V18.3571H36.8721V20.4031Z" fill="white"></path>
<path d="M25.5186 19.7519H27.5656V19.5179H25.5186V19.7519Z" fill="white"></path>
<path d="M26.4248 20.6591H26.6588V18.6121H26.4248V20.6591Z" fill="white"></path>
<path d="M25.5186 19.271H27.5656V19.037H25.5186V19.271Z" fill="white"></path>
<path d="M26.4248 20.176H26.6588V18.13H26.4248V20.176Z" fill="white"></path>
<path d="M25.5186 19.498H27.5656V19.264H25.5186V19.498Z" fill="white"></path>
<path d="M26.4248 20.4031H26.6588V18.3571H26.4248V20.4031Z" fill="white"></path>
<path d="M0 50.0535L5.515 55.5685H9.576L0 45.9935V50.0535Z" fill="#1F3143"></path>
<path d="M0 34.1819L21.387 55.5689H25.447L0 30.1199V34.1819Z" fill="#1F3143"></path>
<path d="M0 14.249V18.309L37.259 55.569H41.318L0 14.249Z" fill="#1F3143"></path>
<path d="M0 0.0648193V2.43682L41.345 43.7808V39.7228L1.687 0.0648193H0Z" fill="#1F3143"></path>
<path d="M13.5 0.0648193L41.345 27.9098V23.8508L17.56 0.0648193H13.5Z" fill="#1F3143"></path>
<path d="M29.3721 0.0648193L41.3451 12.0378V7.97882L33.4311 0.0648193H29.3721Z" fill="#1F3143"></path>
<path d="M0 0V0.065H1.687L1.623 0H0Z" fill="#1F3143"></path>
</svg>