<svg width="205" height="26" viewBox="0 0 205 26" fill="none" xmlns="http://www.w3.org/2000/svg">
<path d="M196.654 25.1568H201.056L204.579 21.6338V17.2328L196.654 25.1568Z" fill="#0E1524"></path>
<path d="M179.451 25.1568H183.851L204.58 4.42879V0.0297852L179.451 25.1568Z" fill="#0E1524"></path>
<path d="M187.402 0L162.245 25.157H166.645L191.801 0H187.402Z" fill="#0E1524"></path>
<path d="M170.199 0L145.042 25.157H149.442L174.599 0H170.199Z" fill="#0E1524"></path>
<path d="M152.995 0L127.838 25.157H132.237L157.394 0H152.995Z" fill="#0E1524"></path>
<path d="M135.789 0L110.632 25.157H115.034L140.19 0H135.789Z" fill="#0E1524"></path>
<path d="M118.585 0L93.4287 25.157H97.8287L122.986 0H118.585Z" fill="#0E1524"></path>
<path d="M101.381 0L76.2236 25.157H80.6246L105.781 0H101.381Z" fill="#0E1524"></path>
<path d="M84.1765 0L59.0205 25.157H63.4175L88.5745 0H84.1765Z" fill="#0E1524"></path>
<path d="M66.9724 0L41.8164 25.157H46.2134L71.3704 0H66.9724Z" fill="#0E1524"></path>
<path d="M49.7673 0L24.6113 25.157H29.0093L54.1653 0H49.7673Z" fill="#0E1524"></path>
<path d="M32.5623 0L7.40527 25.157H11.8053L36.9623 0H32.5623Z" fill="#0E1524"></path>
<path d="M0 15.3595V19.7565L19.757 0.000488281H15.359L0 15.3595Z" fill="#0E1524"></path>
<path d="M0 2.55324L2.553 0.000244141H0V2.55324Z" fill="#0E1524"></path>
</svg>