<svg width="51" height="58" viewBox="0 0 51 58" fill="none" xmlns="http://www.w3.org/2000/svg">
<path d="M46.7998 57.1993H47.0539V54.9813H46.7998V57.1993Z" fill="#0E1524"></path>
<path d="M45.8184 56.2163H48.0353V55.9633H45.8184V56.2163Z" fill="#0E1524"></path>
<path d="M46.2783 57.1993H46.5323V54.9813H46.2783V57.1993Z" fill="#0E1524"></path>
<path d="M45.2959 56.2163H47.5129V55.9633H45.2959V56.2163Z" fill="#0E1524"></path>
<path d="M46.5244 57.1993H46.7774V54.9813H46.5244V57.1993Z" fill="#0E1524"></path>
<path d="M45.542 56.2163H47.76V55.9633H45.542V56.2163Z" fill="#0E1524"></path>
<path d="M35.4746 57.1993H35.7287V54.9813H35.4746V57.1993Z" fill="#0E1524"></path>
<path d="M34.4941 56.2163H36.7111V55.9633H34.4941V56.2163Z" fill="#0E1524"></path>
<path d="M34.9541 57.1993H35.2071V54.9813H34.9541V57.1993Z" fill="#0E1524"></path>
<path d="M33.9717 56.2163H36.1897V55.9633H33.9717V56.2163Z" fill="#0E1524"></path>
<path d="M35.2002 57.1993H35.4532V54.9813H35.2002V57.1993Z" fill="#0E1524"></path>
<path d="M34.2168 56.2163H36.4349V55.9633H34.2168V56.2163Z" fill="#0E1524"></path>
<path d="M24.1523 57.1993H24.4053V54.9813H24.1523V57.1993Z" fill="#0E1524"></path>
<path d="M23.1699 56.2163H25.388V55.9633H23.1699V56.2163Z" fill="#0E1524"></path>
<path d="M23.6289 57.1993H23.883V54.9813H23.6289V57.1993Z" fill="#0E1524"></path>
<path d="M22.6475 56.2163H24.8655V55.9633H22.6475V56.2163Z" fill="#0E1524"></path>
<path d="M23.875 57.1993H24.129V54.9813H23.875V57.1993Z" fill="#0E1524"></path>
<path d="M22.8926 56.2163H25.1106V55.9633H22.8926V56.2163Z" fill="#0E1524"></path>
<path d="M12.8281 57.1993H13.0821V54.9813H12.8281V57.1993Z" fill="#0E1524"></path>
<path d="M11.8457 56.2163H14.0637V55.9633H11.8457V56.2163Z" fill="#0E1524"></path>
<path d="M12.3057 57.1993H12.5597V54.9813H12.3057V57.1993Z" fill="#0E1524"></path>
<path d="M11.3242 56.2163H13.5423V55.9633H11.3242V56.2163Z" fill="#0E1524"></path>
<path d="M12.5508 57.1993H12.8038V54.9813H12.5508V57.1993Z" fill="#0E1524"></path>
<path d="M11.5693 56.2163H13.7873V55.9633H11.5693V56.2163Z" fill="#0E1524"></path>
<path d="M1.50391 57.1993H1.75691V54.9813H1.50391V57.1993Z" fill="#0E1524"></path>
<path d="M0.522461 56.2163H2.74046V55.9633H0.522461V56.2163Z" fill="#0E1524"></path>
<path d="M0.981445 57.1993H1.23545V54.9813H0.981445V57.1993Z" fill="#0E1524"></path>
<path d="M0 56.2163H2.21698V55.9633H0V56.2163Z" fill="#0E1524"></path>
<path d="M1.22754 57.1993H1.48054V54.9813H1.22754V57.1993Z" fill="#0E1524"></path>
<path d="M0.246094 56.2163H2.46409V55.9633H0.246094V56.2163Z" fill="#0E1524"></path>
<path d="M46.7998 45.8743H47.0539V43.6573H46.7998V45.8743Z" fill="#0E1524"></path>
<path d="M45.8184 44.8923H48.0353V44.6393H45.8184V44.8923Z" fill="#0E1524"></path>
<path d="M46.2783 45.8743H46.5323V43.6573H46.2783V45.8743Z" fill="#0E1524"></path>
<path d="M45.2959 44.8923H47.5129V44.6393H45.2959V44.8923Z" fill="#0E1524"></path>
<path d="M46.5244 45.8743H46.7774V43.6573H46.5244V45.8743Z" fill="#0E1524"></path>
<path d="M45.542 44.8923H47.76V44.6393H45.542V44.8923Z" fill="#0E1524"></path>
<path d="M35.4746 45.8743H35.7287V43.6573H35.4746V45.8743Z" fill="#0E1524"></path>
<path d="M34.4941 44.8923H36.7111V44.6393H34.4941V44.8923Z" fill="#0E1524"></path>
<path d="M34.9541 45.8743H35.2071V43.6573H34.9541V45.8743Z" fill="#0E1524"></path>
<path d="M33.9717 44.8923H36.1897V44.6393H33.9717V44.8923Z" fill="#0E1524"></path>
<path d="M35.2002 45.8743H35.4532V43.6573H35.2002V45.8743Z" fill="#0E1524"></path>
<path d="M34.2168 44.8923H36.4349V44.6393H34.2168V44.8923Z" fill="#0E1524"></path>
<path d="M24.1523 45.8743H24.4053V43.6573H24.1523V45.8743Z" fill="#0E1524"></path>
<path d="M23.1699 44.8923H25.388V44.6393H23.1699V44.8923Z" fill="#0E1524"></path>
<path d="M23.6289 45.8743H23.883V43.6573H23.6289V45.8743Z" fill="#0E1524"></path>
<path d="M22.6475 44.8923H24.8655V44.6393H22.6475V44.8923Z" fill="#0E1524"></path>
<path d="M23.875 45.8743H24.129V43.6573H23.875V45.8743Z" fill="#0E1524"></path>
<path d="M22.8926 44.8923H25.1106V44.6393H22.8926V44.8923Z" fill="#0E1524"></path>
<path d="M12.8281 45.8743H13.0821V43.6573H12.8281V45.8743Z" fill="#0E1524"></path>
<path d="M11.8457 44.8923H14.0637V44.6393H11.8457V44.8923Z" fill="#0E1524"></path>
<path d="M12.3057 45.8743H12.5597V43.6573H12.3057V45.8743Z" fill="#0E1524"></path>
<path d="M11.3242 44.8923H13.5423V44.6393H11.3242V44.8923Z" fill="#0E1524"></path>
<path d="M12.5508 45.8743H12.8038V43.6573H12.5508V45.8743Z" fill="#0E1524"></path>
<path d="M11.5693 44.8923H13.7873V44.6393H11.5693V44.8923Z" fill="#0E1524"></path>
<path d="M1.50391 45.8743H1.75691V43.6573H1.50391V45.8743Z" fill="#0E1524"></path>
<path d="M0.522461 44.8923H2.74046V44.6393H0.522461V44.8923Z" fill="#0E1524"></path>
<path d="M0.981445 45.8743H1.23545V43.6573H0.981445V45.8743Z" fill="#0E1524"></path>
<path d="M0 44.8923H2.21698V44.6393H0V44.8923Z" fill="#0E1524"></path>
<path d="M1.22754 45.8743H1.48054V43.6573H1.22754V45.8743Z" fill="#0E1524"></path>
<path d="M0.246094 44.8923H2.46409V44.6393H0.246094V44.8923Z" fill="#0E1524"></path>
<path d="M46.7998 34.5503H47.0539V32.3323H46.7998V34.5503Z" fill="#0E1524"></path>
<path d="M45.8184 33.5683H48.0353V33.3143H45.8184V33.5683Z" fill="#0E1524"></path>
<path d="M46.2783 34.5503H46.5323V32.3323H46.2783V34.5503Z" fill="#0E1524"></path>
<path d="M45.2959 33.5683H47.5129V33.3143H45.2959V33.5683Z" fill="#0E1524"></path>
<path d="M46.5244 34.5503H46.7774V32.3323H46.5244V34.5503Z" fill="#0E1524"></path>
<path d="M45.542 33.5683H47.76V33.3143H45.542V33.5683Z" fill="#0E1524"></path>
<path d="M35.4746 34.5503H35.7287V32.3323H35.4746V34.5503Z" fill="#0E1524"></path>
<path d="M34.4941 33.5683H36.7111V33.3143H34.4941V33.5683Z" fill="#0E1524"></path>
<path d="M34.9541 34.5503H35.2071V32.3323H34.9541V34.5503Z" fill="#0E1524"></path>
<path d="M33.9717 33.5683H36.1897V33.3143H33.9717V33.5683Z" fill="#0E1524"></path>
<path d="M35.2002 34.5503H35.4532V32.3323H35.2002V34.5503Z" fill="#0E1524"></path>
<path d="M34.2168 33.5683H36.4349V33.3143H34.2168V33.5683Z" fill="#0E1524"></path>
<path d="M24.1523 34.5503H24.4053V32.3323H24.1523V34.5503Z" fill="#0E1524"></path>
<path d="M23.1699 33.5683H25.388V33.3143H23.1699V33.5683Z" fill="#0E1524"></path>
<path d="M23.6289 34.5503H23.883V32.3323H23.6289V34.5503Z" fill="#0E1524"></path>
<path d="M22.6475 33.5683H24.8655V33.3143H22.6475V33.5683Z" fill="#0E1524"></path>
<path d="M23.875 34.5503H24.129V32.3323H23.875V34.5503Z" fill="#0E1524"></path>
<path d="M22.8926 33.5683H25.1106V33.3143H22.8926V33.5683Z" fill="#0E1524"></path>
<path d="M11.8457 33.5683H14.0637V33.3143H11.8457V33.5683Z" fill="#0E1524"></path>
<path d="M12.8281 34.5503H13.0821V32.3323H12.8281V34.5503Z" fill="#0E1524"></path>
<path d="M12.8281 34.5503H13.0821V32.3323H12.8281V34.5503Z" fill="#0E1524"></path>
<path d="M11.8457 33.5683H14.0637V33.3143H11.8457V33.5683Z" fill="#0E1524"></path>
<path d="M11.3242 33.5683H13.5423V33.3143H11.3242V33.5683Z" fill="#0E1524"></path>
<path d="M12.3057 34.5503H12.5597V32.3323H12.3057V34.5503Z" fill="#0E1524"></path>
<path d="M12.3057 34.5503H12.5597V32.3323H12.3057V34.5503Z" fill="#0E1524"></path>
<path d="M11.3242 33.5683H13.5423V33.3143H11.3242V33.5683Z" fill="#0E1524"></path>
<path d="M11.5693 33.5683H13.7873V33.3143H11.5693V33.5683Z" fill="#0E1524"></path>
<path d="M12.5508 34.5503H12.8038V32.3323H12.5508V34.5503Z" fill="#0E1524"></path>
<path d="M12.5508 34.5503H12.8038V32.3323H12.5508V34.5503Z" fill="#0E1524"></path>
<path d="M11.5693 33.5683H13.7873V33.3143H11.5693V33.5683Z" fill="#0E1524"></path>
<path d="M0.522461 33.5683H2.74046V33.3143H0.522461V33.5683Z" fill="#0E1524"></path>
<path d="M1.50391 34.5503H1.75691V32.3323H1.50391V34.5503Z" fill="#0E1524"></path>
<path d="M1.50391 34.5503H1.75691V32.3323H1.50391V34.5503Z" fill="#0E1524"></path>
<path d="M0.522461 33.5683H2.74046V33.3143H0.522461V33.5683Z" fill="#0E1524"></path>
<path d="M0 33.5683H2.21698V33.3143H0V33.5683Z" fill="#0E1524"></path>
<path d="M0.981445 34.5503H1.23545V32.3323H0.981445V34.5503Z" fill="#0E1524"></path>
<path d="M0.981445 34.5503H1.23545V32.3323H0.981445V34.5503Z" fill="#0E1524"></path>
<path d="M0 33.5683H2.21698V33.3143H0V33.5683Z" fill="#0E1524"></path>
<path d="M0.246094 33.5683H2.46409V33.3143H0.246094V33.5683Z" fill="#0E1524"></path>
<path d="M1.22754 34.5503H1.48054V32.3323H1.22754V34.5503Z" fill="#0E1524"></path>
<path d="M1.22754 34.5503H1.48054V32.3323H1.22754V34.5503Z" fill="#0E1524"></path>
<path d="M0.246094 33.5683H2.46409V33.3143H0.246094V33.5683Z" fill="#0E1524"></path>
<path d="M12.8281 23.2263H13.0821V21.0083H12.8281V23.2263Z" fill="#0E1524"></path>
<path d="M11.8457 22.2434H14.0637V21.9904H11.8457V22.2434Z" fill="#0E1524"></path>
<path d="M12.3057 23.2263H12.5597V21.0083H12.3057V23.2263Z" fill="#0E1524"></path>
<path d="M11.3242 22.2434H13.5423V21.9904H11.3242V22.2434Z" fill="#0E1524"></path>
<path d="M12.5508 23.2263H12.8038V21.0083H12.5508V23.2263Z" fill="#0E1524"></path>
<path d="M11.5693 22.2434H13.7873V21.9904H11.5693V22.2434Z" fill="#0E1524"></path>
<path d="M24.1602 29.585H50.1792V0L24.1602 29.585Z" fill="#FF5555"></path>
<path d="M46.7998 23.2263H47.0539V21.0083H46.7998V23.2263Z" fill="#0E1524"></path>
<path d="M45.8184 22.2434H48.0353V21.9904H45.8184V22.2434Z" fill="#0E1524"></path>
<path d="M46.2783 23.2263H46.5323V21.0083H46.2783V23.2263Z" fill="#0E1524"></path>
<path d="M45.2959 22.2434H47.5129V21.9904H45.2959V22.2434Z" fill="#0E1524"></path>
<path d="M46.5244 23.2263H46.7774V21.0083H46.5244V23.2263Z" fill="#0E1524"></path>
<path d="M45.542 22.2434H47.76V21.9904H45.542V22.2434Z" fill="#0E1524"></path>
<path d="M35.4746 23.2263H35.7287V21.0083H35.4746V23.2263Z" fill="#0E1524"></path>
<path d="M34.4941 22.2434H36.7111V21.9904H34.4941V22.2434Z" fill="#0E1524"></path>
<path d="M34.9541 23.2263H35.2071V21.0083H34.9541V23.2263Z" fill="#0E1524"></path>
<path d="M33.9717 22.2434H36.1897V21.9904H33.9717V22.2434Z" fill="#0E1524"></path>
<path d="M35.2002 23.2263H35.4532V21.0083H35.2002V23.2263Z" fill="#0E1524"></path>
<path d="M34.2168 22.2434H36.4349V21.9904H34.2168V22.2434Z" fill="#0E1524"></path>
<path d="M24.1523 23.2263H24.4053V21.0083H24.1523V23.2263Z" fill="#0E1524"></path>
<path d="M23.1699 22.2434H25.388V21.9904H23.1699V22.2434Z" fill="#0E1524"></path>
<path d="M23.6289 23.2263H23.883V21.0083H23.6289V23.2263Z" fill="#0E1524"></path>
<path d="M22.6475 22.2434H24.8655V21.9904H22.6475V22.2434Z" fill="#0E1524"></path>
<path d="M23.875 23.2263H24.129V21.0083H23.875V23.2263Z" fill="#0E1524"></path>
<path d="M22.8926 22.2434H25.1106V21.9904H22.8926V22.2434Z" fill="#0E1524"></path>
<path d="M46.7998 11.9023H47.0539V9.6853H46.7998V11.9023Z" fill="#0E1524"></path>
<path d="M45.8184 10.9204H48.0353V10.6674H45.8184V10.9204Z" fill="#0E1524"></path>
<path d="M46.2783 11.9023H46.5323V9.6853H46.2783V11.9023Z" fill="#0E1524"></path>
<path d="M45.2959 10.9204H47.5129V10.6674H45.2959V10.9204Z" fill="#0E1524"></path>
<path d="M46.5244 11.9023H46.7774V9.6853H46.5244V11.9023Z" fill="#0E1524"></path>
<path d="M45.542 10.9204H47.76V10.6674H45.542V10.9204Z" fill="#0E1524"></path>
<path d="M35.4746 11.9023H35.7287V9.6853H35.4746V11.9023Z" fill="#0E1524"></path>
<path d="M34.4941 10.9204H36.7111V10.6674H34.4941V10.9204Z" fill="#0E1524"></path>
<path d="M34.9541 11.9023H35.2071V9.6853H34.9541V11.9023Z" fill="#0E1524"></path>
<path d="M33.9717 10.9204H36.1897V10.6674H33.9717V10.9204Z" fill="#0E1524"></path>
<path d="M35.2002 11.9023H35.4532V9.6853H35.2002V11.9023Z" fill="#0E1524"></path>
<path d="M34.2168 10.9204H36.4349V10.6674H34.2168V10.9204Z" fill="#0E1524"></path>
<path d="M24.1523 11.9023H24.4053V9.6853H24.1523V11.9023Z" fill="#0E1524"></path>
<path d="M23.1699 10.9204H25.388V10.6674H23.1699V10.9204Z" fill="#0E1524"></path>
<path d="M23.6289 11.9023H23.883V9.6853H23.6289V11.9023Z" fill="#0E1524"></path>
<path d="M22.6475 10.9204H24.8655V10.6674H22.6475V10.9204Z" fill="#0E1524"></path>
<path d="M23.875 11.9023H24.129V9.6853H23.875V11.9023Z" fill="#0E1524"></path>
<path d="M22.8926 10.9204H25.1106V10.6674H22.8926V10.9204Z" fill="#0E1524"></path>
<path d="M1.50391 23.2263H1.75691V21.0083H1.50391V23.2263Z" fill="#0E1524"></path>
<path d="M0.522461 22.2434H2.74046V21.9904H0.522461V22.2434Z" fill="#0E1524"></path>
<path d="M0.981445 23.2263H1.23545V21.0083H0.981445V23.2263Z" fill="#0E1524"></path>
<path d="M0 22.2434H2.21698V21.9904H0V22.2434Z" fill="#0E1524"></path>
<path d="M1.22754 23.2263H1.48054V21.0083H1.22754V23.2263Z" fill="#0E1524"></path>
<path d="M0.246094 22.2434H2.46409V21.9904H0.246094V22.2434Z" fill="#0E1524"></path>
<path d="M12.8281 11.9023H13.0821V9.6853H12.8281V11.9023Z" fill="#0E1524"></path>
<path d="M11.8457 10.9204H14.0637V10.6674H11.8457V10.9204Z" fill="#0E1524"></path>
<path d="M12.3057 11.9023H12.5597V9.6853H12.3057V11.9023Z" fill="#0E1524"></path>
<path d="M11.3242 10.9204H13.5423V10.6674H11.3242V10.9204Z" fill="#0E1524"></path>
<path d="M12.5508 11.9023H12.8038V9.6853H12.5508V11.9023Z" fill="#0E1524"></path>
<path d="M11.5693 10.9204H13.7873V10.6674H11.5693V10.9204Z" fill="#0E1524"></path>
<path d="M1.50391 11.9023H1.75691V9.6853H1.50391V11.9023Z" fill="#0E1524"></path>
<path d="M0.522461 10.9204H2.74046V10.6674H0.522461V10.9204Z" fill="#0E1524"></path>
<path d="M0.981445 11.9023H1.23545V9.6853H0.981445V11.9023Z" fill="#0E1524"></path>
<path d="M0 10.9204H2.21698V10.6674H0V10.9204Z" fill="#0E1524"></path>
<path d="M1.22754 11.9023H1.48054V9.6853H1.22754V11.9023Z" fill="#0E1524"></path>
<path d="M0.246094 10.9204H2.46409V10.6674H0.246094V10.9204Z" fill="#0E1524"></path>
</svg>