<svg width="18" height="139" viewBox="0 0 18 139" fill="none" xmlns="http://www.w3.org/2000/svg">
<path d="M0 138.874H2.881L0 135.993V138.874Z" fill="#FF5555"></path>
<path d="M0 126.157L12.717 138.874H16.098L0 122.776V126.157Z" fill="#FF5555"></path>
<path d="M0 112.937L17.829 130.766V127.385L0 109.557V112.937Z" fill="#FF5555"></path>
<path d="M0 99.7182L17.829 117.547V114.166L0 96.3372V99.7182Z" fill="#FF5555"></path>
<path d="M0 86.4989L17.829 104.328V100.948L0 83.1189V86.4989Z" fill="#FF5555"></path>
<path d="M0 73.2815L17.829 91.1095V87.7275L0 69.8995V73.2815Z" fill="#FF5555"></path>
<path d="M0 60.0614L17.829 77.8904V74.5094L0 56.6814V60.0614Z" fill="#FF5555"></path>
<path d="M0 46.8432L17.829 64.6722V61.2902L0 43.4622V46.8432Z" fill="#FF5555"></path>
<path d="M0 33.6222L17.829 51.4512V48.0712L0 30.2432V33.6222Z" fill="#FF5555"></path>
<path d="M0 20.4039L17.829 38.2329V34.8539L0 17.0249V20.4039Z" fill="#FF5555"></path>
<path d="M0 7.18369L17.829 25.0127V21.6337L0 3.80469V7.18369Z" fill="#FF5555"></path>
<path d="M6.03418 0L17.8282 11.795V8.414L9.41418 0H6.03418Z" fill="#FF5555"></path>
</svg>