<svg width="60" height="82" viewBox="0 0 60 82" fill="none" xmlns="http://www.w3.org/2000/svg">
<path d="M0 81.1913H1.325V79.8663L0 81.1913Z" fill="white"></path>
<path d="M58.3232 57.6863H58.5412V55.7823H58.3232V57.6863Z" fill="#0E1524"></path>
<path d="M57.4795 56.8423H59.3835V56.6243H57.4795V56.8423Z" fill="#0E1524"></path>
<path d="M57.874 57.6863H58.092V55.7823H57.874V57.6863Z" fill="#0E1524"></path>
<path d="M57.0312 56.8423H58.9353V56.6243H57.0312V56.8423Z" fill="#0E1524"></path>
<path d="M58.085 57.6863H58.303V55.7823H58.085V57.6863Z" fill="#0E1524"></path>
<path d="M57.2422 56.8423H59.1462V56.6243H57.2422V56.8423Z" fill="#0E1524"></path>
<path d="M58.3232 47.9622H58.5412V46.0582H58.3232V47.9622Z" fill="#0E1524"></path>
<path d="M57.4795 47.1202H59.3835V46.9022H57.4795V47.1202Z" fill="#0E1524"></path>
<path d="M57.874 47.9622H58.092V46.0582H57.874V47.9622Z" fill="#0E1524"></path>
<path d="M57.0312 47.1202H58.9353V46.9022H57.0312V47.1202Z" fill="#0E1524"></path>
<path d="M58.085 47.9622H58.303V46.0582H58.085V47.9622Z" fill="#0E1524"></path>
<path d="M57.2422 47.1202H59.1462V46.9022H57.2422V47.1202Z" fill="#0E1524"></path>
<path d="M38.876 47.9622H39.093V46.0582H38.876V47.9622Z" fill="#0E1524"></path>
<path d="M38.0332 47.1202H39.9372V46.9022H38.0332V47.1202Z" fill="#0E1524"></path>
<path d="M38.4287 47.9622H38.6457V46.0582H38.4287V47.9622Z" fill="#0E1524"></path>
<path d="M37.585 47.1202H39.489V46.9022H37.585V47.1202Z" fill="#0E1524"></path>
<path d="M38.6396 47.9622H38.8577V46.0582H38.6396V47.9622Z" fill="#0E1524"></path>
<path d="M37.7949 47.1202H39.6989V46.9022H37.7949V47.1202Z" fill="#0E1524"></path>
<path d="M38.876 57.6863H39.093V55.7823H38.876V57.6863Z" fill="#0E1524"></path>
<path d="M38.0332 56.8423H39.9372V56.6243H38.0332V56.8423Z" fill="#0E1524"></path>
<path d="M38.4287 57.6863H38.6457V55.7823H38.4287V57.6863Z" fill="#0E1524"></path>
<path d="M37.585 56.8423H39.489V56.6243H37.585V56.8423Z" fill="#0E1524"></path>
<path d="M38.6396 57.6863H38.8577V55.7823H38.6396V57.6863Z" fill="#0E1524"></path>
<path d="M37.7949 56.8423H39.6989V56.6243H37.7949V56.8423Z" fill="#0E1524"></path>
<path d="M48.5996 47.9622H48.8176V46.0582H48.5996V47.9622Z" fill="#0E1524"></path>
<path d="M47.7568 47.1202H49.6598V46.9022H47.7568V47.1202Z" fill="#0E1524"></path>
<path d="M48.1523 47.9622H48.3694V46.0582H48.1523V47.9622Z" fill="#0E1524"></path>
<path d="M47.3086 47.1202H49.2126V46.9022H47.3086V47.1202Z" fill="#0E1524"></path>
<path d="M48.3623 47.9622H48.5803V46.0582H48.3623V47.9622Z" fill="#0E1524"></path>
<path d="M47.5195 47.1202H49.4235V46.9022H47.5195V47.1202Z" fill="#0E1524"></path>
<path d="M48.5996 57.6863H48.8176V55.7823H48.5996V57.6863Z" fill="#0E1524"></path>
<path d="M47.7568 56.8423H49.6598V56.6243H47.7568V56.8423Z" fill="#0E1524"></path>
<path d="M48.1523 57.6863H48.3694V55.7823H48.1523V57.6863Z" fill="#0E1524"></path>
<path d="M47.3086 56.8423H49.2126V56.6243H47.3086V56.8423Z" fill="#0E1524"></path>
<path d="M48.3623 57.6863H48.5803V55.7823H48.3623V57.6863Z" fill="#0E1524"></path>
<path d="M47.5195 56.8423H49.4235V56.6243H47.5195V56.8423Z" fill="#0E1524"></path>
<path d="M29.1533 47.9622H29.3713V46.0582H29.1533V47.9622Z" fill="#0E1524"></path>
<path d="M28.3105 47.1202H30.2145V46.9022H28.3105V47.1202Z" fill="#0E1524"></path>
<path d="M28.7051 47.9622H28.9221V46.0582H28.7051V47.9622Z" fill="#0E1524"></path>
<path d="M27.8613 47.1202H29.7653V46.9022H27.8613V47.1202Z" fill="#0E1524"></path>
<path d="M28.916 47.9622H29.133V46.0582H28.916V47.9622Z" fill="#0E1524"></path>
<path d="M28.0732 47.1202H29.9772V46.9022H28.0732V47.1202Z" fill="#0E1524"></path>
<path d="M29.1533 57.6863H29.3713V55.7823H29.1533V57.6863Z" fill="#0E1524"></path>
<path d="M28.3105 56.8423H30.2145V56.6243H28.3105V56.8423Z" fill="#0E1524"></path>
<path d="M28.7051 57.6863H28.9221V55.7823H28.7051V57.6863Z" fill="#0E1524"></path>
<path d="M27.8613 56.8423H29.7653V56.6243H27.8613V56.8423Z" fill="#0E1524"></path>
<path d="M28.916 57.6863H29.133V55.7823H28.916V57.6863Z" fill="#0E1524"></path>
<path d="M28.0732 56.8423H29.9772V56.6243H28.0732V56.8423Z" fill="#0E1524"></path>
<path d="M19.4307 47.9622H19.6487V46.0582H19.4307V47.9622Z" fill="#0E1524"></path>
<path d="M18.5869 47.1202H20.4909V46.9022H18.5869V47.1202Z" fill="#0E1524"></path>
<path d="M18.9824 47.9622H19.2004V46.0582H18.9824V47.9622Z" fill="#0E1524"></path>
<path d="M18.1396 47.1202H20.0436V46.9022H18.1396V47.1202Z" fill="#0E1524"></path>
<path d="M19.1924 47.9622H19.4104V46.0582H19.1924V47.9622Z" fill="#0E1524"></path>
<path d="M18.3496 47.1202H20.2536V46.9022H18.3496V47.1202Z" fill="#0E1524"></path>
<path d="M19.4307 57.6863H19.6487V55.7823H19.4307V57.6863Z" fill="#0E1524"></path>
<path d="M18.5869 56.8423H20.4909V56.6243H18.5869V56.8423Z" fill="#0E1524"></path>
<path d="M18.9824 57.6863H19.2004V55.7823H18.9824V57.6863Z" fill="#0E1524"></path>
<path d="M18.1396 56.8423H20.0436V56.6243H18.1396V56.8423Z" fill="#0E1524"></path>
<path d="M19.1924 57.6863H19.4104V55.7823H19.1924V57.6863Z" fill="#0E1524"></path>
<path d="M18.3496 56.8423H20.2536V56.6243H18.3496V56.8423Z" fill="#0E1524"></path>
<path d="M44.3164 81.1913H48.0954L52.9824 76.3033V72.5243L44.3164 81.1913Z" fill="#0E1524"></path>
<path d="M29.543 81.1913H33.324L52.983 61.5313V57.7523L29.543 81.1913Z" fill="#0E1524"></path>
<path d="M14.7715 81.1913H18.5505L52.9815 46.7593V42.9813L14.7715 81.1913Z" fill="#0E1524"></path>
<path d="M38.2342 42.9567L1.3252 79.8667V81.1917H3.7772L42.0112 42.9567H38.2342Z" fill="#0E1524"></path>
<path d="M27.2402 42.9569H23.4622L1.3252 65.0939V68.8719L27.2402 42.9569Z" fill="#0E1524"></path>
<path d="M12.4672 42.9569H8.69022L1.32422 50.3219V54.0999L12.4672 42.9569Z" fill="#0E1524"></path>
<path d="M58.3232 38.2393H58.5412V36.3353H58.3232V38.2393Z" fill="#0E1524"></path>
<path d="M57.4795 37.3963H59.3835V37.1783H57.4795V37.3963Z" fill="#0E1524"></path>
<path d="M57.874 38.2393H58.092V36.3353H57.874V38.2393Z" fill="#0E1524"></path>
<path d="M57.0312 37.3963H58.9353V37.1783H57.0312V37.3963Z" fill="#0E1524"></path>
<path d="M58.085 38.2393H58.303V36.3353H58.085V38.2393Z" fill="#0E1524"></path>
<path d="M57.2422 37.3963H59.1462V37.1783H57.2422V37.3963Z" fill="#0E1524"></path>
<path d="M38.876 38.2393H39.093V36.3353H38.876V38.2393Z" fill="#0E1524"></path>
<path d="M38.0332 37.3963H39.9372V37.1783H38.0332V37.3963Z" fill="#0E1524"></path>
<path d="M38.4287 38.2393H38.6457V36.3353H38.4287V38.2393Z" fill="#0E1524"></path>
<path d="M37.585 37.3963H39.489V37.1783H37.585V37.3963Z" fill="#0E1524"></path>
<path d="M38.6396 38.2393H38.8577V36.3353H38.6396V38.2393Z" fill="#0E1524"></path>
<path d="M37.7949 37.3963H39.6989V37.1783H37.7949V37.3963Z" fill="#0E1524"></path>
<path d="M28.3105 37.3963H30.2145V37.1783H28.3105V37.3963Z" fill="#0E1524"></path>
<path d="M29.1533 38.2393H29.3713V36.3353H29.1533V38.2393Z" fill="#0E1524"></path>
<path d="M29.1533 38.2393H29.3713V36.3353H29.1533V38.2393Z" fill="#0E1524"></path>
<path d="M28.3105 37.3963H30.2145V37.1783H28.3105V37.3963Z" fill="#0E1524"></path>
<path d="M27.8613 37.3963H29.7653V37.1783H27.8613V37.3963Z" fill="#0E1524"></path>
<path d="M28.7051 38.2393H28.9221V36.3353H28.7051V38.2393Z" fill="#0E1524"></path>
<path d="M28.7051 38.2393H28.9221V36.3353H28.7051V38.2393Z" fill="#0E1524"></path>
<path d="M27.8613 37.3963H29.7653V37.1783H27.8613V37.3963Z" fill="#0E1524"></path>
<path d="M28.0732 37.3963H29.9772V37.1783H28.0732V37.3963Z" fill="#0E1524"></path>
<path d="M28.916 38.2393H29.133V36.3353H28.916V38.2393Z" fill="#0E1524"></path>
<path d="M28.916 38.2393H29.133V36.3353H28.916V38.2393Z" fill="#0E1524"></path>
<path d="M28.0732 37.3963H29.9772V37.1783H28.0732V37.3963Z" fill="#0E1524"></path>
<path d="M18.5869 37.3963H20.4909V37.1783H18.5869V37.3963Z" fill="#0E1524"></path>
<path d="M19.4307 38.2393H19.6487V36.3353H19.4307V38.2393Z" fill="#0E1524"></path>
<path d="M19.4307 38.2393H19.6487V36.3353H19.4307V38.2393Z" fill="#0E1524"></path>
<path d="M18.5869 37.3963H20.4909V37.1783H18.5869V37.3963Z" fill="#0E1524"></path>
<path d="M18.1396 37.3963H20.0436V37.1783H18.1396V37.3963Z" fill="#0E1524"></path>
<path d="M18.9824 38.2393H19.2004V36.3353H18.9824V38.2393Z" fill="#0E1524"></path>
<path d="M18.9824 38.2393H19.2004V36.3353H18.9824V38.2393Z" fill="#0E1524"></path>
<path d="M18.1396 37.3963H20.0436V37.1783H18.1396V37.3963Z" fill="#0E1524"></path>
<path d="M18.3496 37.3963H20.2536V37.1783H18.3496V37.3963Z" fill="#0E1524"></path>
<path d="M19.1924 38.2393H19.4104V36.3353H19.1924V38.2393Z" fill="#0E1524"></path>
<path d="M19.1924 38.2393H19.4104V36.3353H19.1924V38.2393Z" fill="#0E1524"></path>
<path d="M18.3496 37.3963H20.2536V37.1783H18.3496V37.3963Z" fill="#0E1524"></path>
<path d="M48.5996 38.2393H48.8176V36.3353H48.5996V38.2393Z" fill="#0E1524"></path>
<path d="M47.7568 37.3963H49.6598V37.1783H47.7568V37.3963Z" fill="#0E1524"></path>
<path d="M48.1523 38.2393H48.3694V36.3353H48.1523V38.2393Z" fill="#0E1524"></path>
<path d="M47.3086 37.3963H49.2126V37.1783H47.3086V37.3963Z" fill="#0E1524"></path>
<path d="M48.3623 38.2393H48.5803V36.3353H48.3623V38.2393Z" fill="#0E1524"></path>
<path d="M47.5195 37.3963H49.4235V37.1783H47.5195V37.3963Z" fill="#0E1524"></path>
<path d="M58.3232 28.5163H58.5412V26.6123H58.3232V28.5163Z" fill="#0E1524"></path>
<path d="M57.4795 27.6722H59.3835V27.4552H57.4795V27.6722Z" fill="#0E1524"></path>
<path d="M57.874 28.5163H58.092V26.6123H57.874V28.5163Z" fill="#0E1524"></path>
<path d="M57.0312 27.6722H58.9353V27.4552H57.0312V27.6722Z" fill="#0E1524"></path>
<path d="M58.085 28.5163H58.303V26.6123H58.085V28.5163Z" fill="#0E1524"></path>
<path d="M57.2422 27.6722H59.1462V27.4552H57.2422V27.6722Z" fill="#0E1524"></path>
<path d="M48.5996 28.5163H48.8176V26.6123H48.5996V28.5163Z" fill="#0E1524"></path>
<path d="M47.7568 27.6722H49.6598V27.4552H47.7568V27.6722Z" fill="#0E1524"></path>
<path d="M48.1523 28.5163H48.3694V26.6123H48.1523V28.5163Z" fill="#0E1524"></path>
<path d="M47.3086 27.6722H49.2126V27.4552H47.3086V27.6722Z" fill="#0E1524"></path>
<path d="M48.3623 28.5163H48.5803V26.6123H48.3623V28.5163Z" fill="#0E1524"></path>
<path d="M47.5195 27.6722H49.4235V27.4552H47.5195V27.6722Z" fill="#0E1524"></path>
<path d="M38.876 28.5163H39.093V26.6123H38.876V28.5163Z" fill="#0E1524"></path>
<path d="M38.0332 27.6722H39.9372V27.4552H38.0332V27.6722Z" fill="#0E1524"></path>
<path d="M38.4287 28.5163H38.6457V26.6123H38.4287V28.5163Z" fill="#0E1524"></path>
<path d="M37.585 27.6722H39.489V27.4552H37.585V27.6722Z" fill="#0E1524"></path>
<path d="M38.6396 28.5163H38.8577V26.6123H38.6396V28.5163Z" fill="#0E1524"></path>
<path d="M37.7949 27.6722H39.6989V27.4552H37.7949V27.6722Z" fill="#0E1524"></path>
<path d="M29.1533 28.5163H29.3713V26.6123H29.1533V28.5163Z" fill="#0E1524"></path>
<path d="M28.3105 27.6722H30.2145V27.4552H28.3105V27.6722Z" fill="#0E1524"></path>
<path d="M28.7051 28.5163H28.9221V26.6123H28.7051V28.5163Z" fill="#0E1524"></path>
<path d="M27.8613 27.6722H29.7653V27.4552H27.8613V27.6722Z" fill="#0E1524"></path>
<path d="M28.916 28.5163H29.133V26.6123H28.916V28.5163Z" fill="#0E1524"></path>
<path d="M28.0732 27.6722H29.9772V27.4552H28.0732V27.6722Z" fill="#0E1524"></path>
<path d="M19.4307 28.5163H19.6487V26.6123H19.4307V28.5163Z" fill="#0E1524"></path>
<path d="M18.5869 27.6722H20.4909V27.4552H18.5869V27.6722Z" fill="#0E1524"></path>
<path d="M18.9824 28.5163H19.2004V26.6123H18.9824V28.5163Z" fill="#0E1524"></path>
<path d="M18.1396 27.6722H20.0436V27.4552H18.1396V27.6722Z" fill="#0E1524"></path>
<path d="M19.1924 28.5163H19.4104V26.6123H19.1924V28.5163Z" fill="#0E1524"></path>
<path d="M18.3496 27.6722H20.2536V27.4552H18.3496V27.6722Z" fill="#0E1524"></path>
<path d="M58.3232 18.7933H58.5412V16.8893H58.3232V18.7933Z" fill="#0E1524"></path>
<path d="M57.4795 17.9503H59.3835V17.7323H57.4795V17.9503Z" fill="#0E1524"></path>
<path d="M57.874 18.7933H58.092V16.8893H57.874V18.7933Z" fill="#0E1524"></path>
<path d="M57.0312 17.9503H58.9353V17.7323H57.0312V17.9503Z" fill="#0E1524"></path>
<path d="M58.085 18.7933H58.303V16.8893H58.085V18.7933Z" fill="#0E1524"></path>
<path d="M57.2422 17.9503H59.1462V17.7323H57.2422V17.9503Z" fill="#0E1524"></path>
<path d="M48.5996 18.7933H48.8176V16.8893H48.5996V18.7933Z" fill="#0E1524"></path>
<path d="M47.7568 17.9503H49.6598V17.7323H47.7568V17.9503Z" fill="#0E1524"></path>
<path d="M48.1523 18.7933H48.3694V16.8893H48.1523V18.7933Z" fill="#0E1524"></path>
<path d="M47.3086 17.9503H49.2126V17.7323H47.3086V17.9503Z" fill="#0E1524"></path>
<path d="M48.3623 18.7933H48.5803V16.8893H48.3623V18.7933Z" fill="#0E1524"></path>
<path d="M47.5195 17.9503H49.4235V17.7323H47.5195V17.9503Z" fill="#0E1524"></path>
<path d="M13.9102 0V22.341H39.3122L13.9102 0Z" fill="#FF5555"></path>
<path d="M38.876 18.7933H39.093V16.8893H38.876V18.7933Z" fill="#0E1524"></path>
<path d="M38.0332 17.9503H39.9372V17.7323H38.0332V17.9503Z" fill="#0E1524"></path>
<path d="M38.4287 18.7933H38.6457V16.8893H38.4287V18.7933Z" fill="#0E1524"></path>
<path d="M37.585 17.9503H39.489V17.7323H37.585V17.9503Z" fill="#0E1524"></path>
<path d="M38.6396 18.7933H38.8577V16.8893H38.6396V18.7933Z" fill="#0E1524"></path>
<path d="M37.7949 17.9503H39.6989V17.7323H37.7949V17.9503Z" fill="#0E1524"></path>
<path d="M29.1533 18.7933H29.3713V16.8893H29.1533V18.7933Z" fill="#0E1524"></path>
<path d="M28.3105 17.9503H30.2145V17.7323H28.3105V17.9503Z" fill="#0E1524"></path>
<path d="M28.7051 18.7933H28.9221V16.8893H28.7051V18.7933Z" fill="#0E1524"></path>
<path d="M27.8613 17.9503H29.7653V17.7323H27.8613V17.9503Z" fill="#0E1524"></path>
<path d="M28.916 18.7933H29.133V16.8893H28.916V18.7933Z" fill="#0E1524"></path>
<path d="M28.0732 17.9503H29.9772V17.7323H28.0732V17.9503Z" fill="#0E1524"></path>
<path d="M19.4307 18.7933H19.6487V16.8893H19.4307V18.7933Z" fill="#0E1524"></path>
<path d="M18.5869 17.9503H20.4909V17.7323H18.5869V17.9503Z" fill="#0E1524"></path>
<path d="M18.9824 18.7933H19.2004V16.8893H18.9824V18.7933Z" fill="#0E1524"></path>
<path d="M18.1396 17.9503H20.0436V17.7323H18.1396V17.9503Z" fill="#0E1524"></path>
<path d="M19.1924 18.7933H19.4104V16.8893H19.1924V18.7933Z" fill="#0E1524"></path>
<path d="M18.3496 17.9503H20.2536V17.7323H18.3496V17.9503Z" fill="#0E1524"></path>
</svg>