<svg width="234" height="220" viewBox="0 0 234 220" fill="none" xmlns="http://www.w3.org/2000/svg">
<path d="M84.2412 11.3926C90.9169 11.0981 98.8597 11.271 105.573 11.3159L134.751 11.4804C142.285 11.5452 149.885 11.3846 157.397 11.7164C161.923 11.9163 166.995 11.2789 170.798 14.0681C173.521 16.0646 175.817 19.0898 176.323 22.5166C176.585 24.2935 176.497 26.0773 176.691 27.8598C177.681 38.8493 177.043 50.1008 177.311 61.1357C177.487 66.7943 178.028 72.3806 177.967 78.0541C177.922 82.2817 178.475 85.8295 175.811 89.5319C180.502 92.4656 183.774 94.5461 189.294 93.3449C189.763 92.9193 190.578 92.1536 191.016 91.6879C193.126 89.4438 195.169 83.3069 193.925 80.3527C193.58 79.5322 191.67 77.8787 191.424 76.8767C191.053 75.3826 191.185 73.3719 191.122 71.7714C190.202 70.6945 189.012 69.8608 188.027 68.8389C185.634 66.3505 184.626 62.6942 184.344 59.3324C183.703 51.7073 188.433 52.7374 189.587 50.2192C189.855 49.6319 189.911 48.8663 190.02 48.2335C190.404 46.0296 191.094 44.0634 192.582 42.3472C193.917 40.8067 196.007 39.5195 198.076 39.3871C200.669 39.2214 202.508 40.8256 204.885 41.3921C206.524 41.7825 208.27 41.3784 209.877 42.0323C211.57 42.7201 212.649 44.2833 214.165 45.2388C215.823 46.2831 217.768 46.5686 219.267 47.9184C221.6 50.0188 222.43 53.1282 222.545 56.1552C222.888 65.1352 221.092 68.8126 215.142 75.2545C214.004 83.2635 211.264 80.456 209.533 84.1463C208.902 85.4885 208.798 87.4244 208.511 88.8863C207.699 93.0129 206.171 97.0486 203.808 100.548C201.303 104.258 197.367 107.275 192.892 108.113C186.665 109.279 179.971 107.716 174.166 105.525C172.758 104.993 171.228 104.539 169.98 103.68C169.321 108.214 163.623 117.514 161.757 122.01C160.525 124.976 158.216 129.247 156.545 131.973C152.503 138.567 145.472 137.153 138.943 137.234C135.897 137.298 131.681 136.884 128.864 138.118C126.352 139.218 124.083 142.363 123.144 144.923C123.954 147.984 124.435 150.214 126.941 152.483C130.403 155.618 137.322 154.465 141.858 154.114C143.643 151.211 143.116 149.391 146.157 146.978C148.104 146.658 150.414 145.961 152.229 146.401L152.306 146.372C155.298 145.208 165.698 139.246 168.385 141.125C179.126 148.636 184.784 167.054 185.322 179.637C185.558 185.137 182.952 197.736 178.009 200.285C176.568 201.028 167.416 201.173 165.271 200.928C164.013 200.786 162.78 200.482 161.601 200.024C157.916 198.583 153.764 194.152 152.383 190.478C150.699 186.001 150.681 178.782 152.432 174.37C150.915 174.063 146.816 173.097 146.113 171.657C145.768 170.952 145.285 169.831 144.74 169.271C143.324 168.768 141.345 169.764 139.635 169.782C129.154 169.894 123.56 170.327 115.762 162.901C114.441 161.496 112.914 159.24 111.749 157.637C107.333 163.814 103.067 170.073 98.8519 176.397C97.9535 177.744 97.1519 179.137 96.4055 180.575C96.5477 180.968 96.6826 181.363 96.8102 181.761C98.7232 187.784 95.0987 190.32 91.486 193.007C90.9725 193.389 89.8073 197.263 89.0921 198.598C87.1692 202.189 84.409 206.295 80.4709 207.936C70.3646 210.57 61.7046 202.124 55.3227 195.628C47.673 187.838 39.8854 179.327 36.4557 168.783C35.4617 165.727 35.2246 160.48 36.8133 157.556C39.9218 152.882 46.5279 148.484 51.9016 147.03C63.3024 143.946 72.3175 150.803 77.4024 160.537C78.1996 162.063 79.9033 167.984 80.4385 168.296C80.6962 168.14 80.9656 167.994 81.2223 167.841C82.2216 167.183 84.4587 167.927 85.3595 167.041C86.5821 165.838 87.7041 164 88.7078 162.588C90.639 159.833 92.6208 157.115 94.6524 154.434C96.5545 151.963 98.4881 149.519 100.433 147.084C101.796 145.377 105.111 142.16 105.36 140.033C104.593 138.416 102.204 138.719 100.653 138.713C99.1279 138.707 97.6022 138.717 96.076 138.71L76.8381 138.695C70.246 138.718 56.5804 140.383 55.0984 131.363C54.8246 129.697 54.7173 124.972 55.2471 123.461C57.1683 117.982 61.0813 113.119 63.9758 108.116C66.3912 104.037 68.9943 100.107 71.452 96.0613C72.1242 94.9549 73.2654 94.245 73.9664 93.2072C74.1996 93.0107 74.2547 91.9477 74.0124 91.7539C71.893 90.0584 70.9521 87.5415 70.254 84.9754C69.723 83.0236 68.4329 82.133 66.546 81.2207C62.5563 79.2914 57.461 77.9332 53.0612 79.1195C49.4882 80.2639 46.9274 84.8304 45.4222 87.9564C43.6614 91.6132 45.3095 91.0081 46.625 93.9501C47.3128 95.488 46.2431 97.744 45.524 99.1834C48.5056 103.09 51.3595 109.349 48.8875 114.162C47.278 117.296 45.341 117.862 42.2148 118.87C41.1513 122.484 39.5888 126.203 35.6298 127.393C33.2329 128.114 29.695 127.746 27.6929 126.138C26.7857 125.41 26.0261 124.166 24.9527 123.606C24.0044 123.114 22.9105 123.594 21.94 123.911C18.7031 122.634 16.922 120.973 16.0515 117.559C15.6167 117.221 15.188 116.875 14.7658 116.52C12.7485 114.842 11.2751 113.822 11.0425 110.922C10.51 104.283 12.6829 98.6465 17.5439 94.098C18.5922 93.1227 21.5532 91.9365 22.366 90.9275C25.6605 86.8367 24.2503 84.8033 30.549 84.4303C31.9105 82.3746 32.9252 80.019 34.2121 77.9C43.0791 63.2995 54.9444 60.6646 70.4062 67.0284C71.0684 55.1211 69.8635 42.9633 71.1926 30.9449C71.8505 24.9945 68.9894 14.9724 76.6462 12.1889C77.8636 11.7463 82.8124 11.4907 84.2412 11.3926ZM160.546 94.9734L159.734 94.8761L79.6313 95.6378C77.7387 97.6645 75.9652 101.771 74.4914 104.364C71.6016 109.447 67.5093 116.012 65.8135 121.588L118.738 121.605L137.307 121.619C140.627 121.622 144.642 121.723 147.915 121.556C148.635 120.653 150.306 117.758 150.65 116.8C151.935 113.229 160.736 97.58 160.546 94.9734ZM18.7807 117.385C20.3336 119.613 21.9715 122.761 24.5315 119.679C24.5096 119.058 24.3458 118.005 24.6585 117.615C25.2536 117.519 25.9138 117.362 26.4959 117.447C26.9199 118.109 26.9089 119.207 26.956 120.012C27.1281 122.954 30.0209 124.538 32.5548 125.354C33.7209 124.983 35.2722 124.626 36.1309 123.834C37.6958 122.241 39.7886 119.995 38.8317 117.619C39.0666 117.054 39.2165 116.768 39.3076 116.154C39.0903 115.658 39.266 115.825 38.7727 115.629C37.8341 116.041 37.3196 116.702 36.5427 116.759C35.9296 116.416 36.1439 116.597 35.754 115.867C35.8697 113.7 39.4974 112.841 41.1672 111.996C41.5945 112.716 41.872 113.16 42.3778 113.822C42.0832 114.162 41.8583 114.443 41.589 114.803C41.6694 115.391 41.5975 115.179 42.1509 115.667C43.8511 116.269 46.1182 113.351 46.5489 112.029C47.3101 109.694 46.2361 106.225 45.1885 104.043C44.5296 102.681 43.6887 101.415 42.6885 100.279C41.5409 98.9954 39.6693 97.5201 38.8081 96.0642C38.6676 95.8268 38.8167 95.3488 38.903 95.0885C40.4371 93.806 42.314 97.2001 44.0142 96.7075C44.6592 95.3866 43.159 92.9934 42.2588 92.0569C39.3057 88.985 33.7186 86.9077 29.4866 87.1415C28.1551 87.9186 26.8181 88.6863 25.4755 89.4442C26.7256 89.9013 29.5142 90.7641 30.2567 91.6935C30.3056 92.9393 27.5776 93.1382 26.6171 93.2665C19.4127 94.2296 14.3277 100.762 13.81 107.793C13.5872 110.859 14.1319 112.25 16.0833 114.438C16.8974 112.87 17.1353 112.698 18.6534 111.768C18.6601 113.495 18.6098 115.705 18.7807 117.385ZM195.562 51.3683C195.603 51.2715 195.644 51.1764 195.684 51.083C197.753 46.2557 197.899 45.9167 202.36 42.4839C200.762 42.3148 199.09 42.1841 197.484 42.3302C194.809 43.7252 193.7 45.3487 192.67 48.1649C191.808 50.5205 192.833 51.3088 195.026 51.8136C195.475 51.5826 195.319 51.745 195.562 51.3683ZM158.416 184.659C157.719 184.604 156.792 184.503 156.114 184.535C155.792 184.724 155.344 184.91 155.309 185.372C155.16 187.332 156.324 189.618 157.484 191.118C158.13 191.952 158.332 191.935 159.274 192.119C161.245 190.452 159.454 186.494 158.416 184.659ZM205.35 43.761C203.291 45.2549 200.816 46.7232 199.764 49.0576C199.368 49.936 199.121 50.8605 198.723 51.7398C199.677 52.5559 202.553 55.5835 203.279 55.6037L203.524 55.3847C205.367 50.1577 206.533 49.0965 210.964 46.1816C209.108 45.0513 207.49 43.7084 205.35 43.761ZM69.5623 156.167C67.3178 153.016 66.303 151.999 62.5053 151.34C62.3492 152.221 62.2105 152.944 62.8097 153.699C64.8022 156.208 66.7116 157.452 69.6094 158.527C69.6522 157.581 69.6476 157.108 69.5623 156.167ZM216.227 53.9578C216.561 54.6304 217 55.4546 217.243 56.1456C215.893 64.1388 209.392 67.8846 203.233 61.5593C202.668 61.9349 202.104 62.2061 201.826 62.7927C201.548 65.1013 203.828 68.559 201.561 70.5632L201.218 70.627C200.345 69.8988 200.702 67.4426 198.823 65.0394C196.509 63.9812 189.755 62.5129 189.891 59.7256C190.015 59.5493 190.076 59.3392 190.308 59.3824C193.88 60.045 196.147 61.621 199.965 61.6056C200.493 60.7349 201.027 59.9145 201.411 58.9685C199.787 56.4158 198.667 54.9133 195.463 54.2062C195.33 54.1758 195.196 54.151 195.059 54.1311C195.016 54.1296 194.973 54.128 194.93 54.1265C192.867 54.0528 190.893 53.9822 188.828 54.1955C184.053 59.72 189.477 66.5987 193.873 70.3604C194.614 70.9946 197.773 72.8003 197.981 73.2618C197.812 73.8495 197.955 73.6372 197.334 74.0296C195.656 74.2579 194.279 73.2416 193.495 74.1765C193.469 74.8533 193.671 75.4584 194.16 75.9419C197.199 79.0072 201.07 80.7201 205.393 80.8451C207.013 80.892 209.347 80.7391 210.61 79.5537C211.249 78.9526 212.115 77.7747 211.993 76.8527C210.675 75.6926 207.76 78.6894 206.581 75.6983C207.08 74.8667 211.859 73.9588 213.544 72.6379C218.715 68.587 221.214 60.4825 219.829 54.1472C219.088 50.7619 216.605 48.1547 212.985 48.39C208.272 50.082 205.343 54.5529 205.406 59.5198C207.061 61.7265 209.16 63.4714 211.779 61.2182C214.062 59.2532 214.379 56.4268 216.227 53.9578ZM174.388 87.3943C174.955 86.2681 174.999 85.3793 174.993 84.1157C174.963 77.1206 174.724 70.0089 174.467 63.0213L173.709 38.539C173.623 36.1471 173.69 33.5161 173.542 31.1644C173.387 28.6893 174.257 21.3115 171.563 20.6495C171.006 22.4176 171.316 28.6592 171.29 30.8659C171.218 37.0086 171.36 43.2154 171.295 49.3644C171.231 55.366 171.866 61.2788 171.973 67.2934C172.026 71.3365 172.046 75.38 172.034 79.4237C172.037 81.0893 171.966 85.0879 172.301 86.5901C172.989 87.4887 173.343 87.4403 174.388 87.3943ZM157.471 160.963C157.129 163.947 154.035 170.49 154.438 171.627L154.69 171.704L154.962 171.547C155.415 171.085 156.204 170.301 156.507 169.75C157.488 167.965 160.25 161.979 157.471 160.963Z" fill="black"></path>
<path d="M216.227 53.9578C216.561 54.6304 217 55.4546 217.243 56.1456C215.893 64.1388 209.392 67.8846 203.233 61.5593C202.668 61.9349 202.104 62.2061 201.826 62.7927C201.548 65.1013 203.828 68.559 201.561 70.5632L201.218 70.627C200.345 69.8988 200.702 67.4426 198.823 65.0394C196.509 63.9812 189.755 62.5129 189.891 59.7256C190.015 59.5493 190.076 59.3392 190.308 59.3824C193.88 60.045 196.147 61.621 199.965 61.6056C200.493 60.7349 201.027 59.9145 201.411 58.9685C199.787 56.4158 198.667 54.9133 195.463 54.2062C195.33 54.1758 195.196 54.151 195.059 54.1311L194.93 54.1265C192.867 54.0528 190.893 53.9822 188.828 54.1955C184.053 59.72 189.477 66.5987 193.873 70.3604C194.614 70.9946 197.773 72.8003 197.981 73.2618C197.812 73.8495 197.955 73.6372 197.334 74.0296C195.656 74.2579 194.279 73.2416 193.495 74.1765C193.469 74.8533 193.671 75.4584 194.16 75.9419C197.199 79.0072 201.07 80.7201 205.393 80.8451C207.013 80.892 209.347 80.7391 210.61 79.5537C211.249 78.9526 212.115 77.7747 211.993 76.8527C210.675 75.6926 207.76 78.6894 206.581 75.6983C207.08 74.8667 211.859 73.9588 213.544 72.6379C218.715 68.587 221.214 60.4825 219.829 54.1472C219.088 50.7619 216.605 48.1547 212.985 48.39C208.272 50.082 205.343 54.5529 205.406 59.5198C207.061 61.7265 209.16 63.4714 211.779 61.2182C214.062 59.2532 214.379 56.4268 216.227 53.9578Z" fill="white"></path>
<path d="M195.562 51.3683L195.684 51.083C197.753 46.2557 197.899 45.9167 202.36 42.4839C200.762 42.3148 199.09 42.1841 197.484 42.3302C194.809 43.7252 193.7 45.3487 192.67 48.1649C191.808 50.5205 192.833 51.3088 195.026 51.8136C195.475 51.5826 195.319 51.745 195.562 51.3683Z" fill="white"></path>
<path d="M205.35 43.761C203.291 45.2549 200.816 46.7232 199.764 49.0576C199.368 49.936 199.121 50.8605 198.723 51.7398C199.677 52.5559 202.553 55.5835 203.279 55.6037L203.524 55.3847C205.367 50.1577 206.533 49.0965 210.964 46.1816C209.108 45.0513 207.49 43.7084 205.35 43.761Z" fill="white"></path>
<path d="M174.388 87.3943C174.955 86.2681 174.999 85.3793 174.993 84.1157C174.963 77.1206 174.724 70.0089 174.467 63.0213L173.709 38.539C173.623 36.1471 173.69 33.5161 173.542 31.1644C173.387 28.6893 174.257 21.3115 171.563 20.6495C171.006 22.4176 171.316 28.6592 171.29 30.8659C171.218 37.0086 171.36 43.2154 171.295 49.3644C171.231 55.366 171.866 61.2788 171.973 67.2934C172.026 71.3365 172.046 75.38 172.034 79.4237C172.037 81.0893 171.966 85.0879 172.301 86.5901C172.989 87.4887 173.343 87.4403 174.388 87.3943Z" fill="white"></path>
<path d="M18.7807 117.385C20.3336 119.613 21.9715 122.761 24.5315 119.679C24.5096 119.058 24.3458 118.005 24.6585 117.615C25.2536 117.519 25.9138 117.362 26.4959 117.447C26.9199 118.109 26.9089 119.207 26.956 120.012C27.1281 122.954 30.0209 124.538 32.5548 125.354C33.7209 124.983 35.2722 124.626 36.1309 123.834C37.6958 122.241 39.7886 119.995 38.8317 117.619C39.0666 117.054 39.2165 116.768 39.3076 116.154C39.0903 115.658 39.266 115.825 38.7727 115.629C37.8341 116.041 37.3196 116.702 36.5427 116.759C35.9296 116.416 36.1439 116.597 35.754 115.867C35.8697 113.7 39.4974 112.841 41.1672 111.996C41.5945 112.716 41.872 113.16 42.3778 113.822C42.0832 114.162 41.8583 114.443 41.589 114.803C41.6694 115.391 41.5975 115.179 42.1509 115.667C43.8511 116.269 46.1182 113.351 46.5489 112.029C47.3101 109.694 46.2361 106.225 45.1885 104.043C44.5296 102.681 43.6887 101.415 42.6885 100.279C41.5409 98.9954 39.6693 97.5201 38.8081 96.0642C38.6676 95.8268 38.8167 95.3488 38.903 95.0885C40.4371 93.806 42.314 97.2001 44.0142 96.7075C44.6592 95.3866 43.159 92.9934 42.2588 92.0569C39.3057 88.985 33.7186 86.9077 29.4866 87.1415C28.1551 87.9186 26.8181 88.6863 25.4755 89.4442C26.7256 89.9013 29.5142 90.7641 30.2567 91.6935C30.3056 92.9393 27.5776 93.1382 26.6171 93.2665C19.4127 94.2296 14.3277 100.762 13.81 107.793C13.5872 110.859 14.1319 112.25 16.0833 114.438C16.8974 112.87 17.1353 112.698 18.6534 111.768C18.6601 113.495 18.6098 115.705 18.7807 117.385Z" fill="white"></path>
<path d="M78.7286 14.8875C83.8922 14.7243 89.4767 14.8407 94.6761 14.8429L122.804 14.835L146.636 14.813C151.072 14.8085 160.785 14.2667 165.111 15.7707C167.883 16.7347 168.472 22.4883 168.36 25.4475C168.041 33.8115 168.538 42.2695 168.774 50.6956C168.915 57.663 169.008 64.6313 169.052 71.6C169.067 74.7214 169.076 77.8513 169.08 80.9718C169.085 84.2156 169.185 86.0954 167.482 88.9628C165.866 89.1843 164.133 89.1593 162.493 89.1728L102.343 89.7199L87.5126 89.7324C84.8558 89.7335 82.1696 89.7646 79.5148 89.6877C78.8587 89.6688 77.1357 89.5015 76.6313 89.1465C74.9383 87.9552 73.4222 86.067 72.9318 84.0222C72.2501 76.1057 73.3245 68.0144 73.3779 60.0659C73.4698 46.3578 73.4099 32.6717 74.2536 18.9809C74.417 16.3246 76.3975 15.3693 78.7286 14.8875Z" fill="#9E9D9E"></path>
<path d="M136.42 17.5155C141.387 17.4296 146.59 17.5733 151.568 17.5891C153.68 17.5957 159.067 17.5655 160.891 17.9504C161.964 18.1836 162.951 18.7122 163.74 19.4762C165.779 21.415 166.151 23.2982 166.151 25.9387C166.149 36.879 166.077 47.8288 166.079 58.7686L166.115 69.6508C166.119 72.0091 166.17 75.6411 165.786 77.9204C165.551 79.2372 164.924 80.4526 163.987 81.407C162.565 82.8406 160.678 83.6007 158.714 83.8527C153.604 84.5086 147.843 84.2743 142.676 84.3443C130.741 84.5701 118.804 84.6309 106.868 84.5264L91.4815 84.5674C86.9083 84.5768 79.7495 85.6738 77.7564 80.5112C76.7067 77.7927 76.9909 72.9896 76.9846 70.0128C76.9609 64.7068 76.9926 59.4008 77.0799 54.0955C77.1767 43.4351 77.0923 32.7113 77.8969 22.0785C78.0185 20.4706 79.4063 19.4499 80.5869 18.5852C82.0055 18.5782 83.5053 18.5171 84.9243 18.4203C96.0074 17.6644 106.994 17.842 118.095 17.8017C124.204 17.7614 130.312 17.666 136.42 17.5155Z" fill="black"></path>
<path d="M91.1627 20.8446C95.9735 20.7154 101.206 20.8044 106.057 20.8005L133.419 20.7768L150.015 20.7608C152.979 20.7586 156.017 20.6781 158.967 20.8513C161.803 21.0178 162.715 22.756 162.863 25.3566C163.023 28.1521 162.902 30.8625 162.847 33.6461C162.769 37.5939 162.743 41.5427 162.767 45.4911L162.985 62.4118C163.064 66.6486 163.275 70.8707 162.902 75.0998C162.527 79.3591 161.134 80.6613 157.062 80.9672C134.193 81.5333 111.316 81.7291 88.44 81.5543C87.017 80.0916 85.2119 77.9779 85.1364 75.8832C84.8631 68.2938 85.2447 60.6328 85.2588 53.0433L85.2421 36.3422C85.2161 32.6936 84.5246 25.1575 86.5763 21.8806C87.1533 20.9594 90.0218 20.9069 91.1627 20.8446Z" fill="#E96360"></path>
<path d="M106.197 36.3806C111.199 35.8501 113.568 42.5839 113.544 46.702C113.511 52.3778 112.487 56.4412 106.224 57.8594C104.179 57.1067 103.249 56.1544 101.786 54.6429C98.9341 51.0859 98.6671 47.1614 100.321 43.0276C101.674 44.3314 105.278 46.6226 106.956 47.7124C105.998 43.0485 104.715 41.7328 102.699 37.4958C103.852 37.081 105.025 36.7373 106.197 36.3806Z" fill="black"></path>
<path d="M136.029 35.755C136.886 35.6319 139.153 37.1679 139.886 37.7018C141.849 39.133 143.002 41.4146 143.31 43.8222C143.722 47.3982 143.487 52.1877 141.272 55.146C138.886 58.3337 135.788 57.6539 132.974 55.5346C130.728 53.2515 129.484 48.3398 130.166 45.1493C130.369 44.201 130.961 43.7256 131.632 43.0727C132.659 44.1053 134.633 46.4561 136.141 46.3902L136.375 45.9891C136.455 44.681 133.979 38.9013 133.329 37.4054C134.56 36.7797 134.928 36.6403 136.029 35.755Z" fill="black"></path>
<path d="M148.398 57.078C150.952 57.0313 155.674 58.9113 154.823 62.2948C154.696 62.7997 154.454 62.9279 154.041 63.1252C153.355 63.0992 152.84 62.7468 152.216 62.4209C151.342 63.0327 149.978 65.6339 148.898 66.6357C144.676 70.553 139.592 73.989 133.765 74.785C131.77 75.0578 129.342 74.955 127.315 74.8985C125.253 74.6204 122.312 74.4043 122.385 71.809C122.628 71.5055 122.881 71.4228 123.289 71.4903C134.867 73.4022 142.875 70.2046 149.979 60.623C148.398 59.2283 148.193 59.1718 148.398 57.078Z" fill="black"></path>
<path d="M133.54 26.0258C135.561 25.798 138.507 25.9348 140.179 27.156C140.898 27.6821 140.774 28.7422 140.173 29.3308C139.707 29.4316 137.457 29.0796 136.677 29.0258C135.21 28.9516 129.668 29.9164 129.605 28.0848C130.436 26.7301 132.097 26.3733 133.54 26.0258Z" fill="black"></path>
<path d="M102.779 26.531C104.547 26.3757 106.709 26.5846 108.463 26.7594C109.234 27.2664 110.019 27.8877 110.477 28.6915C110.521 29.2711 110.589 29.051 110.217 29.5121C109.505 29.884 108.325 29.7019 107.48 29.6506C106.92 29.6398 106.322 29.4581 105.677 29.4576C104.234 29.4564 102.596 29.8265 101.183 29.6011C100.58 29.5048 100.499 29.3461 100.254 28.9514C100.361 27.7555 101.73 26.8714 102.779 26.531Z" fill="black"></path>
<path d="M81.9611 22.5498L82.2464 22.8275C82.5195 34.0854 82.2902 45.7792 82.298 57.0664L82.3128 70.3777C82.3145 72.1411 82.623 77.9998 81.7463 79.1005C81.1031 79.3593 80.9691 79.3289 80.2993 79.259C78.9313 75.503 79.4725 70.7593 79.6373 66.7558C79.8217 62.5428 79.9552 58.3278 80.0381 54.1115C80.247 44.5788 79.6506 34.8961 80.6823 25.3983C80.8206 24.1258 81.2062 23.5529 81.9611 22.5498Z" fill="#FAFAFB"></path>
<path d="M166.709 94.4675C163.852 100.853 160.398 106.963 157.329 113.265C155.12 117.407 153.609 122.05 151.223 126.079C148.629 130.458 142.672 129.783 138.351 129.796C134.918 129.793 131.486 129.858 128.056 129.99C107.3 130.983 86.7908 132.088 65.9955 131.526C63.8908 131.469 60.8719 131.643 59.3343 129.999C56.9797 127.482 58.2379 124.076 59.5483 121.388C64.858 112.275 70.2276 102.526 76.7479 94.2567C78.3196 92.2636 89.7068 93.1373 92.6112 93.1447L118.744 93.0615L147.853 92.7297C151.488 92.7219 156.486 92.6134 160.045 92.8311C161.703 92.8811 165.307 92.8726 166.69 93.6868C166.846 94.1966 166.838 93.9456 166.709 94.4675ZM65.8135 121.588L118.738 121.605L137.307 121.619C140.627 121.622 144.642 121.723 147.915 121.555C148.634 120.653 150.306 117.758 150.65 116.8C151.935 113.229 160.736 97.5798 160.546 94.9732L159.734 94.8759L79.6312 95.6377C77.7386 97.6643 75.9652 101.771 74.4913 104.363C71.6015 109.447 67.5092 116.012 65.8135 121.588Z" fill="#9E9D9E"></path>
<path d="M79.8178 95.7618L159.92 95L160.732 95.0973C160.922 97.7039 152.122 113.353 150.837 116.924C150.492 117.882 148.821 120.777 148.101 121.679C144.828 121.847 140.814 121.746 137.494 121.743L118.924 121.729L66 121.712C67.6958 116.136 71.788 109.571 74.6779 104.487C76.1517 101.895 77.9251 97.7884 79.8178 95.7618ZM137.853 118.782C140.93 118.744 143.603 118.816 146.658 118.88C148.046 115.88 149.498 113.082 150.911 109.986C148.26 109.851 144.725 109.841 142.049 109.92C140.579 111.406 139.228 116.705 137.853 118.782ZM145.3 106.96C147.147 106.941 150.144 107.004 151.9 106.846C154.317 103.899 154.818 100.916 156.527 98.0721L154.284 98.1032C151.982 98.1644 149.198 98.3068 146.936 98.248C145.936 100.435 144.016 105.293 143.054 107.089C143.72 107.046 144.656 106.957 145.3 106.96ZM127.445 118.798C128.899 118.786 133.492 118.836 134.56 118.667C136.192 116.054 137.218 112.776 138.981 109.878C137 109.906 133.628 110.052 131.758 109.865C131.36 110.996 128.106 117.824 127.445 118.798ZM117.818 118.688C119.752 118.739 121.928 118.774 123.873 118.714C125.202 117.623 127.082 112.054 128.531 109.99C126.666 109.98 124.696 110.005 122.842 109.959C122.364 110.021 122.004 109.994 121.696 110.469C120.071 112.969 119.324 116.116 117.818 118.688ZM114.297 118.709C114.769 118.425 117.909 111.637 118.449 110.599C116.255 110.552 114.062 110.48 111.87 110.385C109.851 112.976 109.366 116.214 107.555 118.786C109.802 118.742 112.049 118.717 114.297 118.709ZM135.712 100.885C134.684 102.809 133.614 105.812 132.597 107.364C133.943 107.08 139.711 106.755 139.974 106.582C140.228 106.039 140.314 105.812 140.478 105.237C141.322 102.895 142.507 100.838 143.509 98.5704L143.389 98.3485C142.634 98.4002 141.765 98.4356 141.009 98.4508C138.062 98.5096 137.062 98.0024 135.712 100.885ZM128.327 107.21L128.932 107.205C130.45 106.311 132.535 99.8854 133.705 98.0135C131.563 98.7306 129.476 98.8639 127.242 99.1091C126.832 99.1852 126.903 99.0843 126.706 99.3937C125.172 101.808 124.253 105.007 122.974 107.5C124.574 107.398 126.77 107.196 128.327 107.21ZM94.1574 107.519L98.1071 107.459C99.7471 107.374 99.5813 107.652 100.786 106.425C101.592 105.605 104.526 99.6759 104.452 98.9447L104.005 98.913C102.272 99.0058 100.815 98.9558 99.0778 98.8962C99.072 98.896 99.0661 98.8958 99.0602 98.8956C97.9279 99.9884 97.6485 100.537 97.0421 101.995C96.5393 103.498 95.0884 106.229 94.1574 107.519ZM102.861 109.809C102.256 111.499 99.438 117.223 98.474 118.683C100.501 118.729 102.528 118.758 104.556 118.769C105.005 117.503 107.956 111.127 108.673 109.951C106.91 110.03 104.521 110.222 102.861 109.809ZM92.4125 111.769C92.0844 112.211 88.9769 117.911 88.7993 118.458L89.0683 118.645C90.402 118.815 93.7827 118.851 94.8638 118.414C96.1055 117.911 98.6162 111.69 99.3231 110.216C98.1954 110.435 97.6587 110.431 96.533 110.438C95.1991 110.382 94.516 110.324 93.1919 110.104L92.4125 111.769ZM113.621 98.8515C112.244 98.885 109.197 99.0346 107.962 98.8641C106.731 101.676 105.414 104.858 104.063 107.58C105.682 107.576 108.052 107.648 109.609 107.551C110.945 104.714 112.408 101.725 113.621 98.8515Z" fill="black"></path>
<path d="M92.4125 111.769C92.0844 112.211 88.9769 117.911 88.7993 118.458L89.0683 118.645C90.402 118.815 93.7827 118.851 94.8638 118.414C96.1055 117.911 98.6162 111.69 99.3231 110.216C98.1954 110.435 97.6587 110.431 96.533 110.438C95.1991 110.382 94.516 110.324 93.1919 110.104L92.4125 111.769Z" fill="white"></path>
<path d="M102.861 109.809C102.256 111.499 99.438 117.223 98.474 118.683C100.501 118.729 102.528 118.758 104.556 118.769C105.005 117.503 107.956 111.127 108.673 109.951C106.91 110.03 104.521 110.222 102.861 109.809Z" fill="white"></path>
<path d="M114.297 118.709C114.769 118.425 117.909 111.637 118.449 110.599C116.255 110.552 114.062 110.48 111.87 110.385C109.851 112.976 109.366 116.214 107.555 118.786C109.802 118.742 112.049 118.717 114.297 118.709Z" fill="white"></path>
<path d="M117.818 118.688C119.752 118.739 121.928 118.774 123.873 118.714C125.202 117.623 127.082 112.054 128.531 109.99C126.666 109.98 124.696 110.005 122.842 109.959C122.364 110.021 122.004 109.994 121.696 110.469C120.071 112.969 119.324 116.116 117.818 118.688Z" fill="white"></path>
<path d="M128.327 107.21L128.932 107.205C130.45 106.311 132.535 99.8854 133.705 98.0135C131.563 98.7306 129.476 98.8639 127.242 99.1091C126.832 99.1852 126.903 99.0843 126.706 99.3937C125.172 101.808 124.253 105.007 122.974 107.5C124.574 107.398 126.77 107.196 128.327 107.21Z" fill="white"></path>
<path d="M135.712 100.885C134.684 102.809 133.614 105.812 132.597 107.364C133.943 107.08 139.711 106.755 139.974 106.582C140.228 106.039 140.314 105.812 140.478 105.237C141.322 102.895 142.507 100.838 143.509 98.5704L143.389 98.3485C142.634 98.4002 141.765 98.4356 141.009 98.4508C138.062 98.5096 137.062 98.0024 135.712 100.885Z" fill="white"></path>
<path d="M113.621 98.8515C112.244 98.885 109.197 99.0346 107.962 98.8641C106.731 101.676 105.414 104.858 104.063 107.58C105.682 107.576 108.052 107.648 109.609 107.551C110.945 104.714 112.408 101.725 113.621 98.8515Z" fill="white"></path>
<path d="M94.1574 107.519L98.1071 107.459C99.7471 107.374 99.5813 107.652 100.786 106.425C101.592 105.605 104.526 99.6759 104.452 98.9447L104.005 98.913C102.272 99.0058 100.815 98.9558 99.0778 98.8962L99.0602 98.8956C97.9279 99.9884 97.6485 100.537 97.0421 101.995C96.5393 103.498 95.0884 106.229 94.1574 107.519Z" fill="white"></path>
<path d="M145.3 106.96C147.147 106.941 150.144 107.004 151.9 106.846C154.317 103.899 154.818 100.916 156.527 98.0721L154.284 98.1032C151.982 98.1644 149.198 98.3068 146.936 98.248C145.936 100.435 144.016 105.293 143.054 107.089C143.72 107.046 144.656 106.957 145.3 106.96Z" fill="white"></path>
<path d="M137.853 118.782C140.93 118.744 143.603 118.816 146.658 118.88C148.046 115.88 149.498 113.082 150.911 109.986C148.26 109.851 144.725 109.841 142.049 109.92C140.579 111.406 139.228 116.705 137.853 118.782Z" fill="white"></path>
<path d="M127.445 118.798C128.899 118.786 133.492 118.836 134.56 118.667C136.192 116.054 137.218 112.776 138.981 109.878C137 109.906 133.628 110.052 131.758 109.865C131.36 110.996 128.106 117.824 127.445 118.798Z" fill="white"></path>
<path d="M112.829 107.287L116.778 107.228C118.418 107.142 118.253 107.42 119.457 106.193C120.264 105.373 123.197 99.444 123.124 98.7128L122.676 98.6811C120.943 98.7738 119.487 98.7239 117.749 98.6643L117.731 98.6637C116.599 99.7565 116.32 100.305 115.713 101.763C115.211 103.266 113.76 105.997 112.829 107.287Z" fill="white"></path>
<path d="M83.1581 110.019C84.7 110.191 86.572 110.262 88.1434 110.362L87.5088 110.991C87.4258 111.973 87.6766 111.405 87.9157 112.392C87.5876 113.475 85.6618 118.135 84.8945 118.656C82.8693 118.671 80.6813 118.506 78.6465 118.391C79.8619 116.767 81.8435 112.238 83.1581 110.019Z" fill="#FAFAFB"></path>
<path d="M90.0211 98.6325C91.665 98.5997 93.4287 98.7346 95.0807 98.8312C93.8394 101.602 92.1748 105.105 90.2009 107.441L88.0328 107.307C87.5195 107.27 87.4779 107.255 86.9909 107.077C86.6287 106.576 86.761 106.27 86.6303 105.616C86.1682 105.816 85.6391 106.485 85.1211 106.935C86.2167 103.899 87.6635 100.87 90.0211 98.6325Z" fill="#FAFAFB"></path>
<path d="M75.2635 109.67C76.2256 109.741 78.4472 110.347 79.3967 110.613C78.4305 112.952 77.1233 116.079 75.7156 118.2C75.394 118.685 75.076 118.618 74.5727 118.655L69.9326 118.578C71.7541 115.151 73.1398 112.885 75.2635 109.67Z" fill="#FAFAFB"></path>
<path d="M84.3507 98.7063C84.9935 98.6336 85.2039 98.6312 85.8494 98.6775L85.9508 98.8889C84.4553 101.665 82.5845 105.082 80.6741 107.515L78.651 107.525C77.9964 107.529 77.1128 107.597 76.5381 107.358C76.9858 105.951 80.4057 100.075 81.5532 98.8926L84.3507 98.7063Z" fill="#FAFAFB"></path>
<path d="M127.055 98.9853C129.288 98.74 131.376 98.6067 133.518 97.8896C132.348 99.7615 130.263 106.187 128.745 107.082L128.14 107.086L128.352 106.654C127.788 105.6 124.965 105.63 125.484 104.142L126.034 103.912C126.2 103.906 126.319 103.906 126.473 103.985C127.845 104.685 128.549 103.386 128.835 103.311L129.311 103.946C130.782 103.184 131.142 98.8704 126.607 100.247C127.072 99.6269 127.02 99.7812 127.806 99.4325L127.859 99.2613L127.055 98.9853Z" fill="#544C51" fill-opacity="0.0313725"></path>
<path d="M135.525 100.761C136.876 97.8785 137.875 98.3857 140.822 98.3269C141.578 98.3117 142.447 98.2763 143.202 98.2246L143.322 98.4465C142.32 100.714 141.135 102.771 140.292 105.113L139.755 104.717C139.951 103.516 142.208 100.576 140.975 99.0874L140.643 99.2116C140.221 99.7867 140.293 100.429 140.277 101.154C140.187 100.722 140.138 100.474 139.992 100.059L139.435 99.8012C138.857 99.8084 138.672 99.9634 138.199 100.269L138.04 100.372C137.408 100.186 137.634 99.5164 137.067 99.3555C136.895 100.833 136.56 103.388 135.813 104.684C135.733 104.822 135.507 104.815 135.296 104.856C134.46 104.149 136.495 102.568 136.217 100.917L135.959 101.067L135.525 100.761Z" fill="#332D30" fill-opacity="0.0235294"></path>
<path d="M126.607 100.247C131.143 98.8699 130.782 103.184 129.311 103.945L128.835 103.31C128.55 103.385 127.845 104.684 126.473 103.984C126.319 103.906 126.2 103.905 126.034 103.912C126.391 103.821 126.258 103.915 126.477 103.672L126.233 103.684C126.603 102.729 126.655 102.283 126.814 101.259C126.614 100.858 126.615 100.695 126.607 100.247Z" fill="#7A6565" fill-opacity="0.0117647"></path>
<path d="M160.045 92.8311C161.703 92.8811 165.307 92.8726 166.69 93.6868C166.846 94.1966 166.838 93.9456 166.709 94.4675C165.601 94.4469 161.433 94.5895 160.546 94.9732L159.734 94.8759C159.416 94.7919 159.099 94.7029 158.784 94.6089C158.785 93.9536 159.498 93.4247 160.045 92.8311Z" fill="#CDCACB"></path>
<path d="M44.0285 157.638C51.657 157.467 56.6998 165.818 60.0299 171.432C61.8024 174.367 63.4993 177.347 65.1189 180.369C66.5545 183.052 68.7469 187.239 70.8035 189.451C68.672 189.907 66.4937 190.787 64.1091 191.282C61.1732 191.922 58.8911 192.128 55.9123 192.091C54.6164 191.075 53.2143 189.519 52.0831 188.303C46.4172 182.209 35.1697 168.006 39.0595 159.154C40.7628 158.02 42.0393 157.942 44.0285 157.638Z" fill="#E96360"></path>
<path d="M112.208 139.602C114.747 139.735 120.855 140.131 123.106 139.749C116.158 146.743 110.121 155.47 104.025 163.264C101.493 166.5 98.8829 170.886 96.5763 174.368C95.8474 175.46 95.1598 176.609 94.4707 177.729C93.7818 174.183 90.5045 172.031 88.2744 168.517C92.9032 162.052 105.953 142.667 112.208 139.602Z" fill="#E96360"></path>
<path d="M119.812 148.416C120.924 149.132 123.23 152.937 124.487 154.228C129.937 159.824 141.762 156.505 148.996 156.456C150.424 159.125 150.55 162.346 150.587 165.286C149.28 165.376 147.048 165.832 145.689 166.071C138.179 167.575 128.455 168.101 121.701 164C117.62 161.521 115.489 159.284 114.532 154.452C115.858 152.634 118.13 150.675 119.812 148.416Z" fill="#E96360"></path>
<path d="M72.0332 192.072L72.4615 192.128C74.6843 193.893 76.7582 196.761 77.8457 199.378C78.4532 200.732 79.5954 205.072 77.2775 205.554C74.6895 206.09 70.5317 204.06 68.3927 202.791C65.0669 200.863 61.665 197.754 58.5732 195.304C62.1114 195.081 68.7576 193.211 72.0332 192.072Z" fill="#E96360"></path>
<path d="M42.1553 154.894C47.831 152.205 51.3569 154.034 55.8716 157.587C57.8866 159.145 61.0627 161.977 62.2297 164.281C63.0694 165.233 64.706 168.417 65.4214 169.698C68.1718 174.623 70.659 179.793 73.6215 184.591C76.3391 188.993 81.444 192.615 82.9184 197.552C83.9614 201.045 83.3561 202.279 81.7949 205.216C81.3292 195.861 77.3773 193.707 72.4276 186.271C66.2184 176.941 61.9667 165.245 53.2499 157.851C49.9798 155.078 46.1751 154.909 42.1553 154.894Z" fill="url(#paint0_linear_78_5175)"></path>
<path d="M55.8711 157.587C57.8861 159.145 61.0622 161.977 62.2292 164.281C59.4558 162.838 57.0533 160.523 55.8711 157.587Z" fill="#AE515C"></path>
<path d="M166.141 144.595C166.402 144.597 167.102 144.595 167.269 144.729C171.98 148.493 177.235 159.518 178.87 164.902C181.972 175.112 181.824 188.507 176.878 197.842C176.535 198.062 176.545 198.09 176.123 198.07C175.705 197.328 176.537 195.357 176.839 194.497C181.765 180.441 178.317 164.209 170.7 151.772C169.728 150.185 166.419 146.199 166.141 144.595Z" fill="#E96360"></path>
<path d="M80.1309 171.339C80.67 171.292 81.1514 171.308 81.69 171.315C82.6195 171.84 84.4011 177.492 84.1981 178.048C83.5798 178.164 83.3524 178.195 82.7168 178.218C82.3107 177.744 82.3958 176.164 82.0604 175.33C81.5007 173.939 80.6826 172.7 80.1309 171.339Z" fill="#FAFAFB"></path>
<defs>
<linearGradient id="paint0_linear_78_5175" x1="62.615" y1="179.343" x2="69.4608" y2="173.92" gradientUnits="userSpaceOnUse">
<stop stop-color="#EF7E6F"></stop>
<stop offset="1" stop-color="#CD6977"></stop>
</linearGradient>
</defs>
</svg>