<svg width="234" height="240" viewBox="0 0 234 240" fill="none" xmlns="http://www.w3.org/2000/svg">
<g clip-path="url(#clip0_61_472)">
<path d="M83.4016 22.7099C84.0145 22.6883 84.6275 22.6731 85.2406 22.6641C101.518 22.4586 118.137 22.6588 134.455 22.5945C140.844 22.5393 147.233 22.549 153.622 22.6233C156.454 22.6638 159.386 22.6308 162.225 22.9368C166.301 23.3761 170.195 26.9929 171.137 30.9482C171.426 32.1674 171.309 33.7459 171.453 35.0286C172.254 42.1356 171.91 49.2585 172.017 56.3927C172.071 59.6491 172.516 62.8815 172.594 66.1389C172.774 73.7579 172.714 81.3895 172.775 89.0103C172.807 92.9319 170.372 95.8564 166.353 95.8537C166.943 98.594 167.02 103.213 168.834 104.69C171.721 107.039 174.973 107.365 178.458 107.244C179.454 105.561 180.031 104.211 181.548 102.939C183.24 101.52 185.317 102.05 186.1 101.71C188.8 100.479 190.655 98.6569 193.69 98.105C196.438 97.6054 200.191 97.9581 202.52 96.2038C204.521 94.6963 206.038 92.3841 208.851 92.365C210.921 92.3245 212.547 93.4922 213.11 95.5045C214.361 99.974 211.055 104.415 206.783 105.515C211.854 108.662 224.142 111.747 223.782 120.05C223.74 120.994 222.71 122.603 222.439 123.59C221.579 126.723 222.358 128.044 219.543 130.166C218.456 130.337 216.679 130.435 215.534 130.533C212.792 132.719 212.382 134.379 207.989 132.77C205.755 131.952 203.94 130.07 201.86 129.093C197.111 126.864 192.444 125.56 188.238 122.246C184.918 123.472 183.647 122.836 180.811 120.834C178.841 120.791 176.515 121.003 174.587 120.864C170.295 120.554 165.562 118.74 162.259 115.981C160.799 117.652 160.029 119.84 159.172 121.854C157.591 125.57 154.949 132.027 151.934 134.65C150.752 135.679 149.419 136.414 147.891 136.781C145.261 137.414 133.66 137.252 130.559 137.028C132.466 139.915 133.373 143.039 134.756 146.241C137.904 153.532 140.501 160.193 144.202 167.221C144.646 167.119 146.089 166.741 146.437 166.954C148.207 168.035 150.97 169.852 150.169 172.172L150.109 172.342C150.371 172.385 151.929 171.637 152.271 171.479C162.669 166.695 176.564 168.328 181.742 179.674C182.946 182.312 185.329 193.523 184.055 195.604C180.579 201.275 167.534 201.161 161.66 201.784C160.281 201.901 157.799 201.388 156.531 201.359C147.956 201.165 139.707 199.118 131.726 196.089C129.93 195.411 127.067 194.045 126.45 192.164C125.155 188.214 126.925 182.32 127.167 178.311C127.294 176.198 124.885 174.632 126.329 171.11C127.038 169.965 127.75 169.252 128.667 168.266C127.676 166.122 126.843 163.587 125.918 161.359L116.642 139.347C116.516 139.052 116.146 138.168 115.934 138.091C113.693 137.268 106.71 138.05 104.581 138.411C105.035 141.487 106.092 144.396 106.864 147.392C107.995 151.782 109.116 156.172 110.298 160.549C110.687 161.991 111.085 163.391 111.268 164.876C114.278 166.707 114.544 166.109 117.157 169.124C117.202 171.7 117.402 173.36 116.495 175.789C117.952 179.209 120.073 187.385 119.083 190.989C118.705 192.364 116.421 193.35 115.246 194.026C108.498 197.913 100.908 199.802 93.2867 201.031C91.129 201.38 88.9484 201.771 86.7642 201.886C80.2939 202.226 72.9502 201.527 66.6908 199.822C65.2017 199.416 63.2964 198.801 62.5072 197.357C61.215 194.993 62.871 185.076 63.7457 182.313C65.0899 178.067 67.2034 174.718 71.2699 172.631C76.4263 169.985 81.4291 169.938 87.0127 170.798C89.1729 171.131 91.3492 171.524 93.4341 172.188C93.4463 169.131 94.8534 168.31 96.9472 166.204C96.9679 164.469 96.0287 161.282 95.5544 159.476C94.461 155.379 93.4119 151.27 92.4074 147.15C91.7689 144.52 90.7696 141.037 90.7836 138.398C86.762 138.599 82.4653 138.501 78.4148 138.485C73.669 138.467 68.5074 138.878 64.0344 137.128C60.627 135.631 60.4585 132.524 60.2928 129.452C60.0182 124.369 61.7092 122.688 63.5818 118.494C60.7605 118.48 57.0211 117.437 54.2252 116.748C50.3813 118.321 50.0585 119.997 45.7909 117.384C45.4322 117.661 45.059 117.92 44.6734 118.159C41.2891 120.27 36.5076 120.903 32.9445 122.415C28.8487 124.204 21.3432 129.635 18.4058 123.456C17.8677 122.324 14.4574 123.909 12.7006 120.848C12.5307 120.558 12.407 120.243 12.3341 119.916C12.1453 119.049 12.1952 117.905 12.0418 116.973C11.8281 115.674 11.2117 113.9 11.1211 112.645C11.0653 111.887 11.1424 111.125 11.3488 110.394C12.5826 106.134 18.47 103.1 22.3413 101.723C24.1071 101.095 26.8343 100.332 28.3586 99.4763C28.2962 98.1377 24.004 95.2252 23.6478 92.9542C23.1955 90.0708 24.3194 86.0588 27.7733 85.6641C30.9864 85.2969 33.5229 89.7803 36.0751 91.1947C38.695 92.6466 42.0946 92.779 44.8111 94.0625C45.9894 94.6295 48.1644 96.7071 49.2779 97.6688C50.0856 97.7939 51.6854 97.7642 52.3485 97.9465C55.0345 98.7379 55.7731 101.365 57.3618 103.233C58.9551 105.106 65.7415 104.957 67.8519 104.309C70.7372 103.423 74.4382 100.198 76.5954 98.1365C76.8691 97.8749 77.6805 96.8868 77.6502 96.3641C76.7823 94.127 74.5134 92.0743 74.5117 89.5066C74.4584 85.076 74.5943 80.6134 74.5291 76.1856C74.3908 66.7982 74.4611 57.638 75.1655 48.275C75.6125 42.3303 74.7632 35.746 75.3334 29.7348C75.4922 28.06 76.3018 25.95 77.4787 24.707C79.2206 22.8472 81.0116 22.7555 83.4016 22.7099ZM70.7028 122.879C75.6794 123.59 81.6339 123.386 86.7578 123.387L127.546 123.118C130.976 123.074 134.405 123.057 137.835 123.066C139.952 123.067 142.109 123.153 144.22 123C144.882 122.951 145.705 122.94 146.2 122.445C146.714 121.931 147.09 121.27 147.426 120.632C148.529 118.535 157.07 100.542 157.098 99.6236C157.106 99.3633 157.031 99.133 156.934 98.8957C155.774 98.0478 143.092 98.4149 140.887 98.5505C126.031 98.9963 111.222 98.8402 96.3552 99.1879C94.5817 99.2294 83.8766 98.9414 82.8228 100.07C81.5467 101.436 79.4095 105.992 78.2452 107.866C75.6186 112.561 71.9335 117.614 70.7028 122.879ZM198.376 109.113L198.488 112.517C197.199 111.387 196.055 110.109 194.665 109.126C191.711 107.036 188.238 106.676 185.084 108.548C184.96 108.515 184.837 108.482 184.711 108.448C183.706 107.269 185.654 105.247 186.426 104.388C184.507 104.538 184.183 104.622 182.369 105.46C180.845 107.52 180.44 111.675 180.733 114.213C180.874 115.433 181.476 116.779 181.719 118.023C183.613 119.441 184.395 119.887 186.668 120.677C185.981 119.557 182.997 115.192 184.634 114.209C185.561 114.254 187.361 117.642 188.253 118.662C191.727 122.632 196.49 123.456 200.895 125.614C203.801 126.892 212.227 134.167 213.296 128.69C212.305 126.04 210.766 124.652 208.509 123.009C207.162 122.03 205.234 120.654 203.531 120.505C202.313 120.398 200.676 121.486 199.806 120.051C199.94 118.866 202.793 118.293 203.608 117.159C205.362 114.718 205.516 112.78 207.925 110.77C207.893 111.507 207.771 112.486 208.067 113.126C209.454 114.308 212.687 115.142 214.326 116.23C216.75 117.841 218.935 119.757 221.315 121.466C221.392 120.168 221.554 119.01 220.897 117.844C217.314 111.478 207.16 111.007 203.634 104.757C206.056 103.301 207.358 103.233 209.604 101.029C211.536 99.1339 211.424 94.5297 208.462 94.382C205.476 95.6805 204.697 98.3845 202.532 99.2512C198.569 100.838 193.392 99.376 189.851 102.908C189.279 103.477 187.86 104.054 188.387 105.061C192.556 105.819 194.884 105.416 198.376 109.113ZM31.6651 114.207C31.1049 114.351 30.547 114.504 29.9915 114.666C26.248 115.771 22.3234 117.829 20.3961 121.361C21.1416 122.618 21.8306 124.442 23.5588 123.93C26.3951 123.091 28.9105 121.443 31.5776 120.21C36.7843 117.809 43.5516 117.682 47.4055 112.879C48.1144 111.995 49.6583 109.58 50.9491 110.628C51.1041 112.261 48.0521 114.152 48.5321 115.692C49.414 116.225 50.7305 115.611 51.4578 115.03C55.0592 112.157 56.2065 105.506 53.1846 101.867C52.6448 101.217 51.2812 99.8259 50.4636 99.7684C49.7059 100.598 51.1944 102.821 50.4551 104.05C49.6072 104.364 45.528 102.866 44.4066 102.504C43.8128 102.667 42.5066 102.982 42.004 103.291C40.9055 103.966 38.5938 106.467 37.2306 105.868C36.6427 104.459 38.6212 102.557 39.705 101.92C41.3956 100.927 43.783 100.671 45.7088 100.805C46.4536 100.857 47.6264 101.178 48.3882 101.361C44.5006 94.1123 38.8652 96.3886 33.8348 92.949C33.0618 92.4178 32.349 91.8038 31.7087 91.118C30.8523 90.1937 29.5936 88.0758 28.5413 87.7263C27.3699 87.8776 25.5673 90.1377 25.7187 91.1387C26.245 94.6181 29.3909 96.4418 31.9693 98.3313C32.3644 98.6208 32.3774 98.7811 32.3864 99.1618C30.7875 101.847 24.4247 103.62 21.6093 104.825C20.0899 105.46 18.6401 106.25 17.2833 107.183C15.8241 108.179 14.0634 109.567 13.7639 111.402C13.5911 112.462 13.9714 112.772 14.6007 113.679C17.6568 109.533 21.8463 108.884 26.3151 106.939C27.0418 106.623 26.8403 105.609 27.5796 105.072C27.8173 105.084 28.902 105.2 28.9511 105.399C29.9765 109.559 30.7034 110.672 34.033 113.426C32.9501 114.131 33.6215 114.15 33.2235 114.984C32.7857 114.81 32.1081 114.436 31.6651 114.207ZM76.2236 173.814C75.3661 174.14 72.6437 174.975 73.2788 176.117C74.9044 177.121 77.3099 176.62 79.2132 176.8C80.6604 176.452 81.3824 175.807 82.3403 174.661C80.0686 173.733 78.6865 173.623 76.2236 173.814ZM137.373 177.465C139.105 177.345 145.917 174.928 146.248 173.294C146.085 172.873 146.219 173.019 145.902 172.79C144.954 172.994 137.125 176.3 136.869 176.784C137.036 177.171 137.052 177.18 137.373 177.465ZM26.9189 109.312C23.0234 110.508 19.4637 111.873 16.5389 114.844C15.6009 115.797 14.0125 117.078 14.4184 118.629C14.7284 119.814 16.2167 120.412 17.2634 120.856C18.2173 119.885 19.2074 118.901 20.1318 117.899C21.9102 115.972 23.4049 114.461 25.9965 113.661C26.9834 113.357 28.4081 112.619 29.5981 112.629C29.6389 112.544 29.6797 112.46 29.7205 112.376C29.4715 111.466 27.8542 109.603 26.9189 109.312ZM167.568 75.9131C167.572 79.9401 167.43 86.7238 167.704 91.0119C167.745 91.6518 169.019 91.7686 169.715 91.3552C170.556 89.7949 169.743 83.7954 169.706 81.6522C169.664 79.2677 169.605 76.4993 169.5 74.1068L169.456 70.023C169.644 68.9065 169.594 66.5204 169.579 65.3783C169.654 62.373 169.427 59.4728 169.351 56.4747L168.729 37.2721C168.546 35.7674 168.673 34.3235 168.447 32.8713C168.244 31.5697 167.781 31.3467 166.742 30.6731L166.77 37.3408C166.766 41.3166 166.95 45.3508 167.075 49.3343C167.192 53.076 167.154 57.684 167.522 61.3666L167.578 68.3856C167.372 70.0794 167.554 74.0682 167.568 75.9131ZM96.8477 172.081C97.5345 174.714 104.425 176.474 106.949 176.148C106.947 175.478 107.049 175.622 106.722 175.18C105.02 174.376 104.03 174.622 102.34 174.152C100.803 173.726 98.3695 172.187 96.8477 172.081ZM170.851 175.518C171.308 175.127 171.7 174.896 171.824 174.335C171.186 172.454 166.282 172.379 164.577 172.455C163.887 173.418 163.692 174.319 164.864 174.98C166.792 176.065 168.899 176.676 170.851 175.518ZM207.243 115.79L205.548 118.465C209.45 120.295 215.081 123.706 215.455 128.446L217.517 128.075C218.141 127.825 218.766 127.579 219.392 127.338C219.377 126.018 219.357 125.289 219.169 123.979C216.188 120.531 214.317 118.808 210.092 116.879C209.401 116.563 207.949 115.923 207.243 115.79Z" fill="black"/>
<path d="M82.2136 25.2029C86.7599 24.9184 93.258 25.1647 97.9625 25.167C107.271 25.0825 116.58 25.0783 125.888 25.1543C132.764 25.194 139.639 25.1926 146.515 25.15C150.455 25.1497 154.322 25.1626 158.263 25.3009C162.112 25.4359 163.721 27.6325 163.859 31.455C164.136 39.1352 163.71 46.9205 163.901 54.6046L164.658 78.9075C164.727 82.037 164.761 85.215 164.823 88.3398C164.903 92.4268 163.173 93.0472 159.373 93.1811C146.13 93.1562 132.972 93.6556 119.738 93.7035C114.215 93.7236 108.689 93.697 103.165 93.7004L89.2021 93.7531C86.6009 93.7519 83.8276 93.7786 81.2419 93.6072C75.4565 93.2236 76.6745 84.9348 76.7913 80.7525L77.2882 64.2574C77.5558 52.8994 77.1578 41.5705 77.9568 30.2208C78.1781 27.0778 79.145 25.7579 82.2136 25.2029Z" fill="#9F9E9E"/>
<path d="M134.678 27.7754C134.829 27.77 134.98 27.7658 135.131 27.7629C139.454 27.717 143.778 27.7212 148.101 27.7754C161.864 27.8873 162.004 28.7697 161.97 42.3392L162.003 53.9731C162.053 60.6574 162.056 67.3421 162.012 74.0264C161.986 77.8698 162.94 85.6635 158.543 87.4831C155.948 88.5572 151.241 88.425 148.288 88.466C144.772 88.5368 141.255 88.5852 137.738 88.6112L107.528 88.8379L95.1447 88.8923C91.9447 88.938 88.2437 89.176 85.0924 88.8332C84.2586 88.7426 83.4901 88.099 82.8798 87.5669C80.429 85.4304 80.3269 82.8619 80.2669 79.7825C80.1009 71.2479 80.3775 62.7547 80.5532 54.2128C80.6981 47.1609 80.2602 39.8435 81.2418 32.8487C81.4072 31.6695 81.9422 30.3638 82.7493 29.505C83.5476 28.6556 86.3308 28.2013 87.5197 28.1442C93.0078 27.8804 98.7497 27.9979 104.257 28.0086C114.398 28.0841 124.539 28.0063 134.678 27.7754Z" fill="black"/>
<path d="M149.571 30.4788C160.274 29.5067 159.101 32.1636 159.094 41.0676L159.103 53.7607C159.113 63.2107 159.421 74.3055 159.075 83.569C158.248 84.3836 157.076 85.3898 155.885 85.5342C153.232 85.8481 150.537 85.6056 147.873 85.6383C142.813 85.7006 137.735 85.6739 132.678 85.8152C121.159 86.137 109.622 86.2379 98.0993 86.2728C95.8627 86.2962 93.6258 86.288 91.3894 86.2486C89.5922 85.097 88.0884 83.2883 88.0463 81.0767C87.9962 78.4484 88.0187 75.8269 88.0241 73.1981L88.0321 58.4114L88.0117 45.1031C88.0085 42.3025 87.9498 39.6141 88.1448 36.8167C88.6333 29.8045 92.2336 30.7528 97.724 30.7747L107.46 30.7935C120.843 30.7731 136.316 31.1251 149.571 30.4788Z" fill="#E8625E"/>
<path d="M104.285 44.9716C105.685 44.9319 107.975 44.7657 109.184 45.3702C113.78 47.6681 114.743 55.5729 112.668 59.7828C110.905 63.3599 108.705 65.1093 104.909 63.2862C101.567 60.9491 100.612 57.4937 100.999 53.5141C101.076 52.7189 101.375 51.5326 102.014 51.016C102.891 50.9747 105.541 53.8558 107.118 54.7891C107.076 49.4868 104.182 49.3275 104.285 44.9716Z" fill="black"/>
<path d="M133.72 44.8505C144.445 43.1437 143.332 70.1762 131.139 62.6152C128.46 59.7899 128.648 54.6788 128.716 51.1389C130.748 52.2167 132.843 53.4501 134.853 54.5934C134.72 50.821 132.681 49.1026 131.704 45.6692L131.874 45.3779C132.428 44.9643 133.031 44.9472 133.72 44.8505Z" fill="black"/>
<path d="M147.903 63.5127L148.169 63.4951C149.008 65.3569 153.007 66.1085 151.404 68.764C150.164 69.5681 149.19 68.5323 148.96 68.7629C148.415 69.309 146.209 72.4944 145.28 73.324C138.046 79.7833 133.428 80.6795 124.042 80.1727C122.822 80.0828 121.507 78.3077 121.856 77.088C122.123 76.8849 122.405 76.7924 122.742 76.8344C125.597 77.1908 128.165 77.6925 131.077 77.4245C135.536 77.0142 140.209 74.545 143.291 71.3314C144.654 69.9099 145.888 68.1328 147.174 66.6126C143.668 64.6754 145.547 64.3613 147.903 63.5127Z" fill="url(#paint0_linear_61_472)"/>
<path d="M104.728 35.5062C108.281 35.2202 109.897 35.7956 111.665 38.9116C110.482 38.9385 109.155 38.8808 107.96 38.852C106.261 38.7601 102.342 39.3534 101.508 38.001C101.422 36.3888 103.526 35.8689 104.728 35.5062Z" fill="black"/>
<path d="M132.808 35.3842C134.175 35.402 136.437 35.2046 137.503 36.1247C138.091 36.6327 138.685 37.5949 138.047 38.2842C137.43 38.5109 135.795 38.2529 135.037 38.1928L128.727 38.1518C129.775 35.4479 130.059 35.5046 132.808 35.3842Z" fill="black"/>
<path d="M84.2628 32.6365C84.5499 32.6761 84.8131 32.7844 85.088 32.8802C85.4554 34.1707 85.335 40.6026 85.3343 42.2289C85.3548 50.1163 85.3012 58.0038 85.1735 65.8902C85.1368 71.4692 85.1991 77.0786 85.1415 82.6559C85.1324 83.5518 84.8824 83.6434 84.1739 84.2851C83.9144 84.2338 83.7939 84.1764 83.5492 84.085C82.9473 82.6996 83.3407 45.5028 83.3707 40.3487C83.3812 38.5573 83.7053 34.4928 84.2628 32.6365Z" fill="#FCFBFC"/>
<path d="M148.732 96.3338C150.942 96.2728 161.805 95.4576 162.51 97.4951C162.35 100.012 160.33 103.506 159.251 105.839C156.101 112.61 152.886 119.459 149.505 126.105C147.368 130.307 143.965 130.253 139.869 130.334C138.262 130.365 136.611 130.415 135.004 130.469L115.773 131.003C109.089 131.182 102.16 131.86 95.4352 132.084C89.3899 132.285 83.4486 132.295 77.4046 132.3C70.6622 132.333 58.7606 133.745 64.5667 123.058C68.0586 116.63 72.1509 110.755 75.8116 104.436C77.3639 101.757 78.512 99.3137 80.7997 97.1672C81.8816 97.1017 83.0671 97.0979 84.1554 97.1042C96.6058 97.1768 109.051 96.5831 121.498 96.4281C130.554 96.3152 139.681 96.6426 148.732 96.3338ZM70.7025 122.879C75.6791 123.59 81.6336 123.386 86.7574 123.387L127.546 123.118C130.975 123.074 134.405 123.057 137.835 123.066C139.951 123.067 142.109 123.153 144.22 123C144.882 122.951 145.704 122.94 146.2 122.445C146.713 121.931 147.09 121.27 147.426 120.632C148.528 118.535 157.069 100.542 157.098 99.6236C157.106 99.3633 157.031 99.133 156.934 98.8957C155.773 98.0478 143.091 98.415 140.887 98.5505C126.031 98.9963 111.222 98.8402 96.3549 99.1879C94.5813 99.2294 83.8762 98.9414 82.8224 100.07C81.5464 101.436 79.4092 105.992 78.2449 107.866C75.6183 112.561 71.9332 117.614 70.7025 122.879Z" fill="#9F9E9E"/>
<path d="M140.886 98.5505C143.091 98.4149 155.773 98.0478 156.933 98.8957C157.031 99.133 157.105 99.3633 157.097 99.6236C157.069 100.542 148.528 118.535 147.425 120.632C147.09 121.27 146.713 121.931 146.2 122.445C145.704 122.94 144.881 122.951 144.22 123C142.109 123.153 139.951 123.067 137.835 123.066C134.405 123.057 130.975 123.074 127.545 123.118L86.7571 123.387C81.6332 123.386 75.6787 123.59 70.7021 122.879C71.9328 117.614 75.6179 112.561 78.2445 107.866C79.4089 105.992 81.5461 101.436 82.8221 100.07C83.8759 98.9414 94.581 99.2294 96.3546 99.1879C111.221 98.8402 126.031 98.9963 140.886 98.5505ZM136.154 120.858C137.834 120.818 142.8 120.864 144.096 120.644C145.696 118.513 147.153 114.671 148.424 112.182C145.608 111.974 143.193 111.989 140.366 112.058C139.379 113.152 137.156 118.933 136.154 120.858ZM130.471 112.457C129.592 114.409 127.62 119.364 126.577 120.735L129.035 120.759C131.428 120.842 133.153 120.918 134.206 118.314C135.156 115.968 135.666 114.089 137.353 112.107C136.838 112.098 135.821 112.047 135.346 112.074L130.471 112.457ZM120.148 120.79L123.614 120.791C124.607 118.877 126.774 114.386 127.357 112.351L125.149 112.238C124.199 112.262 121.857 112.206 121.374 112.934C120.466 114.302 118.36 119.022 117.99 120.45C118.511 120.934 119.424 120.814 120.148 120.79ZM85.9349 106.938C86.1827 106.702 86.6633 105.775 86.7848 105.413C87.7037 103.63 88.1591 103.35 88.8626 102.149C85.5118 101.849 84.5219 102.412 82.9012 105.48C82.2144 106.668 81.2693 108.414 80.5183 109.506C82.005 109.737 83.0312 109.878 84.552 109.816C85.0299 108.865 85.4908 107.905 85.9349 106.938ZM90.3239 105.067C90.0996 105.514 89.8693 105.959 89.633 106.4C89.0632 107.579 88.4712 108.748 87.8578 109.905C88.8249 109.87 90.3063 109.78 91.2327 109.818L93.3146 109.781C94.8005 107.414 95.8696 104.442 97.3206 102.215L97.1881 102.045L95.25 101.954C92.2943 101.726 91.4339 102.14 90.3239 105.067ZM87.8158 120.723C88.875 119.245 90.786 114.928 92.08 112.793C91.0215 112.756 86.933 112.812 86.3564 112.69C85.2926 115.035 83.7161 118.499 82.1045 120.447C83.8368 120.619 86.0734 120.856 87.8158 120.723ZM103.938 112.609C103.357 114.321 101.04 118.862 100.056 120.406C101.724 120.512 103.96 120.719 105.584 120.638C106.465 119.288 108.663 114.459 109.281 112.872C107.359 112.65 105.827 112.697 103.938 112.609ZM119.441 109.851C120.079 108.419 120.798 106.853 121.517 105.463C122.109 104.375 123.255 102.845 122.845 101.722C121.921 102.02 121.336 101.781 120.511 102.02L120.546 102.225C120.833 102.342 121.111 102.458 121.405 102.559L121.79 102.534L122.035 102.831C121.925 103.528 121.429 104.453 121.161 105.223C120.711 106.435 119.551 108.751 118.212 109.114C117.314 109.357 116.537 108.812 115.777 108.404C115.745 107.418 115.644 105.991 116.226 105.174L115.582 105.076C114.974 106.734 114.32 108.374 113.621 109.996C115.555 109.813 117.5 109.764 119.441 109.851ZM103.2 107.412C103.53 107.066 105.688 102.947 106.356 101.966C104.65 102.06 102.767 102.001 101.047 101.972C100.566 102.526 99.8839 103.215 99.648 103.88C98.6947 105.7 97.4413 108.306 96.3855 109.991C98.1444 109.94 99.9576 109.864 101.713 109.886C102.226 109.072 102.722 108.247 103.2 107.412ZM105.188 109.893C106.95 109.761 108.707 109.849 110.473 109.904C110.996 109.082 113.569 103.048 113.836 102.048C112.807 102.084 110.159 102.26 109.262 101.984C108.219 104.603 106.376 107.33 105.188 109.893ZM112.024 112.684C111.461 115.147 109.787 118.257 108.581 120.534C110.346 120.721 112.905 120.99 114.58 120.468C115.896 118.028 117.018 115.043 118.312 112.808C116.16 112.679 113.987 112.808 112.024 112.684ZM122.393 109.662C124.743 109.622 126.3 109.24 128.702 109.658C129.129 108.731 129.592 107.357 130.022 106.338L129.858 105.947C128.827 106.698 129.687 108.737 126.22 109.086C125.67 108.821 125.066 108.612 124.774 108.09C124.366 106.78 126.037 104.754 126.529 103.157C125.298 104.533 124.831 105.699 123.841 107.085C123.592 107.427 122.647 109.202 122.393 109.662ZM96.665 120.648C97.2578 120.179 100.361 113.919 100.986 112.796C99.0116 112.66 96.8986 112.797 95.1266 112.661C94.2262 114.867 92.19 118.826 90.8385 120.752C92.5366 120.72 95.0843 120.769 96.665 120.648ZM135.605 109.513C131.637 108.595 134.264 107.463 133.858 105.056C133.349 106.232 132.389 108.566 131.996 109.795C133.244 109.821 134.424 109.935 135.605 109.513Z" fill="black"/>
<path d="M144.388 101.149C147.503 101.273 150.62 101.343 153.737 101.358C152.537 104.04 151.067 106.773 149.676 109.359C149.1 109.568 142.743 109.52 140.917 109.818C142.15 107.46 143.572 103.763 144.388 101.149Z" fill="#FCFBFC"/>
<path d="M141.941 101.392C140.782 103.693 138.903 110.63 135.605 109.513C131.638 108.595 134.265 107.463 133.858 105.056C133.827 104.489 134.757 102.377 135.014 101.724C137.234 101.435 139.687 101.439 141.941 101.392Z" fill="#FCFBFC"/>
<path d="M78.7977 112.709C79.9157 112.694 80.9715 112.623 82.058 112.888C82.0018 113.223 81.9007 113.213 81.5938 113.514C81.5008 114.037 81.4572 113.859 81.6625 114.284L82.2934 114.161C81.9241 116.13 79.7786 119.222 78.3712 120.674C77.2749 120.954 75.2995 120.581 74.1494 120.407C74.8352 118.813 77.705 113.888 78.7977 112.709Z" fill="#FCFBFC"/>
<path d="M116.833 101.962C118.594 101.794 121.083 101.924 122.73 101.563L122.845 101.721C121.921 102.02 121.336 101.781 120.511 102.02L120.546 102.225C120.834 102.342 121.112 102.458 121.405 102.559L121.79 102.534L122.035 102.831C121.925 103.528 121.429 104.453 121.161 105.223C120.711 106.435 119.552 108.751 118.212 109.114C117.314 109.357 116.537 108.812 115.777 108.404C115.746 107.418 115.644 105.991 116.226 105.174L115.582 105.075C115.928 103.735 116.22 103.194 116.833 101.962Z" fill="#FCFBFC"/>
<path d="M116.833 101.962C118.594 101.794 121.083 101.924 122.73 101.563L122.845 101.721C121.921 102.02 121.336 101.781 120.511 102.02L120.546 102.225C120.834 102.342 121.112 102.458 121.405 102.559C120.086 102.557 119.192 102.635 117.877 102.773C116.995 103.812 116.862 104.329 116.226 105.174L115.582 105.075C115.928 103.735 116.22 103.194 116.833 101.962Z" fill="#F0ECED"/>
<path d="M126.139 101.827C127.847 101.803 129.121 101.829 130.799 102.105C130.821 103.109 131.011 105.751 130.023 106.338L129.859 105.947C128.828 106.698 129.688 108.737 126.22 109.086C125.671 108.821 125.067 108.612 124.774 108.09C124.366 106.78 126.038 104.754 126.529 103.157C125.299 104.533 124.831 105.699 123.842 107.085C123.935 105.927 125.58 102.913 126.139 101.827Z" fill="#F0ECED"/>
<path d="M101.048 101.972C102.768 102.001 104.651 102.06 106.357 101.966C105.688 102.947 103.53 107.066 103.2 107.412L103.051 107.073C101.355 107.737 99.8677 105.118 99.9559 104.002L99.6484 103.88C99.8844 103.215 100.567 102.526 101.048 101.972Z" fill="#6C6869" fill-opacity="0.403922"/>
<path d="M95.2498 101.954L97.1879 102.045L97.3204 102.215C95.8693 104.442 94.8003 107.414 93.3144 109.781L91.2325 109.819L91.7627 109.521C91.9115 108.712 90.7958 106.309 90.1446 106.091L89.6328 106.4C89.8691 105.959 90.0994 105.514 90.3237 105.067C92.1509 104.575 94.8963 107.334 95.2498 101.954Z" fill="#454545" fill-opacity="0.341176"/>
<path d="M82.9014 105.48C83.4307 105.129 83.5006 105.086 84.1319 105.057C85.2683 105.746 84.223 107.022 84.7835 107.573C85.4135 107.016 85.2678 106.958 85.9351 106.938C85.4911 107.905 85.0301 108.865 84.5522 109.816C83.0314 109.878 82.0052 109.737 80.5186 109.506C81.2695 108.414 82.2146 106.668 82.9014 105.48Z" fill="#454545" fill-opacity="0.0117647"/>
<path d="M90.3242 105.067C91.4342 102.14 92.2947 101.726 95.2503 101.954C94.8969 107.334 92.1515 104.575 90.3242 105.067Z" fill="#6C6869" fill-opacity="0.560784"/>
<path d="M82.9014 105.48C84.5221 102.412 85.512 101.849 88.8628 102.149C88.3103 102.182 87.2946 102.134 86.9586 102.431C87.0962 103.311 86.9391 103.975 86.5887 104.792C86.6385 104.959 86.7187 105.267 86.7851 105.413C86.6635 105.775 86.1829 106.702 85.9351 106.938C85.2678 106.958 85.4135 107.016 84.7835 107.573C84.223 107.022 85.2683 105.746 84.1319 105.057C83.5006 105.086 83.4307 105.129 82.9014 105.48Z" fill="#454545" fill-opacity="0.254902"/>
<path d="M123.841 107.085C124.831 105.699 125.298 104.533 126.529 103.157C126.037 104.754 124.366 106.78 124.774 108.09C125.066 108.612 125.67 108.821 126.22 109.086C129.687 108.737 128.827 106.698 129.858 105.947L130.022 106.338C129.592 107.357 129.129 108.731 128.702 109.658C126.3 109.24 124.743 109.622 122.393 109.662C122.647 109.202 123.592 107.426 123.841 107.085Z" fill="#29272B" fill-opacity="0.0352941"/>
<path d="M89.6337 106.4L90.1454 106.091C90.7966 106.309 91.9124 108.712 91.7636 109.521L91.2334 109.818C90.3069 109.78 88.8255 109.87 87.8584 109.905C88.4719 108.748 89.0639 107.579 89.6337 106.4Z" fill="#29272B" fill-opacity="0.0313725"/>
<path d="M122.845 101.721C123.255 102.845 122.108 104.375 121.517 105.463L121.161 105.223C121.429 104.453 121.924 103.528 122.035 102.831L121.79 102.534L121.405 102.559C121.111 102.458 120.833 102.342 120.546 102.225L120.511 102.02C121.336 101.781 121.921 102.02 122.845 101.721Z" fill="#C4C1BF" fill-opacity="0.156863"/>
<path d="M88.863 102.149C88.1595 103.35 87.7041 103.63 86.7852 105.413C86.7189 105.267 86.6386 104.959 86.5889 104.792C86.9393 103.975 87.0964 103.311 86.9588 102.431C87.2948 102.134 88.3105 102.182 88.863 102.149Z" fill="#454545" fill-opacity="0.0862745"/>
<path d="M120.253 141.134L129.276 141.141C130.298 142.631 141.366 167.602 141.365 168.221C141.364 168.581 141.115 168.696 140.871 168.913C138.829 169.893 135.698 169.585 133.381 169.526C130.445 167.906 129.817 164.587 128.65 161.583L125.325 153.258C123.823 149.512 121.493 144.647 120.253 141.134Z" fill="#E8625E"/>
<path d="M93.5381 141.401C94.8829 141.819 101.226 142.405 102.811 142.49C104.038 147.437 105.355 152.362 106.759 157.261C107.356 159.414 109.974 166.545 108.486 168.016C106.37 169.206 103.733 168.984 101.607 167.868C100.016 167.006 99.6184 165.291 99.1554 163.72C96.9896 156.372 95.4969 148.775 93.5381 141.401Z" fill="#E8625E"/>
<path d="M129.326 189.887C131.121 189.74 139.292 192.213 141.359 192.755C152.207 195.597 162.487 196.243 173.517 193.972C175.199 193.625 181.669 191.798 182.792 192.634C182.666 193.086 182.676 192.958 182.184 193.305C177.117 195.274 168.553 196.912 163.371 197.3C158.37 197.672 131.607 194.434 129.326 189.887Z" fill="#E8625E"/>
<path d="M114.255 188.546C114.932 188.489 115.664 188.473 116.348 188.445C108.351 193.918 94.5622 196.76 84.9725 197.293C80.5349 197.54 70.3714 196.486 65.9956 194.977C65.7715 194.855 65.5506 194.728 65.333 194.596C64.844 194.29 64.5816 194.023 64.458 193.479C64.7851 193.284 64.9127 193.242 65.3203 193.31C69.6316 194.024 73.9356 195.18 78.315 195.368C87.0938 195.744 95.6896 194.718 104.094 192.133C107.348 191.133 110.789 189.394 114.067 188.592L114.255 188.546Z" fill="url(#paint1_linear_61_472)"/>
<path d="M166.77 37.3408C167.148 37.7744 167.21 37.804 167.762 37.9706C168.47 37.8351 168.229 37.9514 168.728 37.2721L169.35 56.4747C169.426 59.4728 169.653 62.373 169.579 65.3783C169.16 63.9759 169.233 62.4031 168.631 60.5953C168.46 60.1574 168.435 59.9302 168.056 59.7075C167.45 60.0641 167.546 60.7115 167.521 61.3666C167.153 57.684 167.191 53.076 167.074 49.3343C166.95 45.3508 166.765 41.3166 166.77 37.3408Z" fill="url(#paint2_linear_61_472)"/>
<path d="M168.632 60.5953C169.234 62.4031 169.161 63.9759 169.579 65.3782C169.594 66.5204 169.643 68.9064 169.456 70.023C169.383 68.704 169.29 67.6256 169.121 66.3173C167.984 68.104 168.925 72.3019 168.81 74.3399L168.468 73.1998L168.252 73.128C167.869 73.8283 167.886 75.6527 167.951 76.481L167.901 76.69C167.766 76.4507 167.67 76.1722 167.568 75.913C167.554 74.0682 167.372 70.0794 167.578 68.3856C168.258 65.6537 168.393 63.3978 168.632 60.5953Z" fill="#979496" fill-opacity="0.278431"/>
<path d="M166.741 30.6731C167.78 31.3467 168.243 31.5696 168.446 32.8712C168.672 34.3235 168.545 35.7673 168.728 37.2721C168.229 37.9514 168.471 37.8351 167.762 37.9705C167.21 37.804 167.148 37.7743 166.77 37.3408L166.741 30.6731Z" fill="#454545" fill-opacity="0.54902"/>
<path d="M167.521 61.3666C167.547 60.7115 167.45 60.0641 168.057 59.7075C168.435 59.9302 168.46 60.1574 168.631 60.5954C168.393 63.3978 168.258 65.6537 167.578 68.3856L167.521 61.3666Z" fill="#9F9E9E" fill-opacity="0.0901961"/>
<path d="M168.81 74.3399C168.924 72.3019 167.984 68.104 169.12 66.3173C169.29 67.6256 169.383 68.704 169.455 70.023L169.499 74.1068L169.219 73.3916C168.955 73.9512 169.035 74.9954 168.932 75.6784C168.809 75.112 168.814 74.9004 168.81 74.3399Z" fill="#979496" fill-opacity="0.101961"/>
<path d="M167.951 76.481L168.42 74.2436C168.707 75.9085 168.714 77.0115 168.919 78.4985L168.944 79.6313C168.691 80.6357 168.424 81.8251 168.12 82.8003C167.955 80.8854 167.95 78.6341 167.901 76.6901L167.951 76.481Z" fill="#9F9E9E" fill-opacity="0.968627"/>
<path d="M168.944 79.6313C169.018 80.5907 168.668 86.6627 168.441 87.3381C167.988 86.9491 168.152 83.6202 168.12 82.8003C168.424 81.8251 168.691 80.6357 168.944 79.6313Z" fill="black" fill-opacity="0.929412"/>
<path d="M167.95 76.481C167.885 75.6527 167.868 73.8283 168.251 73.128L168.467 73.1998L168.81 74.3399C168.814 74.9004 168.808 75.112 168.932 75.6784C168.937 76.526 168.979 77.6769 168.919 78.4985C168.714 77.0115 168.706 75.9085 168.419 74.2436L167.95 76.481Z" fill="#9F9E9E" fill-opacity="0.596078"/>
<path d="M34.0322 113.426C34.4478 114.268 34.4188 113.943 34.3384 114.844L34.0731 115.165C33.494 115.187 33.7144 115.242 33.2227 114.984C33.6206 114.15 32.9493 114.131 34.0322 113.426Z" fill="black" fill-opacity="0.964706"/>
</g>
<defs>
<linearGradient id="paint0_linear_61_472" x1="141.848" y1="77.6817" x2="131.63" y2="67.683" gradientUnits="userSpaceOnUse">
<stop/>
<stop offset="1" stop-color="#1F0305"/>
</linearGradient>
<linearGradient id="paint1_linear_61_472" x1="90.1143" y1="196.704" x2="89.9222" y2="189.333" gradientUnits="userSpaceOnUse">
<stop stop-color="#E46764"/>
<stop offset="1" stop-color="#D2938F"/>
</linearGradient>
<linearGradient id="paint2_linear_61_472" x1="165.441" y1="47.973" x2="170.589" y2="48.8673" gradientUnits="userSpaceOnUse">
<stop stop-color="#CCC6CC" stop-opacity="0.984314"/>
<stop offset="1" stop-color="#D6DAD7"/>
</linearGradient>
<clipPath id="clip0_61_472">
<rect width="233.6" height="224" fill="white"/>
</clipPath>
</defs>
</svg>
