<svg width="234" height="240" viewBox="0 0 234 240" fill="none" xmlns="http://www.w3.org/2000/svg">
<g clip-path="url(#clip0_61_369)">
<path d="M79.6125 19.3157C92.7083 19.2356 105.805 19.2639 118.9 19.4005L130.647 19.4423C135.426 19.4598 140.224 19.0604 144.232 22.0773C146.634 23.8848 148.066 25.8447 148.505 28.8655C149.944 38.7546 149.215 48.712 149.444 58.6612C149.465 61.5603 150.016 64.4083 150.05 67.308C150.141 74.9997 150.422 82.7839 149.985 90.4622C149.949 91.1072 149.265 91.358 149.257 92.2148C150.818 93.9343 155.919 93.2156 158.049 92.9945C163.211 92.4584 167.091 89.7462 171.673 87.919C172.114 82.9996 172.224 82.4058 176.557 80.1043C177.064 78.8449 177.352 77.3287 177.857 76.1524C178.502 74.5604 181.105 72.164 180.926 70.3394C180.614 67.1632 180.091 65.0333 180.398 61.7541C182.971 58.7881 187.178 58.4195 190.111 61.3264C192.219 63.4149 192.29 67.6551 192.086 70.5387C196.653 68.8995 201.303 67.3522 206.012 66.216C210.116 65.2264 215.563 65.252 217.602 69.6743C217.769 69.9117 218.603 71.5204 218.765 71.63C223.103 74.577 222.963 75.6431 221.699 80.5157C221.576 80.986 221.748 84.3176 221.543 85.6631C220.15 87.5199 219.491 87.9429 217.218 88.5242C213.106 89.6544 207.485 91.084 203.899 93.3549C197.749 97.2496 195.651 98.0591 188.417 97.9327C184.915 101.353 184.391 101.564 179.61 100.631C179.179 100.216 178.753 99.7976 178.332 99.3742C177.871 99.7016 177.389 99.9994 176.89 100.266C169.643 104.141 159.898 107.704 151.652 106.898C149.112 106.65 146.286 106.495 143.857 105.74C143.227 106.805 142.671 107.964 142.217 109.114C139.872 115.039 137.143 120.631 134.336 126.352C132.074 130.963 130.728 135.699 125.301 137.458C122.946 138.221 120.994 137.984 118.558 138.062C116.699 138.106 114.829 138.138 112.975 138.047C112.854 142.036 113.814 146.39 114.211 150.426L115.64 166.077C115.8 167.798 115.757 169.304 115.977 171.095C119.598 172.461 120.19 173.081 122.109 176.3C123.054 175.85 124.217 175.269 125.113 174.849C144.892 165.57 157.387 176.177 159.172 196.457C159.814 203.758 137.278 204.963 132.598 205.24C126.433 205.606 120.436 204.884 114.463 204.356C110.084 203.702 105.63 203.097 101.419 201.713C97.6128 200.463 97.5122 199.06 97.5104 195.565C97.5085 191.685 97.4329 189.148 98.8236 185.462C96.4168 181.541 97.4315 175.774 101.802 173.944C100.915 169.825 101.264 168.463 100.899 164.579C100.337 158.616 99.7011 152.587 99.074 146.631C98.7308 143.373 99.4221 142.064 98.1665 138.723C97.0048 138.638 95.8013 138.73 94.6482 138.671C90.7056 138.467 86.7046 139.486 82.8028 139.361C82.8393 150.455 83.0436 161.603 82.8596 172.669C85.0903 174.688 87.4752 176.87 87.7631 180.09C87.9395 182.062 87.1626 183.023 86.0082 184.388C87.2961 188.304 88.6496 194.567 87.3064 198.751C86.995 199.721 83.1857 201.35 82.0673 201.674C68.2136 205.69 52.6273 206.383 38.4284 203.8C33.7986 202.956 25.0654 201.452 26.1273 195.005C27.4732 186.831 30.7221 175.438 39.6893 172.728C47.4539 170.381 55.8781 172.63 62.8056 176.257C64.23 173.281 65.8507 172.731 68.7015 171.361C68.9381 168.799 68.7994 163.441 68.8016 160.766L68.7755 139.945C59.596 139.877 50.7172 139.233 41.5565 139.446C38.8739 139.508 38.7753 140.344 36.5659 141.049C32.4191 142.352 27.5046 142.099 23.3066 141.09C19.0406 140.066 9.3148 133.175 10.7435 128.105C11.3552 125.935 16.6423 120.787 18.7834 119.464C20.4925 118.408 23.297 119.313 25.091 119.907C24.3664 118.676 23.6751 117.57 23.135 116.244C23.4283 114.175 23.7209 113.362 24.9826 111.717C24.1195 109.8 23.0352 107.53 22.302 105.597C20.3217 100.375 19.6171 94.5042 22.0044 89.2779C25.1678 82.3528 34.1496 78.8316 41.0013 77.0499C43.283 76.4564 45.4798 76.3379 47.7107 75.5289C47.9229 73.7082 47.8506 71.7445 48.0028 69.8928C49.1371 56.1101 47.8799 42.2004 48.7352 28.4193C48.8726 27.2514 49.0766 26.062 49.3374 24.9203C50.861 18.2487 58.1452 19.4537 63.4149 19.441C68.8144 19.459 74.214 19.4172 79.6125 19.3157ZM104.784 56.8929C105.011 54.3347 105.067 53.9678 105.058 51.2399C104.85 52.0503 104.64 53.1416 104.187 53.8126C104.194 54.755 104.55 55.9542 104.784 56.8929ZM97.5909 97.0686C94.5544 97.1116 91.4841 96.8717 88.4446 96.8752C82.2266 96.8828 76.0084 96.9206 69.79 96.8891C68.1903 96.881 66.3915 96.8046 64.8259 96.988C64.6854 97.4052 64.8715 98.0221 64.8874 98.497C64.3187 97.9248 64.6514 96.9748 64.3757 96.9313C61.6635 96.5048 57.3066 96.4023 54.6617 96.7947C51.5805 98.7857 47.2256 107.923 44.9989 111.372C42.8128 114.757 40.4766 119.027 38.4728 122.529C36.6811 125.66 34.772 132.523 40.3624 132.841C44.2571 133.162 48.212 133.045 52.1213 133.1C59.0368 133.184 65.9533 133.123 72.8661 132.916C80.3263 132.62 87.9828 132.042 95.4191 131.754L111.703 131.172C116.811 131.026 123.237 132.125 125.909 126.84C127.66 123.377 129.177 119.872 130.826 116.363C133.623 110.411 137.369 104.687 139.462 98.4551C139.44 96.9106 138.743 95.9505 137.341 95.9377C126.905 95.8419 116.237 95.7851 105.818 96.2081C104.089 96.1666 97.8243 96.1516 96.465 96.632L96.3107 96.8286C96.7107 96.8819 97.2263 96.9231 97.5909 97.0686ZM200.302 75.3506C205.714 73.0727 211.287 72.179 215.873 70.233C215.447 69.9506 214.319 69.1697 213.897 69.0422C205.859 66.6174 197.056 72.649 189.385 73.5462C189.466 69.3228 190.117 66.1741 187.977 62.6443C187.039 62.1583 185.936 61.6505 184.882 61.4909C184.265 61.7429 183.358 62.0691 183.197 62.7581C182.544 65.5429 183.43 69.0326 183.056 71.9721C182.772 74.2075 181.099 75.5643 180.349 77.0764C179.253 79.2869 179.509 84.9581 179.593 87.6482C182.26 82.152 187.297 80.0552 193.456 81.4216C193.764 81.4898 194.122 81.9535 194.299 82.2183L194.38 82.6867C193.265 83.8712 189.51 82.9666 188.086 83.3359C185.105 84.1093 182.541 86.9785 179.763 87.9958C179.079 87.7373 178.549 87.5335 177.892 87.2142C177.203 85.598 177.176 83.7286 176.04 83.0077C175.74 83.0424 175.556 83.0198 175.396 83.3414C172.876 88.4209 176.312 94.8669 180.694 97.7563C181.641 98.3815 183.951 98.5386 184.989 98.0123L185.205 97.6391C184.945 96.7977 184.165 96.5061 183.314 95.9565C182.974 95.1991 182.481 94.2784 182.439 93.4722L182.614 93.1325C183.644 93.2616 185.633 94.6095 186.844 94.9032C192.609 96.2995 196.832 94.8988 201.574 91.889C206.57 89.0705 209.998 87.3401 215.615 86.2721C216.273 86.1471 216.985 86.1406 217.599 85.8925C220.599 84.2836 220.141 81.6084 216.673 81.2271C212.655 80.7854 208.204 81.1014 204.628 83.1443C203.573 83.767 204.455 85.6263 203.285 86.5017C202.794 86.2963 202.634 85.9552 202.436 85.4107C201.616 83.1685 201.004 80.8199 199.92 78.6729C199.352 77.5451 197.224 76.0212 197.075 74.6487C197.821 73.2242 199.59 74.6791 200.302 75.3506ZM22.3744 126.92C22.4426 125.297 23.3935 122.199 22.92 121.682L22.5861 121.733C19.9049 121.793 19.3584 121.69 16.9495 122.868C18.0803 123.453 19.0243 124.053 20.1007 124.728C20.9655 125.406 21.6205 126.13 22.3744 126.92ZM219.286 75.0147C217.69 74.1938 216.269 73.6881 214.412 73.8382C212.995 73.9915 202.845 75.2936 202.226 78.0661C202.158 78.3713 203.103 80.0562 203.406 80.4578L203.746 80.6339C205.219 80.0822 205.958 79.6636 207.524 79.225C209.211 78.8593 211.071 78.5602 212.795 78.4183C214.994 78.2375 217.195 78.8686 219.361 79.0312C219.619 78.5272 219.971 77.885 220.173 77.3743C219.887 76.5476 219.638 75.8211 219.286 75.0147ZM76.4052 183.4C76.3479 182.907 76.273 182.439 75.8321 182.162C74.3974 181.262 67.0546 176.498 65.921 176.481C67.3489 179.233 72.803 182.107 75.6696 183.41C75.9509 183.538 76.0915 183.458 76.4052 183.4ZM37.6079 106.321C33.7139 106.635 29.8845 109.064 27.3361 111.945C26.3738 113.033 25.2455 114.612 26.3437 115.995C27.5881 116.294 30.6947 114.122 31.933 114.954C32.0312 116.225 30.0155 117.108 29.229 117.813C25.6006 121.065 24.9758 125.787 24.9335 130.39C24.9255 131.281 24.9793 132.267 23.938 132.435C22.2073 131.759 22.0836 129.716 21.1377 128.678C20.0304 127.463 16.6045 125.565 14.9396 126.42C11.832 128.014 14.0563 130.942 15.3929 132.467C16.0653 133.178 16.6852 133.928 17.707 134.771C22.7279 138.912 30.8464 140.956 36.8906 138.068C36.9141 138.056 37.07 137.887 37.0839 137.873C36.6828 136.788 35.2645 135.934 34.6131 134.938C33.1828 132.749 33.4804 126.569 34.5262 124.297C35.7348 121.673 44.0795 109.441 43.3384 107.424C43.2013 107.051 42.7886 106.786 42.4305 106.641C40.9562 106.045 39.1499 106.095 37.6079 106.321ZM144.659 72.0035C144.659 73.391 144.596 76.955 144.917 78.1298C144.922 79.5094 144.894 81.0749 144.974 82.4353C144.952 84.0793 144.441 88.8139 144.938 90.5351C145.078 91.0195 145.78 91.3816 146.452 91.0663C147.951 89.1425 147.078 84.6556 146.944 82.2753C146.798 79.6969 146.616 77.1975 146.835 74.6053C146.969 74.3576 146.968 73.6318 146.985 73.3102C145.897 73.0699 146.385 73.9296 145.512 74.6601C145.347 74.5344 145.135 72.7667 144.659 72.0035ZM40.5116 178.553C42.407 178.481 45.9249 178.547 47.5833 178.08C48.3052 177.944 48.6526 178.018 49.0791 177.573C49.1394 177.002 49.1136 176.939 48.8037 176.453C47.0329 175.059 44.4169 176.166 41.4613 174.995C41.3336 176.466 40.9583 177.176 40.5116 178.553ZM108.972 183.475C110.51 182.929 118.222 178.605 118.556 177.121C118.319 176.881 118.459 176.928 118.156 176.911C116.646 177.711 109.149 181.997 108.605 183.063L108.692 183.366L108.972 183.475ZM37.6231 103.345C38.6813 103.215 39.9157 102.987 40.9436 103.181C43.2377 103.826 43.6528 104.107 45.557 105.639C46.7586 103.508 48.0056 101.413 49.2893 99.3309C49.8165 98.4758 51.4933 96.4999 51.7916 95.756C51.3173 94.7882 50.0399 93.693 49.3123 92.827C48.8 92.2169 47.7892 89.252 47.4762 89.0387C46.4066 89.8428 42.3172 90.3547 40.7998 90.9615C34.62 93.4326 32.7248 96.2667 36.6537 102.006C36.9682 102.458 37.2914 102.905 37.6231 103.345Z" fill="black"/>
<path d="M57.7357 22.1041C63.9289 21.8788 71.2205 22.0308 77.5276 22.0159L126.405 22.1317C129.405 22.1282 136.952 21.5857 138.699 23.7358C139.476 24.6476 140.863 26.3686 140.914 27.5789C141.265 35.8719 140.823 44.3137 140.971 52.6062C141.19 64.8921 142.375 77.5272 142.275 89.7842C140.013 93.0055 138.952 93.0869 135.252 93.0479C117.082 92.9901 98.9107 93.0525 80.7409 93.2354L65.5721 93.3148C62.1782 93.3412 58.6813 93.445 55.3088 93.1858C52.2387 92.8159 50.6502 91.716 50.5814 88.4786C50.1781 69.4718 51.6294 50.5025 51.1668 31.491C51.0255 25.683 50.9748 22.6185 57.7357 22.1041ZM104.783 56.8929C105.01 54.3346 105.066 53.9677 105.057 51.2399C104.849 52.0503 104.639 53.1416 104.186 53.8125C104.193 54.755 104.55 55.9541 104.783 56.8929Z" fill="#9C9C9D"/>
<path d="M67.8908 25.1049C89.4532 24.6903 111.883 25.0015 133.525 24.9561C136.651 26.717 138.83 28.8141 138.874 32.535C139.009 43.8445 138.915 55.1477 138.914 66.4561L138.939 77.2268C138.938 81.395 139.483 85.5754 134.512 87.1092C132.323 87.7843 127.04 87.6135 124.529 87.6665C124.052 87.7138 123.51 87.7433 123.027 87.7608C112.258 88.1522 101.447 87.9925 90.6476 88.1908C83.7109 88.3855 76.772 88.4828 69.8325 88.4825C68.6223 88.479 67.3856 88.4807 66.1748 88.4616C59.5533 88.3565 54.4269 88.7981 54.2021 80.304C53.9173 69.5434 54.5571 58.7313 54.6974 47.9427C54.7423 44.1652 54.7484 40.3873 54.7159 36.6099C54.6961 33.8941 54.1478 28.8146 56.1652 26.9233C58.5167 24.7187 64.871 25.1394 67.8908 25.1049ZM104.783 56.8929C105.01 54.3347 105.066 53.9678 105.058 51.2399C104.849 52.0503 104.639 53.1416 104.187 53.8126C104.194 54.755 104.55 55.9542 104.783 56.8929Z" fill="black"/>
<path d="M93.7735 27.9026C101.349 27.6277 109.738 27.8962 117.387 27.8783L126.826 27.8411C129.168 27.8316 131.797 27.7394 134.093 28.0754C136.892 31.7807 136.12 37.2534 136.112 41.7709L136.094 57.6064C136.069 61.7122 136.105 65.818 136.204 69.9225C136.287 73.4909 136.79 79.7866 135.773 83.0839C133.285 85.6795 128.306 85.169 124.875 85.2441C118.295 85.35 111.714 85.3814 105.133 85.3386L64.9158 85.3242C64.1588 84.2173 63.3531 83.1679 62.5445 82.099C62.5342 82.0117 62.5258 81.924 62.5189 81.8363C61.5849 70.467 62.2922 58.5676 62.1408 47.1468C62.0786 42.4427 62.0203 37.6135 62.2536 32.9345C62.3444 31.1129 63.0643 28.427 65.3602 28.6343C68.1896 28.504 71.0911 28.586 73.9047 28.5143L93.7735 27.9026ZM104.783 56.8929C105.01 54.3346 105.066 53.9677 105.057 51.2399C104.849 52.0503 104.639 53.1416 104.186 53.8125C104.193 54.755 104.55 55.9541 104.783 56.8929Z" fill="#E86260"/>
<path d="M81.7197 42.7079C82.2412 42.6839 83.4267 43.049 83.9319 43.2317C87.3304 44.4611 88.7484 48.4053 89.0248 51.7122C89.369 55.8316 87.7216 62.3386 82.8657 62.9108C81.192 63.1081 79.627 61.884 78.4696 60.8552C76.6847 58.7956 75.4771 56.6156 75.6781 53.8236C75.7693 52.5571 75.5485 50.3019 76.8171 49.6136C78.5061 49.2918 81.0019 52.1773 82.8455 53.2254L82.9234 53.2691C82.1695 50.0995 80.7416 47.2082 79.5542 44.1365L81.7197 42.7079Z" fill="black"/>
<path d="M107.78 43.5735C109.68 43.0428 111.42 42.3475 113.285 43.5125C118.482 46.7575 118.749 54.7211 116.025 59.7116C114.373 62.7393 110.922 63.2266 108.017 61.6105C106.316 60.6643 105.396 58.6841 104.783 56.8929C105.01 54.3346 105.066 53.9677 105.058 51.2399C104.849 52.0503 104.639 53.1416 104.187 53.8125C104.102 52.5367 104.007 49.6614 105.623 49.5358C107.96 50.3567 107.619 52.1351 111.229 52.975C110.324 49.32 108.928 46.8853 107.78 43.5735Z" fill="black"/>
<path d="M123.121 62.1294C126.668 62.1906 130.135 67.3857 127.242 68.0814C126.548 67.9755 126.059 67.4259 125.514 66.9478C124.952 68.3167 124.295 69.457 123.295 70.5532C117.509 76.8913 110.234 80.4189 101.579 79.3288C99.3909 78.9205 97.0335 79.0919 97.6927 76.2563C97.9666 75.9731 98.078 75.8584 98.5223 75.9095C105.755 76.7384 112.956 76.8386 118.518 71.3851C120.316 69.6227 121.811 67.7868 123.536 65.9565L121.339 63.9848C122.037 63.3977 122.525 62.8098 123.121 62.1294Z" fill="black"/>
<path d="M107.944 32.7558C110.037 32.6709 114.605 33.1074 115.085 35.6546L114.861 35.9812C114.244 36.35 113.54 36.2681 112.806 36.2698C110.941 36.2098 106.306 36.798 105.199 35.4729C105.09 33.8548 106.626 33.1498 107.944 32.7558Z" fill="black"/>
<path d="M80.6044 33.3278C82.3237 33.2198 86.9783 33.8466 86.1837 36.5101C85.8116 36.6504 83.4406 36.3549 82.7386 36.3086C80.8792 36.2982 78.6805 36.5774 76.8984 36.2002C76.6923 36.0131 76.6523 36.0601 76.5829 35.8095C75.9477 33.52 79.0371 33.4976 80.6044 33.3278Z" fill="black"/>
<path d="M104.187 53.8126C104.639 53.1416 104.849 52.0503 105.058 51.2399C105.066 53.9678 105.01 54.3346 104.783 56.8929C104.55 55.9542 104.194 54.755 104.187 53.8126Z" fill="#1F1A1B" fill-opacity="0.972549"/>
<path d="M80.5762 40.6986C81.3339 40.6021 83.2891 40.4329 83.9206 40.8573C82.9612 41.0447 81.4704 41.1435 80.5762 40.6986Z" fill="#B2282E"/>
<path d="M59.4172 29.9313C59.5105 30.1006 59.0915 36.4719 59.0882 37.3452L58.9074 69.2146L58.9177 78.0035C58.9253 79.2485 59.0221 82.2255 58.8173 83.2665C58.3201 83.4531 57.8298 83.2353 57.2842 83.0873C57.0336 83.008 57.1258 83.0229 56.9029 82.7881C56.8458 81.8176 56.8477 80.8824 56.8307 79.9152C56.5853 65.9705 57.0576 52.0942 57.5357 38.164C57.6183 35.7567 57.4934 33.3094 57.5716 30.8803C58.1728 30.5953 58.8211 30.2409 59.4172 29.9313Z" fill="#FAF9FA"/>
<path d="M105.817 96.2081C116.236 95.7851 126.904 95.8419 137.34 95.9377C138.743 95.9505 139.439 96.9106 139.461 98.4551C137.368 104.687 133.622 110.411 130.825 116.363C129.176 119.872 127.659 123.377 125.908 126.84C123.236 132.125 116.811 131.026 111.702 131.172L95.4183 131.754C87.982 132.042 80.3254 132.62 72.8653 132.916C65.9524 133.123 59.0359 133.184 52.1205 133.1C48.2112 133.045 44.2563 133.162 40.3615 132.841C34.7712 132.523 36.6802 125.66 38.4719 122.529C40.4757 119.027 42.8119 114.757 44.9981 111.372C47.2247 107.923 51.5796 98.7857 54.6609 96.7947C57.3057 96.4022 61.6626 96.5048 64.3748 96.9313C64.6505 96.9748 64.3178 97.9248 64.8866 98.497C67.2361 98.9728 78.1231 98.6683 80.952 98.5947C88.4209 98.4167 95.8914 98.3181 103.362 98.299C102.636 97.9677 99.0636 97.5414 97.59 97.0686C97.2254 96.9231 96.7099 96.8819 96.3098 96.8286L96.4642 96.632C97.8234 96.1516 104.088 96.1665 105.817 96.2081ZM83.4824 121.042C85.5012 121.1 87.5208 121.12 89.5403 121.1C90.7321 120.477 92.9517 114.428 93.9241 112.687C91.9853 112.691 90.0101 112.708 88.0811 112.497C85.6405 116.275 85.3616 117.348 83.4824 121.042ZM55.7594 121.006C57.7142 121.125 59.7363 121.098 61.6996 121.101C62.3295 120.888 62.5677 120.886 62.8817 120.18C63.999 117.668 64.9032 115.285 66.2097 112.84C64.3113 112.682 62.6106 112.712 60.7137 112.729C58.752 115.038 57.6162 118.453 55.7594 121.006ZM65.1663 121.096C67.1907 121.113 69.2152 121.106 71.2394 121.075C72.1022 120.421 75.0539 114.01 75.621 112.703C74.0434 112.712 71.3173 112.812 69.8282 112.689C69.3123 113.838 68.5065 115.074 67.855 116.194C67.0548 117.57 66.0417 119.876 65.1663 121.096ZM81.077 102.285C79.1725 101.77 78.1722 101.523 76.1485 101.556C74.7755 102.061 71.97 108.238 70.8121 109.941C72.5335 109.88 74.2565 109.882 75.9777 109.947C76.4189 109.893 76.6911 109.919 76.9778 109.453C78.0903 107.641 80.4717 104.2 81.077 102.285ZM97.2503 112.499C96.6797 113.512 93.4307 120.027 93.4044 120.735L93.6874 121.053C100.575 121.293 99.4545 121.68 102.069 115.26C102.425 114.387 102.865 113.513 103.189 112.582L103.077 112.306L102.91 112.265C101.151 112.367 98.9791 112.55 97.2503 112.499ZM66.9945 110.511C67.8489 110.076 71.3629 103.525 72.2627 102.116C70.7198 102.156 68.9686 102.162 67.445 102.263C65.4509 102.482 64.8485 103.794 64.0948 105.521C63.4157 107.077 62.8565 108.673 62.1545 110.224C63.931 110.232 65.2315 110.22 66.9945 110.511ZM93.0127 101.535C90.5911 104.182 90.2451 106.805 88.4648 109.902C89.7946 109.876 93.6967 109.929 94.7396 109.772C96.7442 106.893 97.8455 104.703 99.4566 101.61C97.5642 101.576 94.8692 101.462 93.0127 101.535ZM110.284 112.628C109.145 112.291 108.124 112.265 106.945 112.179C106.656 112.726 105.908 114.059 105.73 114.578C105.474 115.092 104.674 116.603 104.58 117.073C104.086 117.98 103.002 119.669 102.949 120.59L103.117 120.892C103.619 120.978 103.814 120.967 104.326 120.948L109.533 120.942C110.676 117.919 111.648 115.746 113.107 112.897L110.284 112.628ZM98.02 109.864C99.3604 109.82 103.559 109.962 104.456 109.423C104.766 109.023 104.832 108.948 105.003 108.474C105.204 107.726 107.752 102.539 108.204 101.734C106.63 101.916 104.627 101.743 103.012 101.861C102.251 101.917 102.432 101.867 101.966 102.399C100.365 104.2 99.3998 107.815 98.02 109.864ZM102.798 102.725C103.784 102.735 105.934 102.693 106.777 102.935C106.953 103.862 104.368 108.109 103.478 108.427C101.022 107.397 101.479 104.369 102.798 102.725ZM89.4686 101.786C88.2019 101.738 86.6146 101.54 85.4319 101.549C84.567 101.714 84.1756 101.956 83.7048 102.762C82.5273 104.777 81.2391 107.763 80.4152 109.943L84.9225 110.155C86.0899 109.798 89.0068 103.166 89.4686 101.786ZM109.58 109.38C109.295 107.888 109.882 106.787 109.517 106.051C109.162 106.852 108.048 108.948 108.009 109.548C108.433 109.893 109.093 109.563 109.58 109.38ZM79.4851 121.12C79.8423 121.096 80.3235 121.137 80.4887 120.864C81.9474 118.453 83.1076 115.245 84.4402 112.755C82.7832 112.724 81.1256 112.721 79.4684 112.745C77.3626 115.162 76.327 118.43 74.2715 121.127C76.0093 121.095 77.7473 121.093 79.4851 121.12ZM58.4735 102.301C58.386 104.322 54.8145 108.081 53.7894 109.804C54.9902 109.83 57.6026 109.944 58.7159 109.676C60.6574 106.974 60.6856 105.692 63.3907 102.407C62.1862 102.437 59.5031 102.602 58.4735 102.301ZM52.5485 112.728L47.6837 120.936C49.3381 121.048 50.9955 121.115 52.6536 121.137C53.1841 120.957 53.0412 121.088 53.3303 120.477C54.5486 117.905 55.8307 115.378 57.1237 112.841C55.4849 112.705 54.1995 112.711 52.5485 112.728Z" fill="black"/>
<path d="M105.817 96.2081C116.236 95.7851 126.904 95.8419 137.34 95.9377C138.743 95.9505 139.439 96.9106 139.461 98.4551C137.368 104.687 133.622 110.411 130.825 116.363C129.176 119.872 127.659 123.377 125.908 126.84C123.236 132.125 116.811 131.026 111.702 131.172L95.4183 131.754C87.982 132.042 80.3254 132.62 72.8653 132.916C65.9524 133.123 59.0359 133.184 52.1205 133.1C48.2112 133.045 44.2563 133.162 40.3615 132.841C34.7712 132.523 36.6802 125.66 38.4719 122.529C40.4757 119.027 42.8119 114.757 44.9981 111.372C47.2247 107.923 51.5796 98.7857 54.6609 96.7947C57.3057 96.4022 61.6626 96.5048 64.3748 96.9313C64.6505 96.9748 64.3178 97.9248 64.8866 98.497L65.2583 98.9221C63.635 99.2492 58.9409 99.2644 56.5317 99.5778C54.4283 102.408 44.529 120.308 44.1689 123.125C44.4793 124.039 47.4064 123.915 48.3136 123.913C69.5938 123.863 90.8906 124.12 112.167 123.727C115.121 123.671 119.477 123.938 122.282 123.481C124.483 120.645 133.384 101.798 134.323 98.2171C132.611 98.2783 130.421 98.2185 128.682 98.1405C120.612 97.7785 112.2 98.8672 104.197 98.4348C104.018 98.4242 103.562 98.3336 103.362 98.299C102.636 97.9677 99.0636 97.5414 97.59 97.0686C97.2254 96.9231 96.7099 96.8819 96.3098 96.8286L96.4642 96.632C97.8234 96.1516 104.088 96.1665 105.817 96.2081Z" fill="#9C9C9D"/>
<path d="M97.5907 97.0686C97.2261 96.923 96.7106 96.8818 96.3105 96.8285L96.4649 96.6319C97.8241 96.1516 104.089 96.1665 105.818 96.2081C104.749 96.6444 103.751 96.2312 103.218 97.1891L103.304 97.5224C103.639 97.5896 103.902 97.6375 104.241 97.6801L103.162 97.8846C103.683 97.9993 103.852 98.0191 104.197 98.4347C104.019 98.4242 103.563 98.3335 103.363 98.299C102.637 97.9677 99.0643 97.5414 97.5907 97.0686Z" fill="#7C7B7E"/>
<path d="M121.512 101.216C123.682 101.144 128.621 101.425 130.395 101.131C129.04 104.378 128.055 106.647 125.987 109.463C125.102 110.26 119.157 109.875 117.66 109.834C118.224 108.035 119.997 101.915 121.512 101.216Z" fill="#FAF9FA"/>
<path d="M124.68 112.484L124.748 112.533C124.815 113.084 121.044 120.238 120.552 121.125C117.973 121.155 115.394 121.136 112.816 121.068L112.675 120.852C113.043 119.5 115.462 114.154 116.115 112.508C118.918 112.543 121.9 112.63 124.68 112.484Z" fill="#FAF9FA"/>
<path d="M111.336 101.474C113.467 101.442 115.928 101.476 118.018 101.393C116.858 104.091 115.609 107.152 114.246 109.738C112.794 109.752 110.245 109.279 109.581 109.38C109.296 107.888 109.883 106.787 109.518 106.051C109.617 104.905 110.821 102.532 111.336 101.474Z" fill="#FAF9FA"/>
<path d="M110.284 112.628L113.108 112.897C111.649 115.746 110.676 117.919 109.533 120.942L104.326 120.948C104.637 120.875 104.947 120.774 105.253 120.682C105.382 120.163 105.432 117.501 105.109 117.081L104.581 117.073C104.674 116.603 105.474 115.092 105.73 114.578C106.056 114.284 106.035 114.295 106.459 114.177C107.527 114.992 106.314 117.835 107.441 119.094L107.884 119.073C112.663 116.408 109.07 115.198 108.263 113.326L108.395 112.999C108.882 112.633 109.652 112.668 110.284 112.628Z" fill="#4B4B4C" fill-opacity="0.45098"/>
<path d="M102.799 102.725C103.785 102.735 105.934 102.693 106.778 102.935C106.954 103.862 104.368 108.109 103.479 108.427C101.022 107.397 101.48 104.369 102.799 102.725Z" fill="#FAF9FA"/>
<path d="M106.946 112.179C108.125 112.265 109.146 112.291 110.285 112.628C109.652 112.668 108.883 112.633 108.396 112.999L108.264 113.326C109.071 115.198 112.663 116.408 107.884 119.073L107.441 119.094C106.315 117.835 107.528 114.992 106.459 114.177C106.036 114.295 106.057 114.284 105.73 114.578C105.909 114.059 106.657 112.726 106.946 112.179ZM108.59 117.967C109.157 117.379 109.169 117.536 109.326 116.833C109.21 116.202 108.619 115.708 108.085 115.399C107.495 116.217 107.272 117.098 108.01 117.899C108.209 117.931 108.391 117.975 108.59 117.967Z" fill="#7C7B7E" fill-opacity="0.568627"/>
<path d="M108.085 115.399C108.619 115.708 109.21 116.202 109.326 116.833C109.169 117.537 109.157 117.379 108.59 117.967C108.391 117.975 108.209 117.931 108.01 117.899C107.272 117.098 107.495 116.217 108.085 115.399Z" fill="#9C9C9D" fill-opacity="0.662745"/>
<path d="M101.967 102.399C102.432 101.867 102.252 101.917 103.012 101.861C104.627 101.743 106.63 101.916 108.205 101.734C107.753 102.539 105.205 107.726 105.004 108.474C104.223 107.903 104.604 108.803 103.479 108.427C104.368 108.109 106.954 103.862 106.778 102.935C105.934 102.693 103.785 102.735 102.799 102.725C102.471 102.406 102.508 102.502 101.967 102.399Z" fill="black" fill-opacity="0.0588235"/>
<path d="M104.581 117.073L105.109 117.081C105.432 117.501 105.382 120.163 105.253 120.682C104.947 120.774 104.637 120.875 104.327 120.948C103.815 120.967 103.62 120.978 103.118 120.892L102.95 120.59C103.003 119.669 104.086 117.98 104.581 117.073Z" fill="#1F1A1B" fill-opacity="0.0156863"/>
<path d="M107.099 141.538C107.91 141.442 109.336 141.474 110.196 141.469C110.786 145.397 111.033 149.521 111.534 153.499C112.167 158.573 112.811 163.6 113.154 168.702C113.411 172.53 111.136 172.712 107.985 173.494C106.718 173.739 105.866 173.836 104.581 173.951C103.825 169.725 103.558 164.544 103.103 160.203C102.466 154.119 101.697 147.901 101.487 141.801C103.218 141.804 105.344 141.633 107.099 141.538Z" fill="#E86260"/>
<path d="M70.8447 142.17L80.4188 142.174C79.7822 151.522 81.2821 163.392 80.4491 172.82C78.7619 173.387 72.9004 172.341 72.0679 171.138C70.8163 169.328 71.0504 160.264 71.0324 158.039L70.8447 142.17Z" fill="#E86260"/>
<path d="M143.831 27.762C144.426 28.2515 145.195 28.8456 145.714 29.3928C146.025 31.6082 146.046 33.9423 146.218 36.1732C146.743 42.9601 146.633 49.6071 146.626 56.4008C146.622 59.9078 146.997 63.6447 147.08 67.1767C147.13 69.3132 147.023 71.1942 146.985 73.3101C145.897 73.0699 146.385 73.9295 145.512 74.6601C145.347 74.5344 145.135 72.7667 144.659 72.0035C144.414 65.174 144.542 58.3371 144.312 51.5726C144.037 43.485 143.534 35.9086 143.831 27.762Z" fill="#FAF9FA"/>
<path d="M155.989 194.097C156.273 194.146 156.262 194.191 156.502 194.397L156.538 194.856C155.778 196.68 149.581 197.641 147.572 198.146C140.845 199.842 134.736 200.417 127.827 200.429C119.652 200.443 112.51 199.749 104.555 197.792L103.997 197.465C103.699 196.867 103.737 197.127 103.83 196.49C104.299 196.04 104.399 196.006 105.088 196.192C113.528 198.477 122.54 198.775 131.192 198.563C139.761 198.353 147.828 196.222 155.989 194.097Z" fill="url(#paint0_linear_61_369)"/>
<path d="M28.4287 194.234C29.4178 194.167 33.7324 195.314 34.9177 195.579C39.7108 196.652 44.2069 198.053 49.1523 198.391C55.6944 198.839 62.446 198.679 68.9536 197.89C72.6081 197.448 76.3054 196.652 79.969 196.287C80.4658 196.238 81.067 196.252 81.4528 196.592C81.3549 197.101 81.3989 196.932 80.8953 197.35C80.2906 197.543 79.6819 197.722 79.0693 197.886C66.2128 201.322 49.5847 201.387 36.8087 197.888C34.7514 197.325 28.9715 196.466 28.4287 194.234Z" fill="#E86260"/>
<path d="M137.233 175.175C138.967 175.08 143.998 174.42 144.324 176.693C144.167 177.377 143.564 177.943 143.085 178.483C141.084 179.062 137.133 178.601 135.899 176.641C135.784 175.761 136.456 175.427 137.233 175.175Z" fill="#FAF9FA"/>
<path d="M144.916 78.1297L145.119 77.7517L145.539 77.7767C145.974 77.198 146.115 76.0325 146.26 75.2909C146.339 76.5988 146.544 82.0513 145.85 82.9631L145.506 83.0909C145.158 82.8592 145.158 82.8259 144.973 82.4352C144.893 81.0749 144.921 79.5094 144.916 78.1297Z" fill="#7C7B7E" fill-opacity="0.152941"/>
<path d="M144.658 72.0035C145.135 72.7667 145.346 74.5344 145.511 74.6601C146.384 73.9295 145.897 73.0699 146.985 73.3101C146.967 73.6318 146.968 74.3576 146.834 74.6052L146.527 74.2161C146.22 74.5863 146.305 74.7369 146.26 75.2909C146.115 76.0326 145.974 77.198 145.54 77.7768L145.12 77.7517L144.916 78.1298C144.595 76.955 144.658 73.391 144.658 72.0035Z" fill="#C4C3C6" fill-opacity="0.984314"/>
</g>
<defs>
<linearGradient id="paint0_linear_61_369" x1="130.171" y1="200.087" x2="130.019" y2="195.214" gradientUnits="userSpaceOnUse">
<stop stop-color="#F05B56"/>
<stop offset="1" stop-color="#CC8883"/>
</linearGradient>
<clipPath id="clip0_61_369">
<rect width="233.6" height="224" fill="white"/>
</clipPath>
</defs>
</svg>
